<mxfile host="app.diagrams.net" modified="2023-01-08T22:10:02.147Z" agent="5.0 (Macintosh; Intel Mac OS X 10_15_7) AppleWebKit/537.36 (KHTML, like Gecko) Chrome/108.0.0.0 Safari/537.36" etag="ouaazGW3ufd0_etNSYvn" version="20.5.1" type="github">
  <diagram id="nrQPUFASMMXix_YJogW8" name="Page-1">
    <mxGraphModel dx="1720" dy="1016" grid="1" gridSize="10" guides="1" tooltips="1" connect="1" arrows="1" fold="1" page="1" pageScale="1" pageWidth="850" pageHeight="1100" math="0" shadow="0">
      <root>
        <mxCell id="0" />
        <mxCell id="1" parent="0" />
        <mxCell id="sQdlsXQTLmB8XgNkKAul-15" value="" style="ellipse;whiteSpace=wrap;html=1;aspect=fixed;" vertex="1" parent="1">
          <mxGeometry x="40" y="280" width="210" height="210" as="geometry" />
        </mxCell>
        <mxCell id="sQdlsXQTLmB8XgNkKAul-2" value="" style="shape=image;verticalLabelPosition=bottom;labelBackgroundColor=default;verticalAlign=top;aspect=fixed;imageAspect=0;image=data:image/png,iVBORw0KGgoAAAANSUhEUgAAAgAAAAIACAYAAAD0eNT6AAAACXBIWXMAAA7EAAAOxAGVKw4bAAAgAElEQVR42uy9B3gk2XUdXI3Q3QAmZwyArupGRodqZAwyMHlmJ+/sbGLe5XKZuUtSIinSCiuKVCQpijlsznF2KUrkmrYkWxIlW8EWlWyLSfJP+/tsiaIsSiR33v/Oq3qN6kZVo7vRwACYc+a7XwMDoFGod+vd8240DIIgCIIgCIIgCIIgCIIgCIIgCIIgCIIgCIIgCIIgCIIgCIIgCIIgCIIgCIIgCIIgCIIgCIIgCIIgCIIgCIIgCIIgCIIgCIIgCIIgCIIgCIIgCIIgCIIgCIIgCIIgCIIgCIIgCIIgCIIgCIIgCIIgCIIgCIK4+uiv7zbGQiPGiDFg2JG4kYlYRjpiylf1cUhKjSu1BVJXJSl8X/37QrgG51osdW24RlwrrpkgCIIgiBIwanQYnY1tRryhzcjUWUYmankNfG2BQa7pD1uhtCIDlnHCsFbtOvG79O/FNQRdXyZs4mtGpiFhdNVaRk9tzOjf1MGFJgiCIK5ddMt/tjSMdlO7NKQd0tjH8w1p1KqzpXHNRk3DluLFQG2HMW70G2NGOpQJW1vk95ryNS1/bkrKGSmvlHKXlPdJ+YCUj0j5rPy+B+Trw1KekPKYlPtcecz9v4fc7/mM+zMfcN/jLvc9z6jfgd/l/M4tuAZcC67JCzssjX19zMiCBITNWi8xSOPvamiX5CahvBiDm7uoEARBEMTGA1zj2ag0eA2WNIymkY4q973n1GzWHhk5Y/ybR79iJEP7jR6crOtNI1snv7fejEhDm5DfNyPlVinvdQ30b0j5UynfkvL3Un4kRayS/Mj9nd9yr+E33Gt6r3uNM7jmdNiMHjBOGoO1SSMV2SX/5oiUDiXpcKwmnxSYoXQ0pu7PoLw/2YhJxSEIgiDWF+DK79sUM/p2tsjTO2Lk8nQfjecMXlZ+nkX8Xn4tKw19f71lpBsS4Uw4bsqvH5fydimfkPIlKd+U8v0SDfNLrnEulB9WKH7v9VKJ1/LPUv5Oym+55AB/03Fp6OOperMhE2mTxChm4D4MRhMQ5BN4PAXKI2L0GLuMZE0rvQQEQRDEGj3lh2NGsqHd6NjUZaSd2Lcy+Gl5uh/cahrD23Hyl4a+CRKDgbPk109JuUfKZSl/toShv+JjmF9y5Yorq+UB0L/vpQLSoa+v2LX8q5S/lvKClJ+Rcjodtjoz9TFJgGK4d0ZGS8SU99AEIaiRRCrU0rDLOGNYRqrBosIRBEEQq49BY780VJYxsa3ZSNbFjX55mnVP+CpLPh1tD6XlqTZVH5cn2HYjFe6IyK/3y6+9QcqDUv6rlO+VaOivhoGvFkG4UiIxAPH5cynIP3iTlFE7mmiwGzsNG/cxtF9Ks5GrQogiAdKU9940Jjc7a3HAaKViEgRBECuDTLTNuEHI1004ocaMhVN+omagEQYKJ9g2afgRtzez8vT6FpVYF7H+JiBG/5KPoS/Z0NpRRzJRn6+HLZH2SKq+PEkX/Pyi9496fn/55KAwVOF3X77tJCaqe9hvN4IQdKiQykBdM0ImOqRSo7wFm9qM9k85a0QQBEEQyzf6m9oNO4wad0sZH2307UgilJGn/2R9zOitb0WpW2smEj8vv/ZxKV8LiJWXbez9jKzXoCfrFhttfE+2wRIDTZYY3GSJoc1xMbwlLka2StkWF6NKLPXxos+3Ot87tNn5WbwH3kv/3mK/e6nrLpEU+HkKrrhhA1Qy3CClpSfUYCQlEcAaqLVwyQDWSK2VXDOsHUEQBEGUjFRdp2puk41aRl8NMtYdo5+pN0PZSI9h7502MkYERqdHylulvCjluwHZ8j8s1eB7DaafodWGHYZ5dHtcTOyKi5l9cTHfmhBHrIQ43p4Q13UlxOmednG2r12cS7aL86l2cSHdLq7POHLRLi76+/Az+Fm8B94L74n3xu84YibU75zZl1DXgGsZ3BTPEYVi5KBEUnClwDtS+PXvuvcc3oGepLEt1L8rLQ1/u4E1Ul4ZuWZZeGmi7SqvAFUVBEEQBOGLdDhh2A2mYTdZKkNfx5yz0S4ju63TyDa118rTZdYtd/s9KT8oYvArMvYQfA0nb5zMp/bExUFpbI/FHeN+rm/BoN+QbReX+h3Bx1qCjHq5Uvg+3t/h/b2aMIAo4BpxrbhmXDv+Bvwt+JsKQwxlkoIgQvADdy2wJlmsUf+2DjQoQiKhk5cBr0CjJAMNCN3QK0AQBEG4cI29K6r8TBp+M2SjI1+0DR4AZOy/2TU0Pwpw618pxeBrY69PyPh/uNzHd8bF3H5pPBPOCR6nb210taG9mF1s0GF4FSFIV27oy5a05/cWEAYvQdBkBH/LKfk34W+bb0mI8V1xMST/5hwpqMsnBSUQAm9yYeFafBUlh1izVLTTSEnyhrV0iUDIbZ+smjARBEEQ1+qJv9ZUxh/GYOHEL43FVmkgtuL0GJ9xM9O/55Ol/6NS3Ppeg4+P+xstcWBHXMw0x8VReVI+0+sY0sITvK+Rz6wPWYocQPB1/O0gBbOS+IzJe4J7g3uULI8QXAnIHfie2+FwJr0tUZPaljDSkZhLBEzDbsTay9daiw8CQRDEtQR0mhsP7TbmjS3oue90o0PTnmi8LhO2TsvPf9fHyJTUbc/r0u9vcgw+Tr4nOhK5k733hOw1nNevI0NfqeegkBTgXuDjc/Le4B4hv+DATid0oO6lJweixC6FheQMnpvzmTDWNqETOWsna/YbY/X7VfdBgiAIYoPDaTCj3f1WCMa/r6bV6DV2Gm6v+z/yiTsvfdJXJ9a4Ko/rb4qJ8d0xebqN57nyvQb/wkY29BV4DAoJAV7PJx1CMNucUBUK3jyCEhMJCzsXYm3PDe/bGbrtgqGIn60HFkUsEgGCIIiNCMtwxtX2qzIxx92fjsRrks6JcEzKV3xa6gYbmLA2+pawG0wxvFUa/T0tYqatWZzobhPX2wka/CoRghskIbjedkIGqEA4sBNhAdMtS4yrtSjBK+CtxPiKHbZGk/UJQ/58jdO8KWGkGjrgAVKNngiCIIgNgHThqV9u+KgVz4TN7e7Uux8VuI+XOOlbItsojf62NjGxr0XMms1iPr5XHO3cL86lLGm4Omj0V4oQuN6B67pNMbW/RQzJNcBapF1CVmJ4QJO8j2WlDtiOXtS6uqHGHBdOYCQIgiDWGeyG1tzYWRX7jVo16Yjq4nfK7Ta35IlfGxe4oIdcoz9n7hMH26Uk9krjv0+e+mOOkcp00GivAhm4QZKsC5m4ONa1XxKwfWKyWZKBrTG1Run6uH/3Qn8iAB24Dl0cM6rfQ7wmHY7DM2D0N7KrIEEQxLqE3NDVtL3B+hb5cby2T36crI83yg3/VwuMwZVgw4/sdFOM7WoVM7FmafC14d8n5iy8NoszfQunfsrqC0Iu85KIYU1m5Rphrfq1VyC8ZI6A/vxj8nsbM+E26E1tJrJHkoAWNWeAIAiCWE/G320Hazvu/zp5MjTsiNkhP/5DT834S8Xi+/1NporrK0PvGn2c9iFz1l5xtKNFnkgTNP5XWXD/T/WYYl6u07xL0LBm43tb1BqCxBXJE3jJ00/gjzKReLcbEqjDhEfMfMDYYoIgCGI9GP96y5W40yM+qjb0k1L+r8f4+5/669HS1jH8MPQH2/fmjL7X+KtEPxrfNUUCTvdZ7vrsy1s7rKXKE6hfctQyPv4/0BU19yGKlsKoElCjiY2ezS18uAiCINYiBo2EGtiTjShBiV+dm/h3R0Gin6+7H6+jO1vFnNnsa/i1nOqN8dS/RknAGZcEeAVriZwNrK13rQNyA/Tr61KYLRBN1NroCil1CrqVNugNIAiCWHsn/7Db0jcsjX+DVau6vUWs9xWUgvme+gc3x8R0a7Dhn4MhkcJ4/zogAUnLdw2xttOt+8XgppgTFggOCWgi8D43hOR0iAyzVwBBEMSagxoB64zsDaUjZm3S2bjvKeryd0+CSBpTBiKxL9j4J5rF2WScxn/dhANMfxLgrjHWvIg3wBsSeH+6LoZkwFo7ijLBmAoHEARBEGvh5I+e7tt2qKx/1dY3qoz/TxUz/rqBz9T+/UXd/dr4n0vR+K83EnBdT0zlawR5A7D2yPcogQT8dLoBOQHxWuiYtSljpCNxPngEQRBXEz31Laqz3x4QgUi8zq33v6tYiR+SwQY2xVTJGDLGafw3Lgk43tUaTAJQNmg2K10ICAl4SwXfBt2yI1ad43Eype618gEkCIK4GkBCluP6V0ZfJ/xd8sRyr/jF+9EwppjLPyfy63T7r3853LE/VxkQFBKAThQhATp35FJGlwi6esfKAIIgiKsAtRlHdRtX5fYfkfKPHgKwyPijfe+Sht8VJvxtBC9Auzibii+51tAJ6EYACdC6BN0aSbutg91XPogEQRCriZTceFMqy98MZSPwBJg75Gb8l8HG3xLD20sz/jgtIn5M479xQgEni+QD5JGA7YEkQIcC/kKSzh1us6BQsjGhdJEgCIJYjZM/kv4icTXkx47GazKNKgTwqCfpb/HJf2ubcukvbfz3qrgxjf/GkyPtwaEALwlwwgG+iYFatx4dqk8Y/eF4TVLpomkkGxJ8MAmCIFYa6M9u17Z5Xf93BBr/sKVq/Etx+SPp77A0EhdoLK+ZJkFBAp0JqA7QnoA73HyA2oG6VoYCCIIgVhrZSEKetmLOZD9nA+7ytPi9Umj80QIWmd6lxv3PJhn338j5AMc6W0sKBaAbpB4z7JMUKBydMzvdNsE1dkOXkY6ySyBBEMTKnf6jphrVaketmmyDIgDPFGvxi85vB0t0/aO/P43/BiYAUs6VkBCoScB0y/6lWgY/ZUfaFAFwyk/ZG4AgCGJljD8a/YR11r96vbFYxv+BPS1Fm/x45VCiWU32o6Hc+KGAY11LewF0syDoUEA+QGFpYG1K6maKrYIJgiCqj6xT748hP/AANMqP/9yPAMBti0SuUt3+MAanek2e/lkWGJAU2OYXCtA697Vko9nQ1xSDd0oNDSIIgiCqiN5wa+Hp/+4g178kB06XvxJL/pD4R+N4bZGAo50tpXkBpA7NSF2CThUJBdzl9QL0hdv4wBIEQVT19I/Z7BjyEzb3yM32276Jf8r131qy65+n/2t3WFApBCAXCtjtGwrQuvftdNjagxBVGh4qegEIgiCqg1STNP71Me/p/91+ZX9w06Kve6nuXZT9HWpvZtnfNShYc6z9XIm6AhnY5FsVoHXwPdoLgP4U/Zs6+OASBEEsF3a96cT+nZKrbfLjbwbF/ieb95cV+z/ZzY5/16oXAFUfJXsBpE5Bt4rkAnxDnv63oT0wvACpOpYEEgRBLAuDm7v0sB99+n+tX+xfNfzZUnrinxY16Y8G8ZokAOj5UI6uQLegYz4kQOvi7doL0B9OGEmD0wIJgiAqd//r0399i5Gqa0Hzn98PPP3vL+/0f6SjhcbwWp8UiPbAZRAA6FgRL8Dv9YU7Q901HUpn7QbmAhAEQVSMvMz/qDUT1PGv1Ha/XgLAgT/0AhzvKj0MsESbYK2T09oLgBkBBEEQRAWwIwlp9BOI++ue/58MSv6b2Fd60588979NQ3htVwNYSw4Iyq8I2Kd0rUgy4Cc0AQB5tTkjgCAIonz0bG5RrtQ0Jv9F4lvkx39b6P7X/f7L2cRZ+0/Rcj6dEAcTzWV6j/b5zQnQOvntbNTako0q4x9KG0wGJAiCKBsDdR3e5L8zvrH/+rgY3dla1ukfLt9jHPlL0WOCO1rKCgNA16Bz0L2AXIBTuZLARnoACIIgykbOleq8fiao81+pA3/y4v9s/kOpoBwwNyiodX+xzoCf8uouQRAEUQZmjBCS/kI4QUlB3/+/9nP/l9P4x9sAiGN/KZV0BcxvDBQLCgP8VaqurQG9ANJhM3S91GWCIAiiRCSjnThB1bgnqdGgtr9ju1rLTv5DzPd8ipP/KM5cgHNlDAfKCwPs8g0DaB0dcXW3pjfKroAEQRAlQ7X/jVh17ib6477uf3n6mmop0/2v2v8yAZDiaQucblfjoOfKbAoE3SvSFOidru7WoZkVQRAEUSJU/X/UqsHoX7mJPlNIACrJ/tfx/6MdLez+R1nwAlSQCFikGkDr6FNKd6UOYzYAQRAEUQIGjf1O9z9nA93k1/sfm+7w1vJb/2KTP84KAMqihkCtZRMA6N7Q1sA8gK9Lw98E4w9dtgyLDzZBEMSSp3+n97+O/yc9m+qV/LG/5Tf/wSaPrG8SAIqXAKArZNkEQI0JXpQHcGXBExDv03kA/ZF2PtgEQRClkYBc/P9mv/p/Ff/fv78iDwBbAFOqUQmg8gCkDmaCZwPcqPMA+EQTBEGUgGxtzEsAfsqv/a/dYIlZs1nMV0AATrEHAKWgEuBssvxKAOjebKxZ6WJAW+Cf1AQgXUcPAEEQxNKnf8T+w7kQwCN+CYADm8zyN2w3cQunPRIAijcJsJJSQC39TYGJgA+npQ5LqeFMAIIgiBIJwEDIMrJ1igD8QbUSALWc6WMTIEphKWD5MwF0GGA4OBHwq4rMNlghdgQkCIIohQCEzVAmHDMy9W1RDFdZRAAq6P+fRwDYBZBSSACkYEDUXCUNgXa2FSYCal39ll1vRuyw8mixHSBBEMSSBCBi1jjjf82Y3ET/wbcCYHflBMBpA0yjRykcCrS/7L4SS1QC/H0mEm91qlriNXyyCYIgliQAufh/1pNQdcUbAsBMdsxmr4wAxEkAKIvkaGdLBaWA+5QuFoQAtK7+IB2xMjoPgE82QRBEEZjGLu8EwCm/GQCVlgCSAFCCEwE7xLHO1mqWAmqdndSTAU1jKx9wgiCIIPzxdz/iJQBHfHsAVDACmASAslLdAKdbfEcDa509rAnA4b7DfMAJgiCWCAHoHgCnfYcASZlpa14GAWAOAKV6BAC66EMAtM6eZjMggiCIEpB1N0t307zJrwmQIgCxygkAqwAofgTgRFdbRQQAzYB8CMAPC7sBpqNtfMAJgiACCUD+GOCXBRGA2QoJwBz7AFCCCED3ihCAWzQByDRwKiBBEEQgUrXtXgJwY7U9AOwESAkiACcrJAAzxQnADZoADHIiIEEQRDB6jGYvAbgQSADaKiUAnAVAqTIBaCtKAM7nPAChTj7gBEEQxeAhAGeCkgCnSQAoa5sAMAmQIAiiHISNI94ywDnfPgBSplr2V0wAOA6Y4ksApF6sQB+AWV0GOG1k+YATBEEEYdbI6wTY7zlJ5XUCnGyunACcJAGgVNEDAF0M6AT4o0xU6nBU6TI7ARIEQZQQAqjJOANU2uXH3/MjAON7WyqaBYANHtneJACUqhAAqYPQxQACAN1td8ksCQBBEMSSBCBqhqTgdZvcOL/jNwxobFerOFQhAUDDFxIASjXKAKGD0MWAYUDfyUbMbXbENOwIpwESBEEsCQxP6apHzfQOnJz+2m8c8MiOtoo9AMc6W8RFGj1KNfoASB2ELgaMA/7rV+01jIGGVgMkgCAIglg6BGBko2bIhhcgYv1OYSVAut4Sw9vaKs4BONLRQqNHqVorYOhiQQhA6+pv25G41OVECDpNEARBLAGcltKReE1azVG3nlhEAORmO7g5VlEbYDQCOty+n0aPUhUCAIEuBhCAx3X8nwSAIAiiFA9ANI4EQF0K+InCZkDYbPubzMoIgIrbNtPoURYRgGMVEgDoYgEB0Lr6cV0CSAJAEARRYgjA0wzoZ/0IQLbRVKf5SkjAoUSzuJBO0PBRPASgXeWGlEsAoIPQxQACcE9Ol+uZA0AQBLEkWoxNXgJw96J2wCAADZIAmM0VEQDEbc+l4kwEpOTJ0Y7yCcCs1EG7IbAN8N2aAPQa+/hgEwRBlOgF0ATgNr92wHbUmQg4X+FI4LPJuDr10fBRtBzp2F+WV0lPAoQuBrQBfg3bABMEQZSBHmO/lwBcKiwDVBJdzkCgfeJMkiOBKfmC5NC5Mj1J063NShcLCMBLBZMAa21OAiQIgijZA6CTAE8GzQOYXsY8gNMcCETxyAUpSA4tN5QEHfQZBKR19YQmAHyiCYIgyicA0z4brMoDwBAWDgSiVIUApBNSl5qrNQhIyxQJAEEQRPkEwB0IZA75nKycgUD7lzMQiPMAKAtyPiUJQAXJpNDBgDkAkCHOASAIgqiUAESttCemungiYPs+zgOgLK8EUAqqQsquJmnfKyaaAwcBSZ2NpzKqmVWcBIAgCKJUpCUBwEwAKR2esqq8gUAT+1qWNw+ABIDi9gBAVUhFBEDqYMAgoB9yEiBBEMQyPAB2xGqTr//qSwCWMRKY8wAo3i6AZ/qsygjA3kAC8K921GqzHR0mASAIgiiZAITjISmGHY7vl5vpv/gRgPFKCUCc8wAo+QTgVK9Z0STA8WAC8C/psLVfiiGFo4AJgiDK8ACoCWp22NonX7/vSwD2VEYA2A6YUkgAUBVSEQHYE0gAvp9xdFfpMp9ogiCIsggAxgGbe+TH/1xtAoCMb2R+sx0wBQTgZHdbRQTgQDAB+GdXd0kACIIgKiQAu+TH/8+PABzY3VoxAYCoeQBsB0wCUOEoYEUApA4GEIB/krKLBIAgCGJ5BOAf/QlA5R4A5AGwHTBlYRJg1QkAdHYnCQBBEEQFBMAtA8Qm+g++BGBP5R4AzANgO2CK7gNQySTAJUIA0NkdJAAEQRAVeQDU5rkzyAOwnBwAtgOmLBoEZO2rgAAEewBAXtMkAARBEOUSAFOHAHavRBKgagfczXbAFMwBaFdVIZX0ASieBGjtpgeAIAgiAEn5b3DLPmN4614jG0kYjtFX5X81UuSr2RxYBrh3eQSA7YApuTkA1ScA35f62+zocG6uhZLs9m7D3tptZIy93AAIgrgGTvRys7ObOoysFNs5FRmZsBWSgpa/mPxX50qtK3XpqGVIMYM6AS6XAKh2wDSAnANQwRyAEhoBQWdN1wOQp9f683Q4XoMmQW7HS+fZkEJiQBDEusaslFRD3Eg2xY1MQ5uO6dfoDdCOJEKpsIkkP2Mw0ukTAtCnpngssBXwvpZlJQGyHTBFtQFOWmXH/0tpBZyJKt31nQUAnYfu4xnAs+AhBtD7UH9DqyQDkhg0WOpZIgiCWNPoj8Yxvc+w6+XJvTFuHDJaDOfUE6/t2mIa5u42I1svv6fONDI1Jl4jdjhuyY1wUn7fRSlvkPLTUj4u5SEpz0j53YIRqy4BsJZHANgOmOISgNN95bcBLjIMyEsEftfV4YdcnYZuv97V9Ym01P1UvRWxa+QzU2cZvXXtxtiuvcbQlhYjHU4oj0G6KQZPmWE73jAjK4UgCGLNIBWRJ3xp/NNNnWqT8pz0azK18nPDBDHYJD/HaN9XSPmolK9I+Zbb5OeKzwZaVJYzDnhhnjvbAZMAVNYG2CEA+6QOLhoHXKpccXUfz8C/dZ+J12Yi5oAdNTcNGa1GtjaW/yyBXMtnzJbPGp45giCIq4psA04oaua5u1nFazLKExAPqdeINS/lKXejK7Yh/sgdofpD92MtL/l+v9x0p/ZLApBYBgFw2wHTELINcEUEQOrepNTBIgTgpQJd9up3sWfhW+4zczADj1k4HrKdZwxkoEblC0RMI9WQ4AZEEMRVMv7hhBGXBKBbJfTFa9L1Vsiui+G0b8uN6p1SnvBk8Bcaem3cr1TiAYBMtyyPAKh2wMk4EwHZBrhiAjAldbAS3fXo/UsFz4T3ezAF80n1LMlnCs+WHTZDqqog2mykmrYZtiQIBEEQq+v2r+8w0tGYEsQqcSpJR61u+fHlglP7S+7m9lKFG2UwAWhdPgFgO2ASgKOdLRUTAOhgtfU64Jl5yX22ejJOmK02HU3IZ67dyNQzHEAQxCoC9c2pCIy/KTciVbt/3NOy9yXPiebKCmyQwo5aYqatWSViYSNWgo+9nydKaQcsCUCmQzWDoUG8xiS9dBdAry4t0i/5MXQQurgSOl7gMdNk4LtSTqoSWUkC8AziWSQIglgVoJnJYHSXMv5Oc5P4pKdb3w9XyugXSn+TKQY3x8TwtjYxuqNNDWZBWRbisjiZzcSa1cae29w9G/chJA8m9orTyZi41N+hBsJ4xa9bnFeuTy8YEMpVNuJpn/XxGfij5YbsglyUcqQzn0h6CSJ0CLoEnYJuofXv6M5WpXODW2JKB1dD191n6oe6yZA0/lNum+FaG14A+RwSBEGsPAEIu0186lXJ3xa5CX3Nc1pZdFJfqRMSkq9yUu/0BlAS9vzuBlNkG00xsCmmNmxs3CMuWUAXt/k2U5zoaBfXdSXEmZ52cbavXZxLLhiRnMHozzccxaSQTKzVkcPr4dqCDHdR6V9YB03esKZYW6wx1vpEe0IcjSfEoZgzVnp0R6sY2d4mhrbGxMBmx7Bnpe5o3XV0LJ6nY1pWysMV8NzoZ+zP7Hpzi12vygRD9AIQBLE67n83Buk2OXmn5+S/yECn6hyBgVb/H/VsbtFVOTkVJQqFG3m2wRIDTZYY2myJka1xMbpdGogdcTGxKy6m9sbFTHNczLVIw9GWEEdMx4gcl8bkZEdCXNeZEKe6E+K0NDJnehfIxPmUezItYtzKNnIVkBCvQcQ14dq811fs2qp1XUtdW+H1KaMt7yXuKe4t7jHu9XHXgGMNsBZYE6wN1ghrhTXD2mENsZZYU6ytVx9S9Y4E6cSqnOx9ngdcT+658b8O/ay9w30G1bNIEASxCh4AM5SuazPSda1hufH8uSfun9uksLH2y013Yq8pJSZPVmbu/5O1jqhNrj5/k7Oj+bJaJMGPMGgDUap4PQ8wNv2Nzj2A8RncJGUziEVcDG+BYXIJxra4GNvuCIzW+E7HgEEmd5cn+ufwHgd2Ou+H98XvwO8a3uIQG1zLQFO+4P/wNefaFq4L74H3WtZ17V64rnF9XYuuzTHU3uvDvcM9xL30nsQrWZdVM+gBJ/nCE33u76jzPA8uScazgmdmYp+p7kGOPOcnBOL1a3ZdW9iub1PPJHcmgiBWFMmGuPf0P17Yolcb+ZHtprg41iJumWkRN0+3iBsnW9A9D+IAACAASURBVMS5wVZxItkmDne2idlYTJGD4W1wz5vCbnA2umTdguQRhCIkwY6u3imtZFJS4F3wSrkGrJqSDheXq3ptRa5vRdaoioa98HfmGXiP4G+ErkPnR7aZ6hnAs4BnAs8GnhE8KzfPOM8OniE8S6l635wAvB7QXgA8mwRBECvrAXA6k+H17X6xf2xyp+1WceucY/hvmnIEG9qtsy3q/2+ZdTY5kIMbDrSI80Ot6meO97aJQ4mYmG6NifE9phjdYYqhLaY6BepNFRtpb40jfbUuWSiRKKwKYagi8ShLrvXrWgGjnqcr4XwdhO5pPdQeLXwdBn5ws6kM9/huU+kydBq6DR2HrkPnofvK0LvPBJ4NPCP6ecGzg/8/lWn18wLoZ+5uPXCIOxNBECuKvoaElwDcVxj/x0YFg31pYmEj8wo2NS36//I2Qo/gc3z90niLuH60VZ2OTqZaxZlkTJzpscTRuCXmWiwxudsSo9vy47zYpPs8JEETBU0Wlgo9BBqDdWTQrjmJlrGOkcUhBa0fWl+U7tQsuOZtNz8Eugadg+5BB0/3oJeEKV42aopXT5nihrFWcfGAo+M50uvRaU18iz0TXsGzhGeqgAToZ+4+TQD66AEgCGIlgdKj/ogVyjqbzpe8pxFsrDgF4eSujHfAhhYk3o1QbYaTBQRhxnm981ibeOc5U7z9jCnuOmWKt540xZuPm+KNR0zx2jlTvGpC/v4RuRFnTXG2zxInOyxx2LTE7H5LTMiNe2y7peLhmjDACOhNP0j8yIOfa9qOUlZSlsrXKDTiQYLvxfshxwB5BzDq0A3oCHQFOgPdgQ5Bl6BT0C3oGHQNOgfdgw6+46zzCnnrdbFc2Evp9aSPXpfxTNzkkgg8U3i2PPdAewC+hLbAUkLpCAkAQRArCDtqhgabWo2RLfvQl/wPvUlJ2Jyw+c60xhQBKHuzK0Euyfe87WCb2oDfcsLZiCFvu84RbMp3n17YmPXmjP/D1zRheONRU7zuoClun5Wb+6Rzertp0BTX2yANpriuyxTH5OnuYJs0Cs2WmNojic3OBfKARLVso09iWp2/EdKu4lzooqaAYGipq5L4GL1F11DOtVXxuhZdW03wteWRLx/vDdYAa4E1wdpgjbBWWDOsHdYQa4k1xdpijbHWr5QG/bZpU9wxb4o3SKP+luML+lFMf7Seab2DDmrB5284Gquq3isvgnyWplti6h54CIBOBPwDWz6LtnwmM1EmAhIEsaIEwAr1N5lG/6ZYvdx8/tSPAMzFVo4A4D1fLQnAXZ5NuFC8m3LhBu0lDIUbfpDg6/h+vMebjjmnwNcfdgjEHfJUeNuMc0J8+ZhzWoSRudQvDU7GFOdTjvE51S1PlZ2WONEujVLCEkct56R5SBqp+VbHnYzT54w0XDP7LDG915HJPUVkt2Ps9Peqn2123gfvB4ERxO/B78PvPdEBgwi3tSnOpRzBx/g/fM17bfhZ/T65a2te+H1T7jUUu8bcte3Lvzb8zYcKr63duUe4V7hnuHe4h7iXuKe4t7jHuNe457j3WAOsBdYEa4M1wlotuaYFRr1c/fETvM/rQACmqk8A8EwFEIA/7d+8v75fEgCbBIAgiJUEThl2Q5thN7YiD+BP/AjA7AoTgFfNty7atCuVoM0+aPPXJ8C3nconEFoWGZuzCydJ74lSEwuvZ8J7wiw8aS5lePLE59r073zH2eISdG1vq9K13VXGtb39rD8ZK3Ztla5rNQSk9PZDbcpLVW0CMBtMAP5kUD6LA3gmSQAIglhRAhBBB8B2I1PbFYL7sZAAwE0Ld2UlOQClbogvn22t6sa9GgRitYxQta/vWr535QoICMhpVYmvJwSQCggBJGutUKpe5eSQABAEsaIeAMOuT4TssKoGeNE3CXDvChIAKbfOtK65zZ9CgbxM6mY1QwCaABRJAnzRDsfVM4lnkyAIYgU9AHllgI/mlSRFF5oAVdvwF8qbjsfE22hwKGvl9I9KlBOxvPK+aopPMyBdBvgIBgHZEbMuGW3nBkUQxIqHATQB+GBhIyBkZ6N96cWx1hXbDHHCuvNorGp5ABRKNdz/d1a5AkCXwF4cbXVaAod9GwF9gI2ACIJYFdgNMW8r4Fv8OgGm3E6AKxUGUKWAh4pXAlAoq00AUJ56aQXi/+gEmAruBHizbgWcarS4QREEsXJIyn+ZqFmDeKOUjF8jHNR5z1uxRa2Aq5kI+Iq5VoYAKGsqBIDk1Gr3AMAzNG8uqgBYmAcQtTIZTOeMWjV4NgmCIFbWCxA1Q/1NMWNgUwyhgD8rnAao2gFvNVfE+OfmCky3iDczEZCyRoz/m46bKxLyutG/DbB+1v7M3tJaa29qYxMggiBWB94Z5FJ+bVEYwK0GONHXpvqfr5QX4M4jzAOgrA33/+uOxFbk9I8BQniWCmZQ6Gft17zPIkEQxIoj3dAuNx2zFtnHUmb9RgLjxDK8gl4A3RGQBICyJur/56rr/oc3AUOABhef/nPPWjpizWgCkG5o5cZEEMTKY6q2BjFHw97WZnQZtlHYECivK2DbyuQCsB8AZa0IQlG3VNn9j2cGMzV8Yv+5BkCnjB5j3/b9Rho5ALX93JgIglgFD0B9uzFZk3Fdj2ZgNYCuCDjc4ZAAnGoKJ/0tOwzAckDKVT7933GkbfkE130u8IzgWTmUcDr/+Yw91s/YLfr0P1DTawzUcxIgQRCrhKxTDhhK10kCUB9DDPKrxUjATFtMuTSxuaG06ZaCmeg3TZZPDqo9F4BCqYQAvKIU93/ASODcqOtZ59m4NN4ipluXNP6/n6y3alN1cfUMphrYAZAgiFUEWgEbm4QqP3LLkCblZvQDNz55pXDzgisT8czDHW2qrvnsQKu4OLawCeoN8FZNDgoIgt9MdTUohdUAlKuY/f/GY7FA/cwz8DOObmsCrHX7hgMt4vxQqzidbVXPxuBmUz0rPsZfP1d4xiYyYUm8w1ZNY2TCQCtggiCI1SUBTgtSb0XAOzxtSq8U9gdAJzP0CFBNTeTn/Y1OueCB3aY69cDtiaxnbIYXRlrV5qjcojMuOdAEYXbBi4BcgNcebsuN610PQ2Moa1+K6pKrT3efMsVtUvduntnvGPfZBT2FzkJ3ocPXj7aIM/2tqirmcHub8oaN7zXF8DZTdfjzPht49a33X2j9+2Pa9W8jDyfC0z9BEFcB6hQSaTNUHkA0XpNR1QHWx92N6gd+ngDv5obNDhnOcHdi81PkoG5hExzYZKoe6CAIU/tjYt5qE0e72sR1qTblQQBJuHjASQbMjZf1jJZ9e8HM91LnvpM0XDvGvHCdvWOL9ajiwjHJd512vvfOw6Y07q3irDTu0EnoJhpgQVfHdzu6Cx3WBh7EN0/P6/Pb+/oYfuE59ePjj6cxiwPPWiRmDDS2G/LnuRERBHGVSEA0rsRGPkDEqumJxLwk4Ed+OQGLJOpsfmoDLCAIKS9BqHM+1iQh22CJwc2WOklN7rHEoTZLnGi3xNk+S9yQNcUtI6Z45YQpbp81xevlZv3m4wubvN7gc7PnC+bN52bNV0AcSjk9rgdjuN5GK3td815DniOHpxfWWa87CKNeZ6wNdAS6Ap2B7kCHoEvQqePtjo5N7bXEgR2WGNoidbbB1VNXL5N1CwY+Vb+of39OzwOMvV/MXz8/H8ezlYqYNSr3RpJvCEEQxFWDZViG2w8AEkojJ6BJuSjfJuVfPKVLP3Rfr5Sw8QVumnkkIew5WckNt6/WlRpL9NY4/6eJwkCT3LA3Oxs3NvD5VkscjVviuk6HMFzMWuLmIUu8fMwSr5q0xGulAbjzkCneII3BG48ukAcvcXi7hzgEiTY8XlJRSC68Uq3EtELJ+92n869Ln2rXxLWdyr+upe7v27Uhd69fleUdd9YMa4c1xFq+Wq7py8acNcZaY82x9kfjptKFnFHf7OhK1jXs0CHoEnRK61fSNfR59flRHz2NlC1XPO5+Xe73fSlvtZva3ZO/GXJybkzjgMHaf4IgrjKy9ZbuDqiykuXmVGtH4Qkwbfn5l4ucbn7oyo8qIQbFSIJ3E057iEIhWeh1yYLe2L2nNuVh2GSJka3SOOy0lJdhptkScy3yJBizxDFJIE5KI3K6xxTnUqa4aFvi0oApjYwpbh01xSsOmOJV8hT56ilT3DbjGKI75kzxunnHMOGk+YYjjrF60zFHYLzecrzgRHtdsOSdnt2f1e8Fwfu/3jWE+L2vnXNOt6+ZhlF0BB/j/167wtf2Zs+1KQONazu0+Npwr3DPcO9wD3EvcU8vDVjqHp9Lmuqen+w0FYnDWszLNZnZ56wR1gprhrXDGnq9SXrtvevuXXu9/loHgvSqQgPvNfQ/8jwDQfr/JTxDtpNkW6ueLfc5wzNHEASxdsIBYUtLKB2J1xrCMLo3tdW43QIfkPJ3nmSmqyLFNnS/Tb2QOCRrPZ6GAEl6TonaC6EJBRIfccKEccJpE27kYWmsRrZZYhSy3RJjkB3OiRTGbLyIHHC/D98/5v7sqPteMILDW5zfg9+nTraNVl5MWhs8/F+24Nrws3gP/X76/SH69xa9tp3514a/DX8nBH8z/vZBz7Xh3ngNtvcelnPfvX/Xctd/leVH7jPyAJ6Z9CazJmkcMdJIspXPlH6+CIIg1hwuSkFSUn9Tq2E3quqAmnQ4VpOJJo1sZLthR+JNmbBpyU1sWn7tZVJ+QsqnXS/BN4pujuGruzkvZThKNSr6dJmT+gWDtUjqCoxggKTqirxH/eLfGfQ3Fn5faoWvLb3EtVXrnq+6LK2r35Ly21Lul/LT8nT/GimH5cdddsTcNFrfYHQ1DKK8r0Y9Q40JQ4UA5LN1kdsMQRBr2hMQsVR70nSDPLE0xp0ywTD6lZtGWhID2+1almlQJ5padbKJWHcHNRJSMf9GU2Qa8uP/vhJZ37Ico7fSxm8tX9uqGvcgvYt6dDVatJHP23UpX6rBOdHjmUg3xgw8I+qZiJi1Kfl5Bp9HHbc/QRDE+iIDKn4Zd/qVR5Qbs8btG4BRwvXJSFfIDrc1yY//snCeQE62x0RmT5vI7JKyU8qOmPN/26RskZvtZilNpksSzEWVBM5J21yQsJl/6twAxIFSviHP9z6YeTqySCegUw2ujjW5Ogfd2+rqInRyp6uj0FX83+Lfq3Vb6rrZ1N/YgZh+vXzvOjfGX6OqadTzElfPDkEQxIZBh/xn41QT6Vh6lgA2YWy22FB3e2RPgOiv54hCmxjb1ynG93WLsd1dYnRXpxje3iGGtraLwc3tYmBTQvQ3xkVWit0QzxGHRYQhjzgEEAiSiFU/hS8y4FoC1m7BkyHXvMFZd+gAdAE6Ad1QOrKrQ6S3eQz7LlenStU//T1Npp9eaB2/OdfLvyFh9EVixqh8NgiCIDZ4iECecBrihl0XC0nBJvhiIAHQp//d5Ul6d6sYbI6LuXhSzCU8gs/jfWIWYjkyY/aJ6bZeMdXaIyZbesREc7ciDQf2dEni0ClGd3aKkR0dYnibSx62SPKwWZIHEIimhDIkMCggEXlu7rBPzL9Ug1WipFxRp9ZVMsCFv7diCSBUQXkBKozQsGC8ce+xBlgLrIky4nKNsFZYM6wd1hBriTWd3N8jpuT6Yq1nYr259YcuzClZ0BPoDnSoEt3LEQDobjAB+HKmXuq+fAYyDXFVRksQBHENhAWcBEGcgOyI1e/r9g+7sdTdbRXLZKxbzFnJhY2+mOSMQF8AafDKAoEAeZgxHYMyDVFEYoFMTO7vzhEKRSr2dimjpMnFmDxx4tQJg6VkB8iGSzi2+8g2V7Y7hm4E5GSn49mAQVxp44/foX63+3tz1+m5rkJR17nD+dtyf+cu52/XRlrJ3q7cfXIMdre6h7iXuKe4t7jHuNfqnps+BtwrPsSvkPwFybR8f3t3bFn6p6TRDPIOvWRHzH7XC1CTbEhwYyAIYoMb/4YOw65XLYPr3M3v/Z75AfkEYGuFp/9drWJoX7x0418tySMRhVLEOJUh85B2R/A7caqFQYUru5wkO1X2B1d4NF72z+HUDaMOIz0rjbC+nvlE5X+XH8nyk1KMdzUE1zDW0ql0qWLjD93d6usF0Lr+fvcZqBuobzNSDe3cIAiC2MAEIBxDclNIeQEazLDc/P7CN/kPRmnXMk7/bd1qE19VAlAtMbVnIZ9Y4GOchnFahssbsewFd3oJxhu9CNxs/D75M101MdEpBR9rQmCXEgLw5Ejg53AtyLHAKd0xnoUeEudvWo9r0b/XdEIBlZIA6HA0MBnwzzMR+Qw4HrFQlq19CYLYyEiH86YHHvJ0Rss//W82Kz79D+yz1qfhLziB4mSsTvktPcpljlg3jElhUtvSJ33nNeka/Z7amJja1iFe15cVr5cys71T9NbF1NeSOTJQetmezmPAteEaca3wTMDo69P9el2D8bau5XsBNvuGAbTOz+tkQDb5IQhiY3sA9GbnvP6yr/s/sozkP7lZH2jtXH9GxxMmwIkZ7nW42XVcv9RTvte9X2j0J7a2i5e3p8UHpw6Ip87Piy/fckTJMxcOil+YPiBeJr82saVDfW8+GYiXQQasXEJif1M8FyrA36T/vtVy41dLQCgr9gIElwRqnf/lhWcizg2CIIgN7QEIJWtbjZ6a1rpA939D5cl/2T0xlSC2Pk6Y+oTsVCEg+Q2JdMhwz7nZyzT6+LivzlSu/V75ipM+jP4HJsfEE+fmxZdudoz+Fy4dEs9dPKjkBfkx/h/yuPyen5dk4JWdGfWzCA/o91LtjCsgA2ogk/ybhrZ2iPG9Xepv9f7tG94LAGkIDAP8RTLaVivFSEfMEHcIgiA2pvGP5Ln/h33coct2/w83J9b06V8bPpyCp6QhzIvnuyVxmTLi+ZC0/BindhhqfHxwZ6e4o9cWvzw7njvpw7h/4dJhafAPKbl8wyHxvEf0/+N7NEl4Uv7sh+cnxOuTWXF4d5cy5J2uN0EZdZVEaJWUN5DxlD7ib8XfjL9d5Q2sAzLg5AJUNQzgCXuZQ+40zRqbXgCCIDYiBo2ElwC8M7D1b8W1/21iYg0m/+WMvpvEh9I3NJ9xhvKUEc/3nMBT8me6XVd9f0NcXNfcI+7ODohPHJlSp/oFo38o0Oj7yeU8MuB4Bl6U73VZfo73xu/A7xqQJ3r8blxDKlxJqGAhb2Bwc0LdE9wbdb/WGBlwKgI6KvcCBIcBFrUGThpJbhQEQWw8JOvjhh2Vpxwn6/mLvgSgwux/GH+c0tai0c9L4otUksTnZOfreD6M7uimhLgY6xPvHh4Wnzsxo07uMNS/edMR8cIN5Rn9YmTg8kUnVIDP8d74Hb9+42Fx38kZ8b6RYXGDmRQj8lq0B0JVFEQqzxtAOSPKGtGwZy2RgWmzZ3l9AfyrAbTuf0H3A7DZEIggiI2G9ro9hmee+S4p3/F1/zdV7v4fucru/7yTvmv0UTNfaRIfPu514/kwrCqe35EW94yPiodPz+UM8m/cdNg9uR9UBvv5G1ZGNBnA7/qiJAFfdgnHI2fmVI7Bq7oyYmZ7dfIGdNMhNBuaXANkYE7K4L748rwATYFhgP8pZaf7bIS6wq3cMAiC2DgYaOzyuv8nA8v/tq4v9381jH5ePD+8EM/H147s7lKleh+an1DxfB2fxyk8Z5BX0OgvSQbk66+7ZADy9IV5da1vSvWLo3u61d+QnzdglZw3kEcGNl1dMgC9QnXJsgiAf1Mg/QxMaC9ANsw8AIIgNhCiobC3+19w/H9HZQRgVbP/C2P6u5xOfJUa/ZT8fh3PH2iIi1P7e8Xd2UHxqaNTytjqeP4LuXj+wWW59qtOBjwhhxc8eQP4Gv6Gdw4MitPyb0KuAv5GyELeQPlkQIUJdq1+mGBZYYA97hTLpfMA6jbVRLlhEASxcVBQ//+wb/1/Q4Xxf3kqG1yF1r/ekj10vsuP6ZfXic8bzx9uSojr2/rET4wMi3tPzqgTtXbtezP0n79hfchznrwB/A06bwB/208MD4tLZlLlMHTX+jQfKpcMqATC/NLCFe8JUKkXwD8PQD8DD7IhEEEQG5UAhFJyg0s5XoCvLar/X2b8f2yFmv9oo4IBNKhhd0r2yjX6i5vyjMv3ubU9LX5mfFQ8dHo2ZygRW1+NeP5qhwqed/MGNLF59Myc+NmJMXFrIq3uhW/zoTLIgG5JjDWCJ2glvALQr9GW9mrnAehn4L8mI/G6VCSunhXuGARBbAikw+1GWm5qUvDaKje4f6pm/X/Zk/9KPO3rYTvoZuc05yktez/I6E9udZry/NzkmGq4s1bi+VczbwD34LGzc6o7IZoPTch7pBMfyycDzvpgrTCFULUjtqrnFQABQJ7JCvUD+Kd0xGxx+wGEUk3MAyAIYuN4ALT7/2BgAuC2ZcT/rd7qnPbjzmkfTWq8cf2lmvN4Y/pJTxY8jP4rOpz2u+jE9+VcJ77DazKefzXyBnAvvux2IsQ9+sWZcfHqLqcTIe5h2WGCgnwBrCXWtBpeATUmeM8y8gC2xYIbAoXNWZcA1HLHIAhiQyBV1+1NALwjsP9/BQmAavRv8/Li/3r8LJLKcHK0G/Rpv5xEvoWYPk6xMGC/5Hbiy2+/u/z6/I1OBvT9wr37JQ8Z0GEC3OtSqwl0iCAr13QEXgG5xproVVoOOLC3wjyA4ERA/Sy8UicC9u1r48ZBEMRGCAHkJQD+ki8BiFaeAIi4bCUbunYNY1jN4Nb2hdN+iRP20m72vmrMs7ld3JJIife7Pfcr7cRHMrC4okC3Jf75KQwsSsl7vZBAmAqXPrlQry1yBbDmlYQHoGdoN71CiYD36ETAdJQhAIIgNgIBkJuaPKnVuJvbc74lgBUOAEI8FsNayiEAetPH8B24iNNun/pSm/P0uKNzhxoT4vpYn/jpA6Mqqe1Li9z7NOjVqShw2hLrMAHuNe75JSsphpoSuRyLUpsOae8O1h5Jg+UQgWX3A/AfDKSfhSfRCVBKTZozAQiC2BAhAGn4ByNWaMAhAH8aWAFQ4YY6HetRrtlSNm9l+Pd2q8YyjuFf+rQP0d3t8P0n9/WIdw8NiwdOOdn7OpGPJ/2V9wx4Ewh/U5KBB+UaYC0wn0A3Herz5AssGR6QZKDfSwSWIJLLTgTcXbQS4I/tSMzIhmMhEgCCIDYE7Eg8hClnUjbLTe6bvgSgwgqAkhoAuTFfuH1RN76U4dexfee07wzdmd7WoabiYSAOXNMvFmbv00ivMhlYqCZ40fW6fPLolFqjaTdfoCfXirh4roAmAvAIQEdUomA8OAdgKoaGQFWtBNDPwjfT0fgmuP/TLAUkCGIjwBlyosIApvz4H3xLALdUlgCIxixLndimY71iWBqFUg0/4spddc4p8vSuTnHP2Ih4+sLB3LCd52/Y+CV767HPgO6l8JRcq/ePj4pze7rUGmItk+FSiYAlhra1O42FAsICM2afIp4VE4AtgaWAfy8lplsCc+cgCGJDEAB3U+v3bHZXllsCCAIwXGQAkIrX7u1S8+eLJfd53fzd0liMNSXEq9p6xC/ZGfH4wVHlbnba8NLorwcyoDw0tx4VTx2bUGv4GpR1ovOgXFsdHiiWJ+A0Foor3QnSLUyeTFe/FBCvWRIAgiA2EgHQFQCHAmcAbK+MAIzu96kAcN23KOkrltxnuyfCXrnhw108L09+d3X0iU8O94tHJwfFQ+MD4qnTM+LypcM0/OssRKDCBNcfFI9MD4tHJwbFp0b61dpijbHWve7Y4qJEQOoOdMirU1oqngwIHd9edCbAQV0JwJ2DIIiNRABuruYQIGzABwpbAMf7VE6AivUHnPr1xg8jADm6o0O8uycl7h0bEI9Jw//A+KD43Gi/eGhuVJ4mD9OorlN54cbD4snrptVaPjDurC3W+D1yrY/v7Mitv10kNAAdgi7B7a9JwLJKAZceCnQjCQBBEBuRALw+kADsrKwHQOEIYGzUOePvc7pTnfrCTnLfoe3t4j29KWUccOK/78CA+Lw0EHi9T74+c2aWBGC9kwC5fg9LInevJAGfP+Cs7aOK5A2I9/amxWF5wu/x5Ags0kt37gMSBGfNBQIwsn8ZMwGg68EE4E4SAIIgNiIBeJcvAaiwCRBkSpUAJhdOZnD7+xh/2xXEgREPfmdXUtx/wMfwS4GxeJin/w1DAJ45O5tbW+9aY+2hA++QuqBzBLSe+JEA6JbqIij1bXQ5BMC/GZB+Jn6cBIAgiI1IAD5QTQJguwRA9/FHCZdflr/tZngjAezWlm7xyZF+X8OfIwBj/eLp0zMkABsoFPDooQOK2AURAeR9QDf63CmPdkCVAHRsPpESYy0dK0UAfo4EgCCIjUQA9ByAT/h3AayQAOyJqeEsc67rv78psYgAYCPX7WLf1ZNyY/z+hl8b/4dmR1QmOY3nBhF0Zjw/L+4fH/Rdc+iCDgNBR3QpqO1DAPqbnLkTy+oGuKtoN8CP6XkA3DkIgthIBOC+arYBzroEYD6RFKM7O4sm/f1MKi0enxpUm/29B/yNv3b/P3XdtDo10nhuLC/A40cnFnkBcuvuEgHoCHRFeY0CkgLHdnWJiVjXShGAz5MAEASxITCbTwAeXjQICCf2xsoJAMYAo2mLHZDwh7juGxJ94ompIfG5sWDDr0//D04Pi+dZ8rcBvQCHxHMX5sX9E4NFdQA68oQkAdAZ6I5fYiAmC442d1TeChjSuKgZkCYAD2oCcJHbB0EQG8gD8ES1CQBKs4a2dSw6/esyv8Pb24tu+IWn/yeOT/L0f416AQoFuqPLBPNIAEJKm62KWlcXIQD6mXicHgCCIDaiB+DZahGA9K421Y1tvLk7sJEL4rjvT2fEIxNO/fdSGz5OhzglPs/4/zXtBYCuQGegO6liw6Iq6F1RAgF4RhOAN3H7IAhivROAdCRei+lmclO7XDUCAA+AJAD9mxcn/mnX/837u1Vi1+fHSjv9I1Ocp/+N7wV47Mj4kl4A6Ax05yapQ76hgGVOsCxCfKV60QAAIABJREFUAOQzgmclXtfP7YMgiA3kAXimaiGAgJaqOut/qDEuPjqUFQ+OF0/6ywkb/1wzfQGePT8n7htfghBKge58dDCrdMmvKkDp7vYKvQDBBOBphgAIgtgwWKkcAJ9NVJ3UMP3tznivKvkr6fSP5L+ZYRrIa4gEPHJwrCQvAHToTqs32AtQPd1dlAMguHUQBLGBPACP+hMAq7LTv0/NP1q6jm9KiE+POP3f72XyH8WvO+CZGXHfWP+SXgDoEAYJQaeS1fQCBBOAh+kBIAhiI3oAHghsBFQuAWjyP/3jpPaW9r6ST/8q+W98UDWKofv/2pKHZkaU96cUL8Cb2/uK5wKUSwAazKA+APeTABAEsREJwCeX3QkwYJqac/o3xdTmhPisPNHfX0bpH/v+X5vJgE+cmCypJBC6BJ2a3JxQOmYvtyKgeCOgj5MAEASxkQiAngXwi1UhAJuCT/9vSpR3+ocBePLEFN3/LAlc0gvwpkQRL8Ams1oE4Oc5C4AgiI1IAH5y2cOAdrb5TvpDlvbYpoQa9FNq7J+1//QClJIMqHMBMDBorCmgIiBaxkjr4sOA3kcCQBDERiQAd/sSgEiJmydOWFuCM/9vN3vLPv3T/X9tEwBMfVwqD8DrBYCOdQV5AbaWGAaArkcCCcBdJAAEQWxEAvCqogRgT4nJUwUEAENb+uWG/OEBWzyErn/ltP49wez/a1kuX39QPDA5pPpALOUFgG5Bx6Brab9qgFKGWkHHd8aKEYBXkAAQBLERCcB1gQRgqSSqgNI/Hfu/fl+XeLjElr85GR8Qz52fowfgGvcCoANkKcmA0C3o2IW9XcG5ANtL0OMdRQnASRIAgiA2IgGYcje5lxZtnNtK2Dg3m761/331pvipZFo8Mlk6AYDbF2VgNIIkAE+fKi0MoGYESB37Salr0DnfngCbzaX1eNtiIut5JiZJAAiC2EgEoEZueIaUjOekc6Ws+Oku/+Q/bMRzW9vLO/m77v/Hjo7T/U8pOQzgzQeYlTrnSwKWSmiFjm9dRACueJoBpV0CUMOdgyCIjUEAnE2tTcr/9SUAW4oQgCLu/0qS/7QHAAlgdP9TVGvg+bGSwgA6GfC2YsmA25fQ5S2BBOD/pMNWazpMAkAQxAZBOmKFpOC1UW5sX18UBljKdRpQ+68TAH/ezjjx/1I9AHITf2BiSJ38WP5HgRfoyRKbAkHHoGvQubRfQ6ClegL467J+Fv7GjlgNLlkOcecgCGLdIxVOGNmGWCgbjWFj+2NfAlBstKpP4xRbnrx6601xdEeHuH+8fPc/y/8oeRMCz82VpUPoDnhke4fSwUVhgKUaWzUFEoA/ykTbDDvaFsqE27lxEASxEUIAJuab1zhzzjHvvKASoNhUtYCxvzr7/3VWBe5/SQAePzbB+D8lTx6cHi6rJ8AdQVMCl6pqWTwISD8Lz+n4P14JgiDWPeyw6a0E+MiiiYDFkqcCmv9k3O5/P5cp0/3vjf+TAFAqKQd0wwDQvVQ4IAywJSAM4N8FUD8LH9IVACDLBEEQ6x7ZWss7EOguXwJQrBtgwYlJZ/9Pb2kXnxsrffAP2/9SqjEcyDsgaGpLYnE1QDGPln8XQP0svFUPAkrWdXDjIAhig4QBwpIAOKWAF3x7AUQCsqd9ev9r9//NLd3i0cnymv/g9A9XL40epTAP4JmzsyWXAkLnoHs37e/2DwP4ebQCwlmeZ+EcewAQBLHBjL9p2GGrRgpesyX3Aggo/7NdAvCu7pTahMuN/8PVywRASuF0wHL6AXzeJQA/3p0svStg8R4AeCbshRwAhgAIgtgAGDQSqqwJyYB22NyOemdfAlBYCuhfM+32/o+LD5XZ+z/X//84+/9T/L0AD82OlNYV0J0N8Cv9RWYDbPHR58XdLHM9ADLh+DYnUTYe6ja6uXEQBLFBvACSACQbLKNlh0oI/IPAUsA9ns1yz+KSKR3/Rye2e8uM/esQwFOnmABIWV4ioJcIzPh1BfTqs1eng0sAv4rnpCcUYw8AgiA2GgHIqwS4N7ASAE1StOAEFRD/v6G5q+zsfz0A6Nnz8wwBUPwTAY+XngioqwFu2NcVnAewxczX6eAKgHt1/N+OWtwwCILYGEiH40Yy2u6tBLg7cCpguEAi/u1/35joE49NlRf/Vx0AJ4fE5YsHafAo/oOBTpc2GCjXD0Dq4BsSAW2BS9BnzzNwl64AGJDPCvJlCIIg1vfJPxpHZzNjbMsmeAE0AXhDYCXAEqJDAP+mr7zpf5wASCm5I+B46ZUA0MH39QVMByxN9DPwRvVsRK0648SAkWy05HPDRECCINYzAUDpX73ldf/f7HF7Xqlgw1RVAB+uMAHwkYNjjP9TAisBnrtwUPWJKKUSQCcCfmggW6nxL5wEeFOuEVA4pqpnCIIg1iWykbgSzzTAg8WMv10gfl9Phi0xvikhPjXSLx4YHyibADx2xB0BfJEGj+IvD0wNl1wJAB2ELh6QOomugEF6W0yvC0jAwVwpoNM3gxsJQRDr8PQfURtYKBOOG3Y4vkl+/ld+sX87Z9xNNVwFApdqOhI8AOi+SioAWAJIKcELUGopoFegk36DgdJuyErrNXQ8gAjoZ+Kv7Ii5yXaSZkN2lF4AgiDWnfGPGwNO4p92/f+4X+Y/NkK9MU5uTqiN9JgUlPllAyoAzu/pKjv+nysBvG6aBIBSNA8AYaKSKwHcPIBze/wrAfA5dBk6Dd2GjsOL1eufM6CfjXfqfIB0rRqkxQ2FIIj1g3QE9cxmyOkCaDbKDe2/FSb+6RP94e0d4p5UWnxuzHGpPjg+KD47OiBmtuTXV2sC8LLW7rInAOaGAJ2ZYQkgpSgBKKcXgK4EuLWlO68SQCerQoehy9Bp6DZ0/J5URup8ux8J0M/Gn2cisahTOmuqBloEQRDrBv21Ke/p//gi4+9ukAe3tatNEW1VvXHVTwz3q1h/0hNXtT0jgB+tgAAgseuZc7NVIwDPXVxaLtOoViyXS7zH1S4FfOzoRFkE4FGf0cDefBXosjdfBd8PnYfu9wWTgOM6ITBbm+aGQhDEevIA5DX++blC97+O+f+MPPnrDVETgAflZvmrg1kx1BAX6XB+DkCP3GTf2tFXGQFQTYDmqkYAvnTzEfHlW4IFX/+C/F0rYag2suj7hXtXyj2uejOgYy4BGC+dALxF6iR00/aEAKC7Q41xpcsPegiAJrzQ/eRiAqCfkfcvjAaOcUMhCGL9YGGoiXr9LW+ik/f0H1xaZavTVDqymAD8mDsEqNwcgGqNAX5Byq9LQ/EL0wfE63qz4mXtaXFTPKXkFR0Z8cZUv3jvyLD41YMT4olz88pIQXCivUwiEHzidz0m+n7h3uEe4l7inuLe6vuMe457jzXAWrxwlcYC66mAP9adXEwA3LBV0MwKfD6/2AugkwH/vfcZIgiCWEcEIB6yI+2GHemIyA3sv3vdm7qb363uOF/vSV63V/2lrK3KqgqrAHrkZvkTvamKkgCrQQBgoL4ojcRre2zRGWoTXbUx0VXjLzjdTWztUMbqQ3Pj6ud+4yZ4BNiJcPGp/6C6NzDmvyLvFe4Z7h3uYdD9hXRKwVrg3l6uEgF48sRU2UmA7+lJLSIA2gsAXS5sW609B4W5A54QwH+zI/GI7ZTRcjYAQRDrygOgT/+thdP/dCz/ze19i5L5NAH4BTuTK5kqJAA/mSy/C2CuDfD1BysmAHBL42T64fkJ0S0NP64nG42rzXuxxJ0wh2vAeuXfe661V3zm2LRyXdMTkH/yxz35tLw3uEe4V5pA2REr4P669xi6JNcCa4K1WW6oRRGAk+UTAHSmhG56CYDOA/jFAAIA3X+TfAYKqgc80wHlsxN2vADcUQiCWGcEQGUxd8qP/18eAXBL/zBLvdCVrwnAz/sRAPfnfmq5BGAZp9QXpaF6x8CgMlAwQKW0LvYaKrz+9IFRJyRAEqDuAe4F7on3HmkCtdT9xfdhLd7RP6jWZrnelUoJAEipPwEwFZktJAALoYNUYTWAJgD/JKVThwG4oxAEsW6QjsRrpOA1JTewH/gRAD9XviYAHwQBqF9rBMA5qd4zMSo6Qm2iv8Ex7LbnVKo+L2Ks4BKGkfvJsZGqnFjXe7If7sFPyXuBe4J7E0Sq7IjPfZaCNcBa3DM+qtbmankAoJO9AQTg5wMIgAod9AYSAPnMmEmXRJMAEASxnjwA8Rp0AJTSIzez7/sRAMRNgwjAL9h2XglgXgig7+oQAKdO/JB4Rr7H8b3dImG0ib46U/TUxZQBg8B9DeKS8Zz8CxvDpKRRGGpKiIfPzKmY9+VrtMQPf/vDp2fFUGNC3ZPCJjraE5BxQym4t/o+457j3mMNjsm1wJq8cOnq5QD4hQAyRUIA+ufe3RNIAL6fCZs96KNBAkAQxLqC3NBqpOC1XW5m3yvMAcBm+Y6uZGAS4C/3276tgJFo9Z5KkgCrRADgskbC2WNn58RrujPiyJ5uRQZO7+8VZ6Qck5+Pb2lXBq3TjWP7dYeDMfvF6QPXrBdAn/6Rxd8b0EEP9w73EPdyQt5T3FvcY9xr3PMju7vFa7oy4lG5FioJcLn38aJbBXB8suQywCWTAKVAlx8KSALEM1BAHDQBwDPTzhAAQRDr0AOAGQBqFsAe+fF3vJub7uj3+niv6qJWSAC8ZYAZ3zLAZPllgC4BqEYZ4GW3Rl0n80FwmoXAsD1+bk584siUeGtmQExsbVcnVu0N0KdalH597PCk+M2brs1cAPzN+Nt/7dCkuheF9wf3DPcO9xD3Evf0Oc99vuxJHvz1ahj/ZRAA6OI7u8orA9QdBPEMBCQBfictn520kwTIKgCCINYP5OYXSsnNq68+HpIb2F/4lQHevN+/DBBNUz46lBXDjfG8UkBNAFA9UEkjoPvHnTLAariKdZc67+falQ9ygJK2F289Kp44Py9utJKiHeECaehwmo0breJCW5/8PiYB4l7hXuCe4N7gHuFe4Z7h3uEe4l5+wW3e5L3P2pNwucqNgB6voBPgm91sftvTCRC6OyJ1+NeG8hsBeX8Oz0BAGeBfxOp6Ql3hDuTRcEMhCGJdEYBcGEBuZi/6NQI6tL0jcMTqJ31aAWvPwWvNClsBH6huJ8Bi5AAn0mevP6hc0yAcb0kPiLkdnWJ6W6d4dVdGPCmN27Ua/y/MA8C9wD2Z3t6p7hHuFe4Z7h3u4eVVbKlcySwA6OLtpn8r4InNCfHJIqOrD20PbAT0IhsBEQSxPkMA4bi3FfDPFrYCTrsn+l/xiY/e77ZLxRS1wmFAOC3d0lLZMCBFAM7NreowIO2ahqsaiWpPnZ/PtQjmnADHsOuWv7g3uEe4V89fpa6Jahrg/Fh5w4CkLt4SMAxobqsz6+J+n26X0H27oNul5xm5R7cCtiMJbigEQawfNId3eAnA2cJhQNqYY7CPXzMgbJDHd3bkxVW1B+DM7s5FWdUlTwM8fXWmAcJVjVMt3P4cEuQfTsG9eeHSVZ6bIH//Q7MjSldK0ik3aRU6mecBcMNVJ6QOPxTQBOjOeG+h+9/7jJzVBKA5vJMbCkEQ6wfdm3oMuQmGpMjX+E65kf3vwlJAPS3t0wUuUp1Zff2+rkVxVT0+uFzjrwnAUyenVJz3aho7Gv21fW8emBoumQBofS0c76u7XV6UOuytWLlX5aIMKJ2fKAhxeRIA/5fdEN8hnxs8O6HOTV3cUAiCWD8YqttvpMMmNrBabGRyU3uwMAygT/SvifXkVQPozGr8f2FcFYlVY03F46qBG/Vov8rwvpoEgLKGBd6HC/NqZkSpp3+drzLa5CSsFuar3CZ12FuxorP/byvQ7YJn40F1+g9btRlJoEfrW7ihEASxvmDnxpniNT5bcMrJCTZOtFLFxoh4qbdG2sdFqsSvtroUAvDY4XESAEpg/P+Zs7Ol65MbqsKwn8VdH50Ql7fXxedc4//TqfSiQVf5z4Z6VpxnJ8oKAIIg1iEyDXITkyeYTL0VytSqDe2LBZnOuVP9YENc/FwmIx53SQDiqvdgXrrPPAAkV6EZULmVACAAD8+PXpUcAMo6IACSGD59arrsCgCfbn65NsD3pNNKl6HT0G20uB5qzPcWFDwTX0zXmYZdJ58Z+exk65kASBDEOkTSaMXJ3zsZcNR1c17xegIQL0UstF++/nh3SjwiN0xsrB8esBUxSIcLTla1pnittbiJUCk5AA9OD9PYUYJ7ABybKLsCAGWp0EmvpwoGfkjq7kcGsioHQHcLHJD/p+L+0UUn/ytu//8R3f8/K5+dns10/xMEsV69ABHXC1CkJFCfmGDocZK6YV+XMv4gAQe3LU6uQnb1uT1dZYcAFpoBVTgSGD+D8MFSQmO6gnH6Eu7/pcoJQDklgDoEcHZPZ161ik5WPSR1Fzr8kcGsuNTcrf4vtdj4+5b+ZZy8GW4gBEGsb4xubjPkxhcyjE75GquTG9uXg0gABMlR8Aa8vLVbHNnRkdcLwNtg5bNyo76/gmqAZ87Mlh4G0EYfWern5sVz182KZ49Ni2cPTYlnDk6KZ+YnxbPy9dkjU+K5EzPi8pk51VKWZGAFjP7Fg+r+4j7jfj9zyLn/WIdn5cfPHp0Wz52cVeukfq4CMgAPUakVANC9z4wublilw1TQ3Ve09qiJhaqaJeI7KVI/A19Oh9vq8Lykw2ZoaDONP0EQGyEUUG+BAKhQgB1NGHZDfLf8+E/8SIB286ddIhCQLKW+/sGMO2a1zDyAJ06UUAroGv7L5+eVYXl6alw8NTYqnhoeKS6jo+Lp8TFlmEAWcoaIhrwywy/XAUYfRv7piTF1f0tag8kDiiQoMlACEXhBVwCMD5Zc+gfd+4DUwXTA+GfoLnTYGXPs+z1a9/80HbX2uKf+GvT/T9WTABAEsRHCAOF2Q8U1o05s04lxxvbLze4/ezbCl/yIgN/GqjOs39rRV1EiIFq9FiUAMPwXDsoT5tSC0R9xDEtJMrLwMyAOz52aJQkoV7AG0vA/PTPuuZ+j5a+B/BhkDESu2BpAH55CAuBYeQmA0MGgSpUiOnzFY/zxDOx3ngmrxg2XGXY4xo2DIIgN4gWQ/xQBiDobXbJOeQW2yo+f8HRA+5FfmWAmYCzwuT3ldwRcMhEQE/2kwX5KnuK1AVmWjDiGCyfYnGeBBn5J7wtO714jXpGMjS54DMbGxHMnZwJJAAjAY0fGy4r/P+wT/19Crrg6rsnuM7Z8Bvrr3ZO/NP6QjLGXGwZBEBsL6GnuZjhrV2fIjuzDx3dI+XsPEfD1CBSWDqIh0CeGy28IBDfvs+fnF+cBwPifmHEMz4jHgFRBnpRG6Bl5mn3+Ig38UoIT+5NDI1W7914igPyNIBJQagtg3QAIugcd9CnpK5SXPNUv+Py7Ut54ofekJMQdoTSeBSf5z8iy7z9BEBsV2YaYgRinu+GFJBnQ1QFtUj4h5Xs+rtJFngGdaf2+vlReq9VSwwBPXTedHwaQZOC503PluZnLNUIgAfMT9AIU8b48e1ie/GH8x1ZoHeQaIFEwjwRUEP+Hzr23163/jwae9H9YoLf/LOWTrq67g37wDKiuf0Z/g8kNgiCIjQ/0B0g7goYntZmwGcqgAUrEirvlUH9VzJ2qW61invqjFRAAvzwAJI6VFeuv1ABdx5wAv4Q/xPxXjIB5cgOePjAmnr/eLQW96Lj/n7yu9AZAulX1TVL3uovE/z3yV0qnw/GObL0JYx9SpX7QeXjDwjT8BEFcQ5g1DOUJwLAgnf2MTTHVEDNSDW1GOmpG0lFrXP7fu6Q8LuUfig0TwoCVcvIAMPDl8sWDC65/aZSrEvMvgQCoUAC9AItO/3D9O/H6Fbz/rifmueNuKOCiOwL4YOn1/w+4w3zGg4f5/IOrs++CDkOXodfpBkVwa1X4Sxp+rf/IjyEIgrjmgKQnuyFh9Bn7pLS6RMCss+v3G3a4xdtA6CcWtRGOOmGAn6igLfB9Y55+AHA9H5pcHQIAkSfQy5U2I9qoIg3x0xMHVt4DoEnY7MRCf4frD4oHJoeUTpSa/f8ef/e/1s335lz8Uoehy9DpTCRe07K1xehq7HK8X+zzTxAE4SAVbjeajXcbfTVJJz8gqox/GFMFpdhOq9SFk5YOA1zY21VRPwBkfb/g1og/MzexegRAnkIvn50nAfD2XJBGGMRoVe4/yjOnxysq/9P1/9C5Ave/Pv3/QJ7u7bST6Bp2dTgEnW423qV0nCAIgigCFRZw26EiUSrtNBL6bU9Wda4hEOYF/OpgVjxYRjWAKgecGs517UOZ3uoRgDGnLp0EwOMBOKgaKK2qB+BSee5/6NaD44NK19DTP7040x+vv4NcFjUAS4e3eNInCIIoD3HDMvqiHTD8da5L9S2FYQDdFOhODAcqOwzQL54+PSNeuPmIePb49MrHn3US2tSBik/KMFhKbgyQS1WQEt676uQFXpjZVfDCuDkA6DPwwk2Hnez/icGyhv9A13ya/+jGPm91dbUuiZ4XrOknCIKoDG4egNMhLarKpxYlA6Lv+vSWdvG5sfJmA6hqAHn6e8Ht/Kdc0COrYHyK1KIHzalXLXGvPyiePTenchfgtn7y5JR44vikePzohApnPHr4gKpuwECbh+dG82V2VDw0M6Jq3fFx7v/nR9X34xSMn8V74L0ePzquJuM9eWJS/R6UTYIsPXN2Vjx7fk4ZzlwSpXuNmihUmgS4aomYUtAi+IWbjsi/b6rk5D/oFsb6Qtf68sf/LiT/Ra2YSwBq0mGe/AmCICoGEqXsSBvKBmvd0cL3+SUDohvbu3rKTwbE6Q/GDIbr2eMzK2eAXONf7ukfhvXZs3PKcKs69fGFEAYMV6CMlSijJQpi5Pq+jjvNlJA4h66KD8trA4kAgQAxef7S4WV4AcZXzhMj3xMNhnD61wTsoZnShv/o5D/omE/nP62L9yO5LyV1tT/SxiQ/giCIapAAXQ0gT12zBaeuXFOgI9s7yp4OqIYDyVO0TgZckWoAPU9gXMf+S59EqF3UgafU8fKnIZYl48UrKfyIBDwSL1RCAtxkQNWPYQVIAIw/kj118h88GqUm/2kPAHTMJ/tf6+Kcd5wvQRAEsUxksak2xI1eY6sxOzWNDfb3C5MBFzoDpsvyAjjJgEMqCW1RH/rlNgXytKDFyb8s4+8aKZATGNVSu9RdVfGQBYQJKiUBCHWoIUCaiI0tP+9CJf4dmszzrMBrUYr7X5/+0XWyN9/179XB35+anDa6pI7aDU7yKkEQBFEtErDQE+CVQT0Bju7oUI1ayvUC5LUGRk7A6TlltL0jZisxOjBeaG+rqg3KTJzD9eA0rYxUsb9JhQYGFUlQMlGBeH7+vpxU5mEAqVrUarlcT4B8Ra6EyssodxKgdxATyNfEAaf7oktIVFjl3FxZfxN0CrpVpPb/VbnTfyRuXOQjSxAEUR3ApZoOm6FkvWmkwmaD3Gj/bJEXoMJcABgsJMgVJqXhFX3jVXb6WMEcej0wKCf5X4PRUfPolxhDuxQBWKpG/d7RrLh3JCs+P2yLzw/Z4nODGfG5gXSefLY/FSi57xtMq5/9/FDGea8R23nvRfH/wZKy5pEs+MKlw8sfCXzhoHj26LQTFhhdYg28X5Pfi1p/DHfSpZ7e+4p8hXJO/wGxf617X8uEYw2Z+jZDtfel+58gCKK6BGDESKBzYF3amZn++kVeALciYHZru9q476/GqdXNDYAhxzhZnOZBCJ6eGldGCYYengK4rNHKFqdW9LTPGZ1llsvBHX7/RHCXuofmxsQjh8bFY/Lanjx3UDxzwzHx3K3Xicsvu048/4rT4vlXnRFfeM058YXbz4tfv+P6nHzhtvNKXnj1WXH55afEczefFM9cOiaeunBYPHF6Tjx6bEo8NH9APDg7qtomwzMAgwmCAOIQREqWHLdciTdAd+w7O6fKNdGzAfdb3fdJV+THWBfkcMDoI8vf+7N5SZVlnP7vd0kAdKpvsftf697rMdxK6mWtbcRQrcIHliAIolqASxWDU9JuU6BU2Iqqk1eBFyDXFyBeXl+AJQ2XNiZeo37xUP5439zXqzfoJ+i0ilM4Tu7/9h0vF9/8D58Q/+PLHxFf/3e/Jr7xWx8T3/ydT6j/+9Z/+KT41n+U8rufUvLt31sQ/X/4Or73m7/zcfGN3/6Y+Ma//zXx9a98VPzNi78q/seXPiz++gu/JP7ymQ+KP3vkZ8SffP694j99/MfEH3z4bvGoNMTwPNxXkJuQSwJciWFHbtvmwDXwWyOf+/lIGad/Vfcvdcln6I/WuT/P1iUapBh2OB5CB8BB+Y8gCIKoIrL1cSWeXIBXF3oBdHdAdGr7yEBWPIQM+jJyAVAXvizjdbG6Rg8nVtT9L/IAjDvX++D0iDLQMOow3iAAOfn3jkFXRr1AvpEnH8v/ud/+uPgmRJICRSQ0iZCv3/kv94s/+vS7VXjA98QsCcFzZSY7rpbk7mUpugDvitSdD0sdGogu6vrn1bnbc7F/TPqr52Q/giCIFYGNksCwGeqvaZFkIFYvN97f8/MCIF57dk9nWQQARhbu9svXr61BPTBcaNoT5AV49uYTylA7Rr+ABCxHPATib77yUUUA/uLpD4gHZ0ZUnoDf6T83X2GNjhx+aHa0pNI/TQDO7u5UuhRw+v+qXR8P23WWO+KXsX+CIIgVQ3etZWQbEl4vwKHCvgA6IRBu27s7k+WFAmDEDq8tIxboBXBJAGLyX/nxV4q//YPP5sIA1RS8JwgGSMBT1x9WCYN+iYC6qdJanHGgEiqvmy656Q90BrrTvTjxz6trR/Tpv7fRMvpr2/iAEgRBrKgXALkAUdOww5IEhFVI4AG/hMBU2BkU9OEB2/EElNEhMDcqeA0ZsFwuwPjiMkB4Av7jz71B/N1/+pxDAqrkCfi6e/LH+yG5EGRDJSX6NVRabvhkBaXUkb/QEe36h+5AhwIS/x7JhE2c/GvRo8Lm6Z8gCGLlgWTAns1q861xNmEzLjcwvjYeAAAgAElEQVTk/1XoCVChALc3wP0e1+6yEwKv0shcZcT8KgJcQgC3/H/42deLv/3qZ1T8/uv/7qOVG37kCkgigff6b1/8FfHsTSeKGn+EKNbqdENFng4vnfh3ryfzHzoD3cn6d/z731LnErYa+WvWdBm7jJ56nv4JgiBWBf3y5J91Tv96UuDthbkA3qqAV8V6yusN4M1mv7iG3NhBfQHceDw8Ab/5phtVVQBCAo4L/6NO4t+SMX/H6ON7kfQH4//Hn363KgnE+/oZfydvwp2nsEZd/6W2/NU1/69q6/Gb9uc9/d+pJ/7ZDZZhN/L0TxAEsarIhlUYAPXXNclGlRfw7/yqAnSb4B/rTpY9MviZMzNrKx/A2x3QpxUvsvBxUn/sxLT46q/c5ZziJRGAQUdmPxL7FCHwCsiB/Bpc/X/7B58R3/69T4uvPfaz4ot3XnSaAkkp1vxHhUvWousfXpOLB8UDU0NLEgAd93+n1BGfdr9enfrC4C0HDHtzIpSpt1Q4imV/BEEQq4xMowoDhEAC5Ia9S27O3/DzAthuaSBeP5DJlOwJgNFA3HgtVgUE5gMccCoZYLRxakdTn9963+2qjv9vXvyISuYDIfi7P/ys+Ns/dF6/LckBiMBfPvtBSRreJr5w27kckdCkwr9qYpktf1fhPmHM8VKuf+jCI1InoBteXfHJ+keYKZEb91vbbGTo+icIglhdpBtMw9q+xRsCeI/f6d9bFZAMm2KsKSF+dTArHp4okQQgvj0/tqYSArU8crBIXNvt64/2wJ/NppSxfgwd8l5+SvzGGy6JL991q3jx7ltVuADdAJ88e1B1/NOtg3VWf1C5JGTNGv+LjqfkyROTJRl/6AJ0YqwprnTEDnb936yz/tPhBMgnH0SCIIjVRrIGCVhOV0Apm+TH/93v9F+YDwD37syWdvGpkX6V7V0qCVix7nbLdHGjZLGYkbvf07tfewU+m03mizT4aPELkqCHAwVN+9OTCRFXX7Mnf3ldmEVQSswfOgBdgE701vvG/X/ovn4krZL+rFpbGn9bEoEsW/4SBEGsPvojeR0Bbwly/ds+JACNXTDX/bPopDc+UHI4IHfivbi2jN2TJ6dyxrn4uF49/W/IlcGF1xLGDeP9H5odUZ3+1q7b/5B47oJT8lcs7o81x9p/Rv5Nh6Uu9BRP+vutbENCatxWRTqz2wYxmIoPIUEQxGoDg4GU4Uf3tbAiAM/7DgYKmyIVMX1JABq8oNTLIQGlJwaqKXdrzPjhejDgRncLLCXjvdxxySAITxyfzMXW12SnP1cw2bEYGXKM/6D43JhT7tdd3Ph/IxOJt9lu3B+DfjjshyAI4iqhW/5Tm7FThx2TH3/XW6ftGP+YONrYK8ajHaJXfpyNxH1JwDFpAHAKLCUcoJMCnZK3w2su4Q0hAZQJwgDCna+M4FiFRt/9eXgH0N5X/c03rm3Dn5f0N17c7Y81PxZs/HW9/z9JGcv1+nemUPIBJAiCuGoegEbLm/x3c+Hpv18a+3h9i/j8nhPiN5uvFz2SAKQDwgEwAAe3tYtPDPeXlBio3ODSwKowwBqte8cryhdRKaC637nXnZMxH/F8DUYf3gR09rusDf+lQ2ve+D+2RLMfnfCHtcaaL2H88Xpe1/u7ZNOww+18AAmCIK4aAdAnMuf1k14CoFoAR0wxHG0X/7n1FvEv8TeIz+w5LjrDbUVzAqa2JMSHBuylSwTH137nO20QYbhRB486fbjvQQhw3Q/NDKtOh1oQ18fJ+fFjE8qDoD0c68Hwa9IDL8VSxh9r+yv9tpjanAiK+XsJwG2ZqOkY/2iLkYnGjAyNP0EQxNVFKhI3BiKxUL+Tlf2fvAmAcPXD2N+4KSv+l3m7+Lb5GvFd63Xio7sOFyUByAAfaoyLe1Jp8diUMzfg3iU8ASjDW+vxcC8ZUKKv9+LC6OK8r68To19SYyS3vS/WEmv6M3JtscYB2f6FNf93pHXJn0ME+OARBEGsAQ9ACB3YpOyRH3/He3KD+z9R3yp+cseM+F78TkUA/lbKP8qPP7RzVnSEWyUBiPuSgGTYaQLzto4+1Rjm/gPFKwRgdHCqXg8kYCOKcvsXOflj7bCGWMu3dSTV2mKNixh/rwfge+mw1QUSIKXGDseNpPxHEARBXF0CUOO6/1MFMducB+C+PSfVyR/G/+/M26TcLv7efLX44LaU6ArHcpUChWWDeEVs+JaWbnVyXCovgCTgKnZDPFzc+D/sToDEWmJNfddckoFsQzyoAuBBt89Ejd0QVzkABEEQxNUlACr+L09m04X1/9jgkfT3YvMF8ffWHYoA/E9FAPB6h/j/Wk+KX97aIXolUUgpwrCYBNie5MBf7rdVj/h7i0wSdMIBY7nmPDTQK1ztoLog+rf41euENcPaHdreoQb7YE0XeX3UuF9T9NS0+XX/00RgWLf+tRkGIAiCWBsEQMqpwgqAbMQUXZGEeHj/68Q/WLdLAnCbIgCO3C6+HXu1+Pq+YfGp7d0qFNCrwgbBXQP75etdnUlVOlasaVAuMfCia6Qu0lj//+x9B3xb1fm2bMeynb08ZUmWp6ztPWI7y87ey9k78cgiEKBAWYUWCpRR9khICJuwEpKQASFhlBZI4iSQyV5tKdCy9/Od9z33ylfLcULov1973/xOJNmypHuOznmed/8S5X0pQDFSnr+a309rRWtWoKxhOJN/QUcb8qLMKO+djfEeH/KjLcEkQK0AeKs/6NSYYXB20AMBddFFF13+EwjA+NACQFY44rKxLOV3eD+jWYD+XA0BmIcPMxpxzDQaR5KceLiXE33ibcgVWmBBhP4BbqO0BoxOzMENRT7WLNcogWXhsgPuqSltzZnXScApL+/LFf6C8vzVtaC1oZr+Y5JyeM3cEfz9BP65hnRU9M7BozdMxguPzUVZtyy4YgP6AKiupQ+98dYeMuYkI0rffbrooosu/xkEYGj4EsAWTEy6FpstF+MT6yy8JzT/DwIsAfOxP6UChwUJeLq3CyM6ZiJLkABfhLgANVWQIsgpQHBtZWtswOpgEkDFgsTv/mNb5P7/NuqlRYXSGNUCRVpzv+rrpzWhtaE1UvP7I/n7swwmjMh346k103Foz1IcOX8szu6cI78D8WEzAsaoVgBXbI6+AXXRRRdd/gMIQFUoAbAJzc8kCMDluDB9leL7nx9oBbA24B3zZOxOcuFgsgevJLnR3CUH2QIA3GHiAlSXgEuxBgzple1vK6yWEV5dEaqRPjSsSg8O/JlaP9UxCPb3r9bU8r9faeOrVvVzRdD6CfjJIpAtNP/moRXY/cR8HPzLYrzyx8n8HdjYw9FWF8Br/V0A9TgAXXTRRZf/UwIQMQuA/PpOYxom9DoDc02PYIP5PHxinR1kBZCugCNpddidmI/9SR4cFiBwVTe7zAKI5BLQxAYQmExLy8MNxdItsFaJD1gdJjiQQEy3Bpw4+FPHQb/JX+Pnp7mmOae5nyrWgNZC9fV748Kb/O1RZngFCbhq6RAc3tGI/c83Y8/K6WjJ8KGlpwv7UjwY2zGL194XagF40R1vNrjj06O8xmx9A+qiiy66/J8RgPiMKHeCzSBGIvloAwlAJhzGZAztPh0LBQE4M+1WvCU0/r8q6YDagMD3rXNxILkEe5Kc2JvkxlFBAtb3cvhdAt4I1gBVU8xT3AILrfm4taQgLBEg8FpbXfwf3T73P07rnzAQ91NZXy5THAr81L63ISPfb+7Xrkmw1k8/J5P/0BwX1t8yGceebcbeXU3YS+CfXYiW7k7sFuB/TKz9ii65vO4FoQTgXU9sRg8xuAGVvgN10UUXXf7PLABWg9uYJ0YOWQH2aA9r1QLQp3NfNKXdjRlp92Gt+bf4NJwVQBCDt82T0JLkEsON3WIcEkCwR9yeKcDAwSmFMkvA24ZbIDfGiorOmVicKYhAqSQCd2uIgFpvn/LWCdx0IhCpmVEdt1xWtX41pe9uDfAvEnNMc53bhrmfQJ+1/mgzHDEWnDmxBq9snI9DzzRi97NNaLl+ClqsPgb/lhS53kT+ru2exwGhvtCiQN+44zLy1aJA+g7URRdddPk3i9Du1T4ANGKV22uCMwE83AI4CzOTr0OD6T40pK3BHssyfGSdE9YVcDRtEPYm5mNfkgSDfQog3N/TgSGKNcAdFwFsguIDyjtloklopzcV+9g/TSlpajnaO8tkN0ECOS6/q8cHyCA/amc8pp+/nfGd5RL8ae5oDmkuG235qBTAT3OsVvMLS8o6Sl8/af2DM52476oJOCq0/v3bG7BHaP4t549FS7Kbzf4E/kT8aM0Pi589mFjFaaHe8JUBS9U4AH0n6qKLLrr8O7X+jpkGtRe7J94arQkE/H1oKiC5AVIwoscCLDI9hFmpd+NS043sBgjOBlDHqykV2JvkEIDgYXeABAUZIPjrrrkMODkxFtYOw1SOCyECJQKIZqbb8Qef1w9kd7FVoICJAIEdpbUF1Of/HwR+Spnkin6CIK2i9sNKYB/N2VVi7mam5/Fc5h4P+Nncb0OOIR0FnWw4f+YA1vqP7GzCnqcbsHfrQrTMHISWrmKNE91+8Kf1fiXRjvdMQ/B46njkKf0iwhCAYp0A6KKLLrr8XxAAY4Y6oj1GK932FofxY0GHtD8TwGVMR2nHQsxPvRONaWsxM+0+PGD+TQRXwEK8a5kuNH+v3x2gaoZkDSD/8KbeTswyO5CXYEWeABkGnHYQAXo8KjEH5+W7sJLKBgtw4xK1iqZ778ByPDa2//+MRUBtPPT4OAH8VMe/Us4FzQk17KE5ormiOfMqcRauNoCf1oDWgoL88qLNmNmnGJtWTsWx55qxb5vQ+snkf+cMtJSVo6VzvtT+k91+8CfLz6upffGFrRlX9hrIfSSon0TQ9+pLT5w1R7YE1l0Auuiiiy7/PvBvNftHe+KpJnuGRYxXw9UA0FoBnMYUjOq5GM2mdViQtkaMtfiL5XR8HMEV8Eb6GMUK4PaPvUpswMHeYuQIDX7REIz0+ZBtMCGfLAKK5hmJCNB9qiFAUepVXTIxx2zH770e1nQ5VkAJFiQiQBaBDWob3v/C4D66tkfH9Md9tRXi+uW1q5YRmhOaG5ojmiu7EtwXEfjjJfDTGlBq3wi7G6t/OxYHn2nEwacbsXtHI/ZuE1r/aSPQkiq0/W4OeZsUDP41+CijAW9Y5mBgRzvyjRbt+6nfraNuY2a8GAZ3nE0PAtRFF110+XeIvYvJwG1Z421RnvgscZvZRdMC+LvIXd1scMeZUZjgwJyUW9Bkuhdz0u7G2abbNFkBoUGBlBpIwEAAoSUCe1IEGejiwJHKSrRsmI/rzh6BOks+gw+VkfUpmqgnQtaAl7sNWtmUTfEEdT2y0ZiRz2ZuIgD3V8qudfcLIvDwyL5YT1UE6+v+/+4toAT2PT5xINaNrOFro2u8r1LGRFwprp3moK5HFs+JNPNb/fPlaUPjpzmnua/LcOC6FcOwd8sCNvcT6LPWf8tUtFRWoKVTfpDJX4L/7kQ7Xk2pxicC/P9mXYiGbiXcRMoXZwtXB2Ctav7X+wHooosuuvybhNqwCq2LIv+jFRPsTeHBXxzc8ZlhrACp6NdlKBpND6Ax7S52BVyTfg0+ss4NSgtsTQ98LaVSkABHCAkgDXJPRwEotdU4+uJivLxxPq4+bSiDEIERRZ374tsgAhqrAGm5uYqWS02H5gkycanLjVuLfbhXAOS6AWV4bHgV1o8fwCC6noYAVSIG6/8DSwzz55qkDOWzPj62Px4dVoWH+pXyNdG10TXOs9j5mj0K6NNctKXtqz5+mluaY/Lz11kduGrpUF4DSu1rUYH/kblomV4nQZ/8/QT8ye6AdaTaD28Lokctov+SPhXTuvi4TXQQ+GtdAHX+fgB6R0BddNFFl38TAUhI9xf+EVpikdKk5acAvz8BvzjAPbGpEUhACob1mIsm04OcEUAk4B7zpeELBInH71lmYX9yEfYmOcOSgBZBAvbUD8S+55vZ1/zyE/PxxzOHY2S+mxvMEEB5jDIi3RNJkw1DBhxC+63skolxyblYlunAZQIsVwpN+SGhOT8xqgZPThqIzZPrsFExpz9OIDuxljVslRis/yVBXkNAHlfGekXTp8+0SdxuEoRl/YhqPCAIzB1lBXwNy7IcfE10bQ71WtsB+ly6l+ZQzCXNKc3t8Dw3zzUDP/n5ty7E7mca0bJlAVrOHIWWnEKp9SeFav0U37FHELt3TMOwI20ylnevQGG8LZzmH0wAxqsEIKdzliClFn1j6qKLLrr80uKOz9CW/r0mqFObAFhxcHcQwN+1GO7EOnk/iAR41OqAvc9hErBQkIA5afdim/nciPUB3jFP4bRAbVCgfxCwdHZg7/KRnFe+b8tCHBVkoEWA0Z2XjsX0ymJ4EzI4TsBLWj41FYqP5KpoJQN0S5Hu5P/OU1wFfTpnYnTvbCwUWvMFTjdurCjGvYP7YL3QrrdOrsW2qYOwddogbBG3TA6UQMLHJ7Y1BkYYkf+GXpNee/OUOn4ves9t4v7W+lo8Nqov7qmtwA1lRTg/38WflT5zHwH4biWQz65E8XvbA/qKmZ9y+Cmdj+ZvhpjT1WJu99JcE/CLW47uJ/D//US0FJXJID9K70sNIm2c2eHkoM4PzeOxMmkER/tnxaYrpZ9tkdZGjQF4pTDObCyNTTb44ixR4vtlcHWy6ZtTF1100eWXFE+81VDQLd3gisomAtASeDCTdmgRAJEFV93LcA5/ne/Ln9lCXAFVnQeg0XQ/GtLuwvy0u9Ekbl+xnBYxKPDN9HGKFSCIAKgm5R7id7+dgL0CkPY8MZ8JwBFx/+DOJmy8fSpWTOqL/J5Z8EVbUBBtZU3W3Q4ywCCoPIcJgUZrpm6HfTrbOEp+ljUfZ7p8uLyiFLfW9cHdI/pinSAGGwUobyWQFmPbtMhjuzIiPkd5DRpPCAKwbkx/rB1eg5sHVOKy0mKc4fBgptmOkQT2nWz82VUNnz4zfXa/lt8G6Esip9TrF39H2j516+tnsuNXk/thw61TeE6PkKn/yQXYs22hmPMmtNwxHS2DatDSzekv6hNs7pfBfg7sSy7C+5apOGiei9J4ShO1sPbf5mcKiAOwLlFIaAfFFaVvTl100UWXX5QAxGVE8cEbn0Flfz8KMM0S2Ef3hNt+HpxTAOdkwFWymn/Gv1M0O6oO6IpLR2XHciw03YOFaWuZBMxNuwenp63EIcsijgkIRwKOmYaGDQpkoOkttM1k8fMbp6CF/M+bBTgJgNorxqtCM333xcU487qxiKnzIisvH0JrREGURRACAeQKGZDWClu7CAHdd2usBLlCQ84Twy4GtbIt7WhDv+7ZGJqch/FmB2ZkutBg9+I0TyHOLCzCeSUluLCsFBcLwnBJRRl+WykH3aef0e/oOWcWFmOZ+JuFeR5MF68xPt2BoUl56Nsti3Py6b3syntTFUQV7N1aa0Y7AF8lQzQXhTES+Au7ZmJu31Lcdv4o/PnxuTj2giRUezeJuSUzP1laHpqDlqm1cg26OORtSqjWz1kcAvwPpdbgHcts/NPWjCdSxsIZZw2r9RNR9MRHjAN4X3yPTF6OR7FFu+MzDe4Oel8AXXTRRZdfjgBw3j/n/2eIQ/hfoQSgN1xlayUBGPcZkwAiBJ6orhJcxXO88dlwxvTAgF4zsCj1fiwQ4E8kgIICZ6fdi1+bbsHbVooGD84MmM81Ag6n9g9PAgh0egrN01aAlrUz0bKzkUkAWQKICNCglLSqy4bCsKgS8XMq0GugD7asPCYDPkEGvNGJ8MSmKUGMWW2SgXCkwKeJmKd8eYcWnKMDR047R/DfMclQLBAuo8ZUH99OsPcHadoU0iOeT817xPUXCTLkFHORZM3B9Jl9sf2eGTi8S2j7zyvV+wTw76U5VQhWy9IRcr7D+vm1Jn+Zzvm6aQSvIa3rPzIW4E+mqQqRsjHge5VbtyAFjrg08blMbVgBMtZ4jDalK6CNrVOeBN0SoIsuuuhyysUtDluv0RolBt2SBeDvoQSgB9yuy1sJwISv4Zz0Pdy5Z8ETkygHPSdlDNwjP8BY3/NoTroDC0x3CxJwtz8z4DLT9QIoCPCDSYC8/xpVCgyXGUAARCZod4mMQN/RyGZqJgFbFuKgALGnhCabeFoNDIv7IOr0ahiWViF2dil61pXCmTkbnm4VMoCRLBdGc7tIQFvEQAvOrcN2giPw71WQ97b388QrhEYlNUYTfNFmFERZOS4iv0cWMh0OdBaEqMPMcpx1x0QG/YNi/pg8bVaA/+kGQawE+F8xCS0FpRL4e4Xz82u1/ny8mlKOd8xT2YpD60cZH++K8XnGfKzoXgVbbLL4TGmC0KRx1UgiAcO7TEWd+QI44yzhrlONB5judwWoxak6Z+mbVRdddNHlVIjXX/iHta0ooZ1Fu2IzQhr/sIZP2nP3SjjHfgznxO/gHP+FIAHfCBLwA1z9noHLdz1clY8yOXDU/4j8Sd9iWMlf0JS8iq0ACzQk4Lr0q/F361w/YGgrBb5nmY0DycWRMwPIFF1WgZaN89HyVIOfBLyyZQHe2NGEq1ZPhqGhAjHNfWAQI2qJIASnFyF57jp4Rn0FZ/8dcLmvgKezJzIJiA8acf+pwyrXJaa3IDXd+b63UxmyrW4kl7vQeVwxjAsrBSGqROI5/bHywRl4S8wRuU7YzC+IE4/nmtHy4Gy0jOrX6udPDefnbw30o/tH04b4rTcfaLpAfmKdhT9ZzsQ5plsxtMdCVHaqRGXnGgzrPgtzel+F0SV74KoH3GKtW91IIa6AT5Q21DI41Si/q3nROgnQRRdddPlZ4iJtXxyoCgmI8sZbYwoSOOhqrhhfhZT+ZStAL7jzheY2FZIAjP9SkICv2B2gxgY4J36j/Pxr2Ot/QG2f/WhMWYOG1LvYGkAkgDoH3pp+Bf5hnROGBDTgXfM0TbngMCSAotAHVHFOesu2BglibAlYgGNPN2L05cNhWFiOmMVViGquEkSgBMaGMYKUfAZn/U9wzBDgk7mIrycIfKSGT6WFKX4gRg5PbAYHFoYQg1NFFE7qNa2SmPWoEkA6C27PNXD3fR69p14Iw1IB+qfXIHp5tSBD5Si7YBCeWT+X54aIEs0VEyfW+hvRct4YtGT4OOMivJ8/nNY/xa/107pRXMffBKmjcX/6JRz8SRkgzaaHxLrfgybxHWhKX4eBfY8hr/4bQRJ/gnPoQXgTXOGImGoFoGDU3p5YJqjRSpdAffPqoosuuvws7T/eJkecLUqQgOgSQ1c6ZK8NX/Nf41/ukAJX0R2SBEz8VoD958r4QrEKfCXdA2K4xn+FvMk/ombAMWkBSF0TQALWpP8OH1tnh60U+JZ5YvjUQJUEkImaNFZKT9sqNVlqRPOqIAS7Ns5Dyhl9YWiqRBS5AxYJIFzsQ9qMdfCMFQSAghgLbwqnffLILshHdmE+7Fm5cKRkwdU9E24qRSyIgEoKmCCoJKGDHH6ioB3Bcxj8+9gM/9+He93whCGLXS6uwpvhmPQ9XBO/FwTsR3RruFyAfyGixTVHNwoSsLAC068ehQNiTshFslsFf9XXT66UEf2kVSWiub/V10/pmsdMw0K0fgJ/Wsej1iZcYbqO11YNAJ1vWovmpFWYZXsYZYPfFd+HH/h74Rz/GVxiHewlv4tExNR4gO3uuKyExJ5TyFIV5TUK0mrUSYAuuuiiy8mBf0Km+L+bwRefYXDG2aLFPwL/2zS5/5EJAN12SIXbfj6cY/4hNX8BQq0Wga8DhiQBP6B88HuYZ74fjSmrmQQ0KO4A0hY/CUcCuGfA6JCeASEkoL5W+q4VEkAg9/qOJly9ZjIMjRUMhpIAFCO+Yab8nEQA+u1QChrZAjRxAt6sSidM0wuRPrEA6RMKYBnlhXWwB7b+bmRVOJHjy0deXh7sGTnIT88RJCEbzt4KUehig7uzGJ3ESAij0YufuTsqv++ayX/j7JUFR3IWv5bdlsOvzSSkxMGvFUgkbLIYU2cvHKPfg3sikD/hI3Sa3yiu0YWYxTV83R2XVOF3q+rZLaLGSfhN/hTh/8fJaMkrknOYEtncTySMYjIOplRzIyet1q+uGdV42GU+C8vTVmKWWFMieAs59kOC/3jXU4J4fQZ7/ff8fXBM+AKecUDmlN2IXjIc1txcjlng+Qr8zql1KNa5janR4veCrFqjCmIzDL44s76RddFFF11ORJzSnGoo7JRjcButMW4jm/0viwj+8eFIgE1qbd1K4fL9Ec4R70oiQGZd1u6+CCIBX7I7oHj431kTbEq+UyEBawVg3IuHzReFrxaY0YCjaYPDZwaogYEEYLMGSY1WATgCu6NPN2KUxhVgYBJQCMu0rXBPEJ915JtKHEB6K7EhAiC077zsXAZ/8xgfzOPEGO+TZGCSMuo1g54nfk/PJaJgGSnGCEEYhntgHRZh0O+GK8+lvxnj5ffh96iX72GaVohMQUTUAkeBrpiecGUvhbseyJ10TBCbqTAs8aHD4r58vZln98e6dTPxpgB/IkR7Va2fYibIYkKNeyi1sofzuEF++5MLuXkTafyq1v+BovVTHAf1elib/ltO9ZwnBoE/W3kE0SMCMKiiBfmTvoNj4ret4D8esE15BTFNA2FYWoIO8/twHYdCutbQ8s4qCbjeHW8zuOMzY3xGs8EVn23wxuiWAF100UWXdgu3+O1AZX+tatW/KRqTa6jmHxvBF01ARKlcZEbv7OZsAGfdK4IE/ChjAQj8NURAkoDv4Rv9T0zL2cCaoaolUorgevP5YaoFSlPzodR+bZMA8l03DJXBbFQfQBCAV7c3YOcT85B0unQFRC+qYQLQaUGz+CzfywyG1PHwxCS1VjRU0uacvTJhHquAvzrGtjHGtRIFHhPaOcZrxrjQ13QmZckYhPhgC0AqvP1ehm3GAXRoHISoJUWIoesT4D/g0qF4cfN8HNH6+1WT/6Nz0TKkRsZQtJna54WBj04AACAASURBVORxOHUA3rfMZiLWqvVL8CfC9pplMS413dBq8jfJYM/mpJWYkfUYyoZ8wNYf+R1o1fyt03aK9RDrsrgUUU2CmJ1WhU5TSpETb+UCRWEaFKkkYBl/f+P8xFXf0Lrooosu7QP/DIN54FKl5j8XWqGc/79GbPdrzGATdYgWGpyCRkFcRATirByQ5qrZJgD2W0kE2CLwpd8dQNqge9wXmOTYykChkgDSIDebzwtDAhYw8LyWUq64A8IUClIL1VDu+vOSBOx+UmYFXL6qnrMCotkKUMWgY5v8AtzkBvBczqmLIf5ncd22gW6p3QcTgV96iPcjC0BmdTjtXxCVDonwJU+FaeYmRC3qg+glEkSjBMlZfMNYHH6qkX3+u9Uo/62Kyf+6yWjJL5ZkKUIlP1XrP5BSirfNkzgWQ51/Veun9E2q6LjFfC4Wp61m8taq9a9hzX9U4fO8xqrJ3zlBBosS+KfNeFR87gqxFuXSKiOugTM2lvZBxYwqlInvlDOUBKg9KYgI9FUzA3xxHMOib2xddNFFl+MSAIqipjS/eKH9x7MGdU9IzX9VE46yIMdlZ0DKt+aIx9YILoEMTXGdDJmS1iFFaNcT4Oq7TVoEaCgBgmwGnvit0Aa/wVjPTj8JIM1xnhhPmX8VRALU9MA2GgepJIC60i1vJQHkCiBA7PebITI1kPzji33oNvdsNp87+z/dWhxIe+3RVuR47GyOj0gAxh4fyHmQeT94jPW2/i7M61DcQb4pO0T7d1PdgGgzUgZOgGF5tdD6BYg29EGP06px491T2eRP5v492ih/Go1DZZBfGyZ/NdaCUvveVwIxVeBXwZ+yNt4Va3Fz+pUM/BTpz1q/6W626MzOWIeqgW+wu8cx8Ru/yd81gYjAD+g9+49shaFiTX7wJ2Im1sZ1zkDs3dmI688czuWJ1VoLYTIDDnhiM7p4OnBtgCi9bbAuuuiiS3sIgGz4E61oUH1Cuv1pADC30In0yYUSlCb4kOu0s2bsB6VIKWpclCZTmtaJCFjmwDV4v4wRoLoBgghIrfAbtgaMLHyBwYOAhABlQdpa7LKcFRQT0No4qCVS4yBVoyUSsGIUkwAqcnNoewOeeHQ2Oi+tknUBBPhENVcje8pRuEd/Dne3EunK0MYBUEOdxKy2AV61Doz1aoYC+uML5O9p/qYVwTKzBOY5pbDML4NlQTksDTQqYGmsgHl6sfxbrfZf4+KMg5B1odr/iTmIbipFzBKhNS+ogPvXtdj82By2doSN8q+tbqOaX2sZXyrApC3oo4I/Bfq9rwT6vWQ5HeeabuXgzQYl0K8hdQ3HdIz17oKXA/2UKH/F5O8eD9gnfoQu88+AYYlXzL9iiVHBX8yB5cx+eHrDXBzc1sBFin6zoA7ZMRZ/n4YwroDL3HHSFeAzZht8cZn65tZFF110iSSuKLPBFWcRh6Ut2icL/zwSlG7l1/zzc4Tmf2Y1LM2VMNcXsqZK2rBtgJsj1T1KOlxki4CWCPTmWyq+w+mCHCj4hXQNcK2A7zGs9CUuGERBgWog2YuWM0JJQFuNg4JJwNmjOSZgtwBD0oxX3DReCQgk37MHvWb/nq0ArpzTwqcDkhtggCu8G4Aei9eyCDJhoVsCdbolMGsWY7H4+dI+sJxWBcvp1W0O85SiQAIwMZL2n8H9DZL6+Vj7J/Aff+UI1vgPPdUg/f3aKP8bBFmyF0nXSGqE5j2KS+V103A29WuD/FStn/L6KdjvIfPF7KqZQ+tjusuv9c+xPoia/sd4HVWtX2vyp2A/Y+M4trxEUZyCAH4a0Qr4J5/elwkaxyxQVUJxLYefXIhFVieyqblTYM8Alaz+y2vMyPXKCoHR3njdCqCLLrroElEKkz1a7d8hxrchOf/UaKazDRnzhWZ6RrUEMDHMs0slCZggAcrW18VuAdVaEFAkJxwRoKI15GtPHAJX7UvSGkBxAUpsAAWKDS7fw5qk2jxoUdpq7A7pIChJQJuZASrQUUW73wiyQJowmcO3LYTnvFoYGqg2QAU6NNYhb+pncFdvg6dDUmBrYzUbIDcvvBuATPezSmChOVoeBPLLlZ+d1sZYViWf01Aeqv1XhfP9y+BEV68sxMwrR+ziPjjv1gl4XYDmvm1Kih9d4/YGtOwS17tiJFoS3RFM/q2+ftL637VMC9H6P9AE+h2xNHNuP2n9CzjQr1XrH+d5hoM6/bn9itZPQZY0kmfdyRYXw+KSMOBfya6LdetmyQJFSkXHvTsasX9UP+zp5sCITlnIM1JDofBWAH+VQD0OQBdddNElshSJf7LFKh+a54TV/g0W5FZ7YD67RmiwGsAiYCNz9YQCSQSUdLiMQW7k2fM4952JQGxbMQLZEmhJmy28TVoCuJAQ+YglCRhU2cLA0sgk4F4sS1uFA5Yl7HvWBgaSpnowtTp8zwAmAR6Z5kbgd+cM7BagclSA45r7pyOquVKC0WIPkmevgWf0d3B3Lw2NBSAyJK6LUvr8Ufp+C4D42eSitkH+eIO0f0EizEoKoJpF4EjODiEAlB9PzXy6lruQcu4A3H3fdLZq7FGKH7HJ/xmlQdKY/jLKPzG8yV9aT1xKGd9QrV/N7Sfw38m5/asY/BtNa9nkr2r9ffsdUbT+bzXg/yWn+OVN+gCd55/OJn+tv19r9u95Wg0eXDeTSQyDP5EYIi9TarGnUz4Oi8/+eC+nvzOjNzQW4LBYI/X7HFVm0DsG6qKLLrqEFcoAoEIqbhkHsCmEAAjwpsI0VvJNE+AvC9JY6WdL+sA8tQjm0V6/uZo0ZAJJKo7DGQNai0BEa0AvuDMa4Bz7iSQC4z73Vw2sq9znJwEUaHam6XauMPd3fxvheQxc7wtScCBSUKBaKIhcAVWVrBlzgSABNhOvGAHDwkpELymDsWE08qf+CLfj0tBsADUYUFxXiBWA7lOBIDEfx9X22xjsXlHiBug9ssodoWl/ZPoXa2PuZkP5uXXYuXFeYElf1d9/3yy0lJa3UdjHw4SJAik5wj+C1k/z/GFQbj/FZ/i1fvcOofV/Gqr1T/iW/f3maVvQoWm4xuRfFQj+4vtFqZkPPzwLr+/QgP9z4hrmDfF//lfEZz4iiNyZXXKRE2gFUC1WX4vhVAhAtEd3A+iiiy66RCAA3OzHZhCjk7j/XmC3P+n7tzsd0ve/LAJoLZeDAtoCctbHSwCzCGKQLQCT3AhMBCIVElK6C3p618E57LDSYbCVBAyu2MsxAY1cKOg+XGi6Ge8ITfWv/upzMijwbXN9hNK1QdUCV4zCXgEwrwqgeYZqAyyn2gDVbAVIm/0EPHWvwx1vCQ26E8Dr6pHJ1xViBRCDYiROigDQ3wjNOKB+wBgfnD0z2dSvnTNfgg15hnTMntkX+4WGfHCrpqQvgada1S+rQBKeCOV8uZpfarXM6w+K8G8rt5+0flqLuZYH0S+s1i8D/fInfozucy+WUf6LywTgt5r8GfyXVPmLFG16bE6r2V+5hr1LhmNPFwf2COKyV3zeA2K8K4jAmp75sBtDuiOqJKDGnxIYa9NLBOuiiy66hCcAtijO/Y+3mUKa/SRI839OrS/U/B/BfE1R7BztrvFhq0SAqtzl5eT669yHtwZky0yBzm7uJijjAr7wlw4eUvaKJAFC+yQTNPmhP2TgV5sHzcNfhRZLfegjuwLE6OlCS24hF8HZvW0h3ny6CeffNpGtAFFLihG/cCpbIdzmWUrAYqgVgPoChLMCcNDf6dUnZf6nwEE1DZBeO8ebL0mTZq688TbkC2JWm+Hglr2vbtfk96vBfheMldfalr8/ycFxE9LcvyBE6/9QMflvM5+DJWmruTqj1Prv4jUY7346SOv/ms39lMlBJn/r1OdloB9H+VcHaP1UqyCG7s8vh/fXtdi1YS4ObWvASxvnczvivc81Y9/SEXhVkJcjAvCPivGa+MxP9Xbism55qBEEyBXaHlm1XN3s41bWthhXgoUbBfli9YwAXXTRRZdgC4AaAOjV+FF/0gJd1ugimM+qiWwBCHYJLG7NEgioZjdBghqls7l6ZoYAW0g1QaMFrspH/CSAMgQonWxE0YtcJ4BIwIy0+3FL+hUcFPh+UDzAodS+2J2Yjz3s43aLW6lFBlgBGodJwBRASoVyis+v4xx6MlWnz34WnpoX4Y4NCgZUXCOurplctpevUbV6jPbK6H91Pk7U/68EVpIrgQhTaM1/qf3nCO3/hrNH4OjzMqPBX9yH/OXNw6TWnxgpxU+mS3Ip3wgm/4+sc3k+b0//fUBuP5n755nvw4Dq15A/KZzW/5O4/Ry95lwtgL5UjBJENdUgilItA0Yl+/wnXD0Srz0jCJsA/IPPNuH1Py3CsRcW4VVxDa8IzX97oou1/Qu75qK+UxZKxPcly2iFIxT8g2MBmlUrgLNzmuxuadRbBuuiiy66aAmAWvq3LMSUSuAsNPXM8cWCAFS3D9A4kr2a0904LkAbzDa2Naqdfk5d9di3HS42gABXEABqzOMqWd2aITBBVg0c65XFgij6nCwB68wXBxUKWoD3LHNwLKUMR5JdOJQstEgx9qskgKwAVAQnR1oB9mxfiKNPNWLt/dMRTa2CqTzwwgVwTYRSGjgxrBUgNz8PpikFrfX6qZQvEaBf9YV5hWIFWNpOMkAEgPL/R8uASp6f6HCmfzPGebzYT9H9qsmfWiBTwN+0Oklskt0RUvyc2JfsYzeJBP95ASWWVZP/q5bFuMh0E5v8WevnBj4rMdn+JIpG/INdMmoBJ07vE7fesUBW/R7EL5zGbhQDmfeX1cCwvEqmKIoRdbos8Ru/rBrLrxuL3Y/MxfY10/HAtZNwy3mj8NumQTh9QDmmx9owMCETRfE22AXgE+jnikFavy8y+GvdAF94jdYCTgmMs0a74q0GGrrooosuugihCGkNAegX9kAVmm7mpJK2YwAi+bPpdkZxIAnQugUEyFFnO9WvHpYEcBXBJLi8f1RKCH+ptBb+BvUCjJqTV3HuOQWm7bCc7a8RQFXrPslowpaU4ZjfOVNoj9k4X2iRfxEa5QGVBKhNg5bJKoG7N8mOgROUgMAoQQKss16Bp/rZ0JRANSOgo43TH7P6OJHrsnP2Q265C9kjimCbUSaD+s6ukWRg2XGIwHKZ/08kwtbPJbMngtaDquDlR1tw35UTcFhozXs2KWl+28QY3b/tYD9q3ZtcgHcsU5U6/uGj/KnqolrOl8CfSvlSsN/Q0pc5pz9/ktD6x33u7/TomkBVHb9Hr4WrJdifViwIQF90mFuB+Cml6DymGD3qCpBc4Ua61wlLdh7Ksh0Yl+tGRe8cvi5HjIWJTZbBhExDOnLFz/LFUM38BW0Bf6gVSXUFvFAYm2EsjabSwBlRPqNOAHTRRRddWPK6mLUEYGhI/r8ybFNLWwHshAPbwqS1aevbK4WEyJwe2uAmsMug23GJbNlLvuaJX8M75l+yi2DKnZhnuodBa79lCf5mnYOPhXb7RMpYOOOkyThPgLVV3JIZmVwB+1QrAPnIvaXsAqDUudcEkD61fi56ndYPhkUF6LygEa5JgDt9amgsQFA1PtLW6RqoPDIFT9LPnWk5yBXAZ5tVxiTqePNIaYQ0L9zwJyhOwifIRrYAx/kDynD4WQX8n1KsAINr0NIxP3JJ30QHDiSXyNa9Ycr5/k08pnGX+bdc1KfV5E+lfB9CZd1byKv/TknP/EYAPpROj0DuxGPoNbERXYbmIKXMjYw8QYZSc+CgNsji8/vEvFCxIu1wiZErAN/ZweonNt4EG19jAd0qYN+Gpt86N7FhXUlqXYBfKd/vDh5ZJVDf+LrooosuSt1/NWd6dkgKIJnmxWHM4HWyBEA1bc8pjUwCJhVwK1wHgV50BBJA2nd0T7hzVsA56Tu4Jn4L+6RvUDrsr5gvwL9JaKgyM+AmDgb8KGMB6jv7kG1MZzMyAUqhGJmCBNzU3c7ugD2qFYD85ZeO55QzsgJQLv1ZN4+XaYGLi2Cd+RI8A/bBHWdqG4yCR5ysjEiBlPSYsilsM8tkQOXyMNaApVVIn1GEbJ89TOBfBtxiPQo62fDkqmk4uKMRe7cpQX91SlnfiOCfj0OpNWJe5oat6kf1FN6wNnJApbaDH5n86+2b4Rv1MexEvCg1k0B/7D/hGvgiXL7r4c6YB0cvB5wdk1EQLcDbYBWAb4GPrju2NePDHTSYNIl18ca3AfDh5jhBuTXKAFVuTNUzKxwJUInsp+54a44YBjGiKSvArZMAXXTR5X9ZuGZ6vE1rAfh9SAMgtQZAU6UA8aqfXeDGMrcNEjBBRtNTSeE2gwOJBKRPFyD0sdDMfxRa6bfo3/eQrBHAQYH3YVX67/FX60z062iHI87q1yKJBJAfeXqnbBxM9rS6AYgA9K9CC4GqANR9W2UVvfxz6mBoIivAfLY8uHNXKOWBs08ctOIy/FaBPKElc+0EcqssbY2dMIs5to4pgLtjRkjgX4HQjMk8fsGsAThGpYy3KKb/NsFfpvkdSauNGOlPJn+qrHi26XZ/YR/O7U+6A8NL/gLHlB+RP1WA/+h/wFW9URCwM+DpUS0+XzpbZWh4O1jgNUptn4oTueMz2u4Lcbz50g4t4HeQZIosLG5BhKg0ddb4YlgbK+FKzA6XWaKS2bs8cZkGb1xmtDvOorcL1kUXXf7Htf847v5n8MXkGAoNLnr8ckAUdbzUXp3puT8P+E/AEsDR9GLYM9oiAdkSeHoNgGvwAQZm+6RvMbrgOa5GR/nplK72jOU8LOzqQZZRaKOaSn5uxRLwZG8np5X5swJ6i3HLVLTsbOSoespHv3HtVBgaKSNAkJMZT8Mz/GO4u7gk+MXZIoJYRLO1SgQEiDlTsmGbViqtAUpsAFlZ7ALUuMOiVvtPkGl/dTYHXt4wn4P/9lI3v5H9jgv+nObH/n5tIx85CPy3ms/h4kpzuLDPXWhIpjm8BwMGvoc8oe27BrwgiM/Z8HQrg6dDsiRAsamtdRt42E4e4IPJQqzGnSKumbV8AnZBgGjO7B4HsocWImNeBc8XDzGHFKjqCZ9aqloCqtSsACK/uhVAF110+Z8UH+VGd8jQav9VIQemUgMgr9DZvhTAU0gCyBpA9QLaJAEERh3zOE3QQUA1/ktMz3yE4wFmp92N89PvwrWJo4TGnxZAAHxKTMA5XXNxLNmD3aoVgMrkThooq+dpWgYPuGQYDA2F6NQwVb5P8arwTYI0BMOpkICIQWsC0NV4h+xhhTI2QMxx1siisHEQFPlP/vKVF43GUfL972hEy+Ta4/r8j5qGaMC/NdiP8vvJ7P+A+TcC+CnFby0Wpq1BY8pdmJu1CRUDj8DeZx08yaMEIKcroG+Sbhi1mdOJgLzGpeRVGkb5AV4dylqTxYm0eYc1l8E+p58XWWOLkTGnnK0lNE9Mms7QBFUqP6fnM2FICGsFeNwbZzN4423RbiO5A3QrgC666PK/qP2LA9AlgF+AU7RPlgB+KGwPAHFQZ40pOrUEwJ/vHjkwkG4pLiDXkRe5ciABkdEsiUDeebBP+goVw/6OhhRqHLQGc9MewCVpv0M/AZ7anHGvAtB9hNb6nJoRQMGA1CPA4kPL/bPRIrRrKkZDBGDdupkwco8AL1Jn3ssFbtwpI2SxoiAS4Fai1SuV1LVsTdpaWJA0SrdAzkAfrIv7SF92hMC/uf1KcYhcFERQlgxvjfaP4PM/kjYoBPzVYD+6f1P6lWzyJ+BvEISp2fQQZlruQqn9cjh69xOfq6fSo0HR9CNZPIKB3qjR4GnQfSXDw9XVxlUNHSlZsGflMbnM7etlEpQ5oRi26WXIWFAh3SIC4JkYUQbFWTWtDZaWVYVmUyyTz6dmVeHqJoSrEKi7AXTRRZf/OfHGWXlotP8hIdH/Sv6/q3c2A9PPqWvfZnbAjJLAYkFBg0gA1dxn326kWgFKcKAncTDsQ/djeOUhdgXME8C2xPQAJnUbjnxjqgD+zBArwAXBVgAC1UXD/YWByM/+xo4mzPjDaBgWliCuaQjypvwLrgF/EZ/HFNb0T2SDggwf7uXA4i45KBNkgN7LE44IxLf6+p2pOSGBbBQg5xI/K+mehafWTMdrf16MvZeMR0t3Z+Q8fwH+h1MHKJH+80OK+7wlfv470/WYQSl+Yo6aTQ9iQdpqjOq5CL4uRXB1SBTzndq2ph9sslc0eo4Z6SRAPjGL3Ti5TjuySx2cJmmtc3NvCAu1OW4s566SrM1rxwq1c2JVgHZ/3PRJJYCSyEJuH09bVoBHvLJCYLQzQe4DXXTRRZf/IQJAmr8lqiQh0VAYZzKG+P415n86TNtVAvhnDH+xoHAkQG2GU+H0p9q1VT7YTYDl/gNmZj6K5tR7sNB0H+Ym/VZo5RbWzrVATZp5iQDnp4Xm/5pqBaDywPlFaFk/jwPsKCCQyuxSn4Dey/vDsMiDnnN+A3c94PIHBGYFEAsKMpzYKYuJBWUa7BCvf6YgGvSe1MK2IFJgXJhrk4F/6bhi0WAce3kJdt85HS3pXlnAKEJTH6rr/4GmIqI20v+wtRnnm27GDDE3zaZ70Wi6HxN6/wqlHYvhMKbAbUwXpCMzPPBrMxsUDZ8j8LtnMtgTUaMKj5TNoZI3Low0UdyfXMhuH8uSytbWyMuqIo+T+S5xFcoqDlh198iKlBpIRKC4tVGQ3i5YF110+R+RmqgYgyc+wPe/Ipzpv7UDYGVoB8BTagVQgt8IIMZ6w1oBVBKQMdDd2lUwQoaAl0oHCw22rGs/TE26DE1CuyXTdl2XOga4YCsAmegbOudwd7k92liAs0cHWAEoLfDsWybAsLAC0YtLkDHtJXhGfCLmyCt95EExBtSl7qYedq4+SJUHiQw81suB4R0zkR1jgS/++MVspN8/HRN8PuyngD+q9ldWLjMWwrbzdeDVlHIugKSN9ifw/9g6G3sty3BG2u2YlXYPFpO5P/la1HQZBJcxTQyTMje2iMDPvnsF9KlGARU9svV3cUMkfxVEqvA4QWmLLEidZWIhZ37I7ojVv4wlKZwVoLpNK8BtnP0Sb4vxxFo4EFYXXXTR5b9e3AlZXBFNugEyksRh+H6I+V9tANTP+4tr/34SQClxE4Oa6oSpFUB19/PTs9vsKEgarMuYyu2F67rVY37qasxLuVoAc6AVQLUEkFa+qkc+a+u71cJA7hK0bJzP5XXVtEAiAvZf1cLQVISEhno4pgLuotvDWgGoS90IAfYtSpYBuRgOK66G+RYnsjtEIAFhcv433joFB19ajD0zBkUI+pPlffcnF+I9y6yAPH81ze/PltOxKI3cIg+w5j+65xLx/jlwMimy8YhESNi8LwaRLyp7TESMNfx6Wf44oNeD0g6aqhlaFpa39oZYfoKa/ImOoF4UGYKoEYENqqSofsf/4Y6zpSoEOMqrVwfURRdd/ifM/+G1/++DA/+oet0vpvVHaiDUVBEe/McFNhOikeO2+4PNwlkDVE3fYUxGYbwD43udiVHdRgnASw3QclWffVW8Dc8mSlfAHjUWYMXIACsA9ai/7q7JMDRUwbDEg15zr4Jn3I9w9+4HT4eUALO5T0MsVOvC7hQ39ndx4ODYAVg8vhrZBhNr+eEIAP08U/z+dwvqcGz3Uuymtr69XWED/qixz74kL94xTw2o8KeC//MC/JvS7sJC0yOYk/JH1HSuY+B3C0KktYiEaPxKIR9HajayyhxS01dBXxOsyUMN5pxWLDshLq86fjfEYB//adKErw38a3OowYHq+/hfrw//Lq/U1ZYVYJm/OmCChd1iuuiiiy7/teISmo4gAFGFHTMMRR2ZBOwJ8f0HNP85hZH/x9PglioNhOaXhc8MCM4QoPLBfV1w9dC4BCIQAfJrO40mVHb0hk3JU032kztlcUYA+db3qk2CHp4rS+1ukZaAQ+J+9cWDBQmgCoGFsMz6C7xlG+COCbUC0GvO6pTNboA9yuvu6enEvtwivLZpAWb2LeWOfhTlHwz+VBN/ckmhbPZDlf5KytHSzRkh6t+Ft9InBNT2l+A/CzvNK4TG/wDmp90jtP4mFMTnMQlqy9zP/n0x8k3Z7NNXOzgGdDwMBv7pxUzgAoA/3Bov1Vh91CDAX9XIgkjkv2+s5LLTWaOKkDPAh7xyN+wFTk7vy3c6xK0TeUUu5NZ4uRZA5sQSmTWwvMpPDNTPQNUrGfyNYTsFvlIZ1SWqLKaHwWu0RHlidSuALrro8l8ura1/bcXhIv+pAA1VVzvpsr+RzLOnKwf+CiW1K3jQ+1GaF/1+VmmrKXlsGNDRugTE8/Kyc5VUswixAYqJ20UpgxFM7gVKVsDyLjIeYK8A2r1kBaivRctz0gpAdQGOPNWIBx6aiVjua1+GDs1DkDvpLXh7jwxoFqQGGZYqQYavagoO7RHk4sCt0/DnJxegf7qdG/t4NYV01Ip/f1gyBK/vW4bdy0dELPZDQX9vmEYFdPV7l33+M7HTci4aTQ+hPul36NOpjwzya0vrV6L5HckC+Kud0q8/KYy2Hwz8zZUBPvhAjV5Z87MUrZ5cSgT0i/sgY2455/fn9PUysDvTc+DulumvmCgr/rUxlAJB7i6ZbLEiYkBtqykIkL9T5/RFfp49nBVA/c4P9BcGMufqh4Muuujy3ys5sRZt3f9fRzL/06Hcbu1fa8IlLSw4tWuFLHVLmh0d+KSVkYaXObmUOwxm1pfwY+qaR7+n59Hrps8qkdHjSmAZt9gdH9hS2KKAEAFVZh9na4CgMSMiEWireI0aFKimBlJWwF6KB7hykp8EqGmB9VeOgGFBH0Qv8SJh0XK4im8X750Y4gYgK8BtSnyBtu/A7vPG4OjepbjzojGwC23fG6bd7/jCAux/Yj5a8orQ0tMZFPUv0/2O+Qv9zOPKfu+I208z5uBF6/mYnXID+nedIADfIrT+tPBaf3xrW2N3Fxuyix3+Lo0hBEz18dO8k6m/uUJq+2o1Po1ZnjV6sY4UREq9Dxjo+wmg9znhyMyDFpBFYQAAIABJREFUq1eWBGV/aV+LLICk6R3gLwEcaSQEEhd+HboOykoQhIK+U5kTSmR2RVyEYECFANjjMw0eQ7J+SOiiiy7/nUJ+TrfRGu2Wh976gMPQn/efBUtbef9awNf6axnohVY3S6PVKYc95bdTgRvKD1fT3dTAMnVwW13xe1ePLDhNOcjPzkOuPY8ByUapZYM9rO0zOKkR55MVciAem6YUMkBR3rlKZE64Br2iuRNo/1qQgCMCrPf1dGFPZgFa7pvNJYL3blrAaYE7npiL5NNrYGik1rcl6D6lAd4EjyxMpICsSijOFq/lJwCkxScIbf6MkdjzfDMOPt2IqWVFHO0fEA9AoCXm4okx/XCwl0umKIYU+qllnz9F/b8rxodC8//S1oBnzUswssccMQ92uIzJATERIderpPNRGh+l77GpX9Xyx8t4C9USwPNNvRyWKT0MyGKzpA8X32Gz/ZgiLmiUV+JCfq6dtXJaT34fTVlfJmnaug4JEaoGxp1kk6BYpfmSIAYOWx5bCILcAKoF4D0xeqnBgO6ETP2Q0EUXXf5rzf9RdNgJAhAvbt8MqfsvDmi72yEP92VhQP+0Kn/ddXqOtbmStXiq5JZvz+fyre6ONnnYG1rLu/o1O2PbXfP497GaCnJquVjxM3pdV7dMTj/Lt+YgT5ADyjvPKnWwudo20O3PP7f1d8ORlh2uGly7CIBXAe7FnXPYFXC4uxO7faXY+8hctOyiboHzcfSpRqy8bxriFvWBoakS0UvKkWPOhy/G4r8e1QIwp3N2a5ohEYCOMsBwz3NNOLKzCSsvHsNlfrUEQCUPf+iW10oeFPDfoxT6+cC6kIH/r0Lz/8zWhLcsc3B94hCUJrhhZz+/JSLwq/Pt6pnJ82eaVtgK/mRdEWSLMi6sQz2wDXAhs8qJ7L4eXuu8YhevN/WIIE2eATac2T5Yow8G++OthdotkFoDa4bsIGhrX/OlaGuk74EaCzC5tTKgXhNAF110+S8VAfys/bvjMyziwPsyXN3/nFqfkvrXp1XTP6Na8d1Wwza7nJ9DAKAWW1EP/Ta1uvif0SjGTw4UjTUmkCT4U73iW6vQEVE4aW1SA8AjO2bi8UQnjnVz4jVPKfbcOQN7XmjGy1sX4uj2Bty6dip6LK6GgTRhu5373LvjQ4MLjwS3Hr5wLPYKAnBAvM6fHp2LmtQ8OGIsfleAv0ZBlxwNAZDgf0iAPwX5/V2Mz2yNeEMA/20C+AcLYpEZm86xDrL3ge24c23PyOVyy2QByDfnMHGi+SN3CpfUjQ+q32+wBJrsOwTO/8msuwr0BO4FYr5VIkQVEB3RZtgN6YIgmXjkiZEflQ5nB4vfXUJ/E5EQRH5/1Q3wsL8oEDUIMmbpB4Uuuujyn2zKtxq8sWaDz2gRYG7jpibikDYUiN/5SNNPyI5kAVDT/8pCzKFK9Df7/1dI/61q2qcmLDn9vdychZvYKBqeX7tL+Jnm25/TKjao0Yy/Dn0H689+rwIllY8sAiu652J713wcTPfh9WUjcXTDfBx8rhkfvLQEf3qmAbXnD0aW0IYLNIGI/kwArQVAHbdOQ8szjdizeQEO72rC9IpimRGQYAuoKDhOkIf9SbJt8SsE/ml1+DijkTX+g+aZuLZ3LWo72pFlTEe+0SI+c4Sc/kjgS3MVpbG4xChzFxvajtgP8CdpstcCvS8h0w/cBPT5AuhzDGnINCQLoE+DSwB8cddsDDB7MDKvFOM9lZjg7YMxznIMySxCZe98fs28KJP4mxRBeqxtWwXiIvYG+NhtzEhyS8tYVG233m1b0cTeoj1Ge432HO092oO0F2lP6qWFddFFl1MqBR3N4rCxGco6ZBsK4klLYVN+jBLQpxnWDuJQIlNmlBLpb/B0STN4O5kMTvFPQwBqQzIAlEGBU+nn9eVI6uwhBXBk2bkNq993a2z/4R+o1WUGmnE1plxfgIk3s22N7kRIwikgHD6lwQ9p40Xi883smIVLY7NxY6YHt0/qj+sWDcbFMwdgTLYLrqAufqoW/ys1BkBbZGjTAi4yRATg6PPNOGNCDTf8UQkAkY58MQaL+Xgx0SFIgAsfpo/BpxnNeNE0BRf2qEZVQg5r/CcD/MdtzfsLkDdXrEUAfToDfLYhlYHbLh4Xd8lGrcWLWZUDcN7kSbj5zCY8fu2v8fw9V+CVR67F/iduwMEnbxLjZry66UbsffyP+MuDf8DW2y7BHectxTkTJ6C0Rw7yY9L5+3MCn0m1AtT7awJo3AC0Z2jv0B7ivST3VJTbGG7v8eC954uzCIJg5T1Le1cXXXTR5aSESpYWRQntvgMfQGTCj/GJ+wUxNoMrISPk+b7YTENhdK6hMCpPPN8aw6RApv5FaQjA0BACYJQtarOHFyK30sPBW/4WrUaN1tcm2LeCt9to5cOetLoscdDTgU/36fDPU0y52kE/z/EDQzLs4jD3xv0bLAonSARyxMgU85AbbfGbpm10DdGW0FK+XBHQirt7OrgK4J5UpcDQvCGywBC1HBbj6HPNuHD2wLAEoFY8fi2lFK+nj8fDKeOwoGsxg31mrAnOOKsC/P+eOfD75DWkrd3zJ55b2j0XtWYvJhdV4/RRY/CH5nm497crsGPV7xjkj26/Fe88uwpv71qF15++HUe23YpDW25h4H9t8008iAjQzw5vFWPbLXhjx+34pOUBPHfPH1DSLQeODuYTIQEqAbi71Q0gNPpOOQZ3R1kxU3ENELmOoT1Fe4v2WLDQXqQ9SXvTLfdZdJG4XxElLQS66KKLLu3X+jtnE4BLrSPeKsFfaP6u2AyDy5jRQzweIMY8Mc5SKvo1i+ePF8+p8MRlJpaZvIbCzpkGtziEsjuYDb0MqfQaRuWgGxzWAqCWflXyq9vSBhkEOkrAp8dkwlW1OgL+wk6ZGJRRgKklfbFo0HBcOH0K/njaQqy+4DQ8cPlZeOya8/D4db9mTW/dlb/CXRefjhtOb8RF4nlLhozAsOxiOGMs7bYEqOTD57c2ZAZZFlotDsd/TVvEAEGf4hqgMr7ejjYu4kN5+974UPcBmfDHiM+zj4sAeWQDH027YSrwwwRAkIFfTe4XQgAcAuD7JWThoh6VGNbJjRxjOrLFkC2HwwN/yDUHXXfw0Fpe1DkMHupnIlJHvndaayZtUWkhpZXDlzS2spZP6/zqxhsZ6N/ceQcD/Vs7V/JjVbsnIkDjgHgePZbjJj8BoLH/iev59t3n1uCzA4/gu9c3Av98Fs/few3c8eIzxlraSwLUQMC3xeisaRPM2ny5obuhKDrF4BF7yNvZavCl2QW425LkHrOOl3uO995Zyl4cIH7fg6wF4jZKbbUtvjM8irrotQZ00UWX9mj+Rhv7GPlQis2I8dL9eJtdPF4lxt+P49v8lCqdiXGzGDPFQWT3xFuMrUWAMko04B/iBoik7RNgqOZ8R4yZNXvS1ul3A4Vmt6D/YFy+YBbuvuQM7Fx9GZtqSYt7m7S6Z+Vh/yaNZ+7AG5pBjwkQ6Pbd5+/E60KrI3+vPSq9XVomAYxKPlRrg7Q4BFod6PWInFBgmTs2UowAWTwsbbfCbUfsgFMpBPSw0P4PqeZ/Cv67aBxanm2SjX22SgJwWDyeVV0SEAPgvzYuUGSGXQns88XZIhIgWh/yidO1qwFzdvGYAJvWSztoHmg+VOsL/U2WMn+0pjZDEt/SnNIckp++qHMWKnvZea1pfchkX9gpi+f/eNo/vc/MigH8fVCB/sBGOeixFuDDDqH503Pp/vt/Wouvj6wH3t3K46e3n5Qk4NNd2HLbZcinQMj2kwD1+99PJQDcLVNo7YK8GHnviD2k7KVXlL31Uxuv93feo2Kv+ozK3o2j9sMZvKd10UUXXdqUyuiOhiJDlsFNfcvjrdHeBLYAUO3ybzSH1k9KER/t+KENU+drYtwjxhwxRorxdUQCEEHbJ+AgUMgWoFCV5ERj7TBcv7wR64Umv/uRa3Hs6duEVnYngzxpdYe2SK3uAB32/gP/xvBD0fyOPXWbeN2h/D7HO8Dpc9Fn6pfmwh3nLsFNZzThd/Nm4pxJE7F0+EjM7zsIU4prMM5dgVH2UgzNKkKt1Yf+Jg+Ku+aEAS7xOCEXno75ssFPh+R2pw16VcuAovnT7+6gPgApCviT6b95GFqeawV/Ki184KkGPP/wHDGfuXBSAF58OPdDeP++SsjoPpEd8qdPKqhCw8AhGOuq4OA5sqQQYPdLc6O/OsT111p8GGwrxIjcUjE/fcQ89cOc6josGz4aF0ydiqsXL8R1yxpww/IGrL34dDzyh3Ox9bbf4MX7r+J1OiLWl9azTswnEYzjWVWIBNjEmp41fjwTQVrz44L+5la/P73X27vuxFeHHleAfwt+eutJBn91fP/GJiYBW2+/TBAnaQlQ56cdboBLbL3MBqVV8AIx1ip7pq09Fbz/ftLsJ9qry1xi77rjLdE+Y6ZhiKGA97YuuuiiS0RxxWcaevXuw75Et3QDXBR06Px0HI3mJ8W8GYkUfN8e4GdtlrT9WKntVwvQP2v8RAEEl+GjVx4E/v40j+9e34AP/3w3+2Zb1v8R+zZc3z6tTjOIAJCV4JLZ01kbbY/mT88h7ZTcDO+9sFoAxEoGl7e0VoYdd+CoIBXkO96/4Qa8/PA1DD6LBw/na/IDBGn71NCn1wA4hx2Dq+BGuJOGSXeA0RI5sE3R9qn7H5USptsJHbO49e+RVCXyn8B//hCp+VNd/61y7N60AK//aRGuXDIkwPzfXp86abl0DURkSBsn1wr5xskv/vazdwoteQO+OPg4Pt67jtfrH7vF4NuH8GnLw/jswKP46vB6/PDmZuCD7cBHO4B/PCOHANIfPtjGPvm3xLzSPBI5o9enuaT1pfuTi2p4DU5kva5dsoBfl4jE8cCfgJ++V5+2PAS8syUs8IcjAbvuugq+TjYmRcchAeo+IM3+9YC+GKFg/2MQyEd6Pe2+u1Bx5cUk9Sjiva2LLrroElb6ieEV2oImYG+M5hD6MZIG2g4zp5YQtAv8ybxLYNxXaNiPXn0BPtnzkASHT3YKwNjGwEHjp7e3sFZGhy8d1G8+s1LR7G9oF/gTELzz3CrcfGYzm67ZP90eEBQHOwEgBZSRC4HIRzgrg0pG1GCyd567E0uGjgxDAJIF6A+HczLgnCLG+C/gHP463I6LpDUgyCVAn7FEfNY+YowSr3N6l1zc0zMfB4TGfyjNiz0U8U8lfE8f2Qr+CgHYvXkBDu5swjP3zUJF7xw4O4TX/iNWKxRAWtYjF6eNGI0N11/AQXNkeZHa8o348tBjwHvbGDDx/jZeL/94XxnvSU0a7zyJH9/arKznJh60lgSo7z6/hue11R9/o3/NiLDR3NM8+o6vafutBKSZ33PpCv77tkgAv4fQ+r899gR/1kigH0IC2B2wEy89fAOqkhz8Habv8gmkBwYD/nEtQBHiC1QSMMbvXjBmGIrEP1100UWXEHHHZcke5fHkh8xIEPcPhHTsU4KrWAMV2h8Nt7H15754GZTmPelob2lazjAkYbynjwDMu4HPnsNP4hD+4Q0JDgQY2kP3R6GVsYZGB7W4/fzVRwQgrfL7eLWR3CGHvAACAgR5HdYTCPyzsen7xjMaFbNy24SDgsno/cg6EJkADINz0vdwjvtcEoDpgKv8AXhiegd0+3MrJv/7ejrwlyQX1+k/muplrZ/a9u6han/5xWi5ul72EdjSavYnzZ/A/5VN8zHW4w2pAni8taFAvAunTcFLD13NVg6KmVBdLRRk968DDzMhozVqz4gEpLSe3xzdEHbtaK7JMkBzn9NOi43/8wsCUNglCxv+eAGvWzgSQCTmby/dy98l+hxtfc6IJODjnXjn+Xswzl3J3+XjpJf+FEH7bwV6zd6SsSet+0+7J8MEGR6gvay04o5yx1v0g04XXXQJlTxDnlb7nxTkp/QPe4yFQaiscyYqxGFa1NHGj/PEz3OizPx7WRzlxAgBF2YRf0cH5hmjxuHzIxuAvz2N745tbNchrD6Hg7PEwf3pvnU4su22sIe81PBW4dGrz+PDWUZvn3gu++abL2INuD1+ZWltuBMrxo7lOINgF4C7V384J3wlxteSANQLAlDzJDyxaQHZAaqv/zfd8vAuRfh3d+LlBDteEcC/1+pDy+zBaHlsHpcO3rtZpvuR1r9v20I2+z91z0yMdnpCewAEZByE9/tTAN/MygF+bVxr5fjn/nVy7t968oQAM9JaEqH7qwBimYt/cwBA05zT3LtPNKVSXG9+jBmVifl4auVvmcSor++/DvG9ORGtPyIJEN/dzw6vx/IRY/k73d6CQV4l00PdO05y7yh7K0/Ze7TnaO/RHnQre9IbOcZgkmoFoD2uiy666BIiPipHyr5/PizuCe7YR4dRfgcrZmS5sXJoDR4c0x8PjR2Ae0f1w811VbiksgyLnD6MSstHWZdMfm5OtIUPLWes1X+weSNE+VMedYE40NZedCYfnqrWf+LgoWiR70nXAEVuqxq66o8nDZK0QM7fjjGfEPhTehvl4Y/ILeGYg/bGGqgE4NI504NM1+K9Y03wdC2Gc9T7cE78XhCAL+Gc9AOcI96Cp6NDiQUI/IxOoQVe3NuOPdWVODZrMA5dNA4HHp7LWv/e7Q0c8Hfg6Qau9nfshUV4eeN8XLV0KMp7Zbep+bviKJ7AEpYE0N8QmM2uHshR9ZQWd3jrrfji4KM83z+eAvD3j3eeZJfA0e23hY3roLkfLtaA1sJ7QjEMmZyhQAGcu+66nGMM6LUObrkZn7+qXsfmn/35+btLrg7xXV5z4Qp2BVCVwXAkQJJlCf60V5hMi71De6hcAD3tKdpbtMdor9Geo71He5D2Iu3J/FBXjrp375UEwKr3HNBFF13CC5v/jRmUNhQn7h/UmhJV8B+clIdNk+uwZeogbKyv40GPn5xSh+3TBmGbGPT4vtH9cXW/SpzmKcTY9HxUdM2CQxxsucqh5g1jWq7oZRcH8S3Av57F929u/tmHMP/9OzJG4JOWhyRorL+eNf+NN1yI0h65HEV+ghXc+Pnk2108ZAQ+ePEuv1Z63GBDMl3vXIlbz17E8QbhANhVt5s1fyYANMR9t2VuiBtAHVTud1CuC5cuGYJHV0/DC4/Pxb4tC/Hq041s8t/14Gw8dO0knD9zAGqt+RzwRwATCfypwA9V+Rvb2Y2s2HS/RhoQnCmIC1kwLl84iwvhkKleNfufMvBXXTvidSnfXju/0upwE889rYEM3DyxNaRroDWgKoDPrv09xzCw++K9baf0On4U32P6LuPz5/Gn+67l93UbQ2MuSIOnvUF7pFLslbHpDiwXe+casYdoL9Geor1Fe4z2Gj2W+6+W9yI9HpyUG0wCVDfAIZfY026Z2huln3S66KJLKAEwZkRz/r8xwyQOiq+0kcpkjiQT5Bm+Ij6IHpswEOsn1baOibV4fOJAHvSYDqStUyUhoAPrfqGp3FBbhQvKSjE8xc4HnXpQSY3ahCFZRfj62MYAc/4pAxKhif1z/8Mcsf/YNb+W4B9z4uAfHKh4/tR6BiWKficNv60MhFcV0/Wmmy7i3PbAQkhZnP7nKl7ZGgRIBGAy4Oq/C57YVCUQ0BZS8S8/miLyTXAJEOmbkoehOS6MsLsxJNvJKX6ODvL3+TEWpShRpIqDNi72M7drETf7+X2vAXAYLWwR0KYCqjX0qcDOm7vWsoZLmvqpBP9gEkCZHqSlE/jTXJPJngo8nUCAXVgSQDUC+pvcOLR9JUfwf6d8/07l4OyAvz6F17avCmvuJ9fABLMD55eW8B6hvUJ7hvYO7aGNYi/RnvLvr4m1AXuP9iI9l/Ym7VFfq4VBDSL8ive03NvR+kmniy66hLMAqMV6fMHFesg8SWbJy6vL+bB5XBxCGya1DpUA8OGk3H9UHExMFCZKQrBZjOfnDMWFggSQtuOL1wKKBWU98oR2vpYPSxnhf+oOYS7W8tlzeHr1FVw97wTLtkYsAkSm/DGOcmy88UIOKKT6A5Giy4kcUFoZ1ZgfYPJwUSC/OZjAPSYRbtNkOCf9JMGfYwEkCXDbfw1PVFd4hHYeTALYfKxo9NTVz26ganlmvlXz+30dj1+FUJb5Tcflvfrjc1sT/pXRiAeSRyqBh4FWGzVQ8/xpUzk745ciANr1e+fZO9mC8sT1F2Css0LMfWookToJEkDFiAbZCnB0x2oO3iP//SknAJ/s5GwWmzb2I67V5L9qaA12zRri1+5pz9DeoT0UvK/WB+09+hntSdqbtEd98SFphj8pe5r3uH7S6aKLLhEJgFdW6ws4RAhE7EKTvLKmIoAAqNq/6gIgcyTdJ82FHm9WDjP1QKPfXSFeI9hfSQBGB/EL915zSgGFLAnfi9eicq1P3vJbLqFL7oaTAX9vJC0yysTVC389uR57HruOawKQiTpcZgBpsGRupoJDYU3XpHHX/rnVDcBBgd8wGXBb50kSQGQhPityzfyA8sMndn3kAngqbSI+zmjA25a5+NLWjDVJw5BnNIe4bZi0dc/Fhy/ex7n8p9oFoILnDxQQKNbvHy3rcP6Uem55nCvmnOpEBFeN9J4kCaDUxuoUJ/Y9cat4r12nlAQwAfj4GZwzsT4g+FPV/imYj8z8T0wKJNG0d7YrVgDaN1umtroAVCuAJAC1vCdpX9k7WLRr/pNmXkp0AqCLLrq0xwKQK8Z34VwA5xYX8yGkHlTkh6SD6bbB1VhRUMTBSFMyXJiX68F5JSVYM7wv/36DhijcOawmtH69OBSpBOx1y5vZFPv9G5tOif/1BwoGFNrXPZecxU1+Tjba36sU3olUA59uyRow0OxhHz8VqqH6AGpufHAcAHWSyw0uYkOgHtMbbstsWQ/AbwUQJGDit0wG3HnnyroAam0AJgLtvR5bGw2HbAzy5Pv/wDqfx/tivCtIx2cZjVjWrZzb/moDA+WaJeP+y86RoPnGqbMC/KCkexJw/vj+Vjx+zYVCSy/kOdbOeXvXqD0kgAr3FHXNxtOrrpDX8+amUxKHQnUPPt33CFdE1Fp9vIpVbYwpXxJljVZPe4b2Du0h2ktTMpy8t2iP0V5TY3BUqwDtyXPE3ozgAvhO2dM6AdBFF10iEABq9SuDALuJg+KvIRYAcViNFocVgThp83RoUSQyHUzcrS7agtwYGfVPJn4adNgtdRdIs6Y42EjLIbPmgF7km261AqgWgPrCGvzwzpZTE4EtDt4fhWZ6+fw5/r4BJwr+arEV6qxHhXfy1LzrMK1tCUQoroC0yQmePtxtjioBUu6/WlJWugFuZkvBgPQgN4DfFZAEV9k9cE4VJGDcZ60kgG4pJqBmK9zJI2T1wOheMoOAgFklBPHZQbdi0OdWgvoimf+zxOusTByKz2yNDPxEAt4Tt//IWIiXTFNRGC9TzrxBwYBnjB7HVRl/rtuG/P1qnQeyAv344XY8e9dVmFE+gIGfCFxbWn+eska0Vt6TIAL02kQQ7R3Sce+lv2LiSATy51zX96/L6oD3X35uYOqnSqrFHiHfvUqqNyjxM0vEnvEqnR9zlUyaXCUzgNaA9hztPdqDqmWN9ianA4ZaAD4Ue7orB/jqQYC66KJLOKEDwp2QEe2WRUOeCK4DwG1iBWhf1qccO2cO4WClusRcZAmtQz3QfPGtOcw0uKGMwczpS9umDvIHLM3O8QTEAfjzzKPS8cKD10k3wElqlJyD/fcd+OzwBiweMpJ91WrDmpMx+WcbLVjQ2YFNvcuxvIuLASZfaYcbvjWxjU3UpFFOK+0nNOSzcGTbLaz5U/AaVbej+5fMms4NbwLLxSrlfxOy4Rr4JxkQSIWBCPzJHaDEBDgnfi2JQOZieLqVShIQkygIQQ9l9IQnqru8pUFkoGtx2NLCpNVT2t+QTi68Y5mHDxXtX7UEEAkgl8B88ffZGiuAGrxJNf25pO9JEjd209Bav/Mk++AhgJ9cQXOrB3HXv+yoVAbncOStgFsXW3lNaG1ojRZ0zuc1OxmXgPoetC5XNc3neJSfqPLkSaWjyjn5WvztaEc5BxwGXwN9vtuHVPtJNe2RSyrKeM+441r3kXZfsbVJ7Dnae7QHnxF7kfZkcHaNZu8+4Y63ir1tjaY9rosuuugSIkWxadpCQI3hCAAFLJV0ylRyj118UBW0oVXTgUVaSX2G03/IkU+T/ZWB2goDIWl6TYNGKBrlppMCEtK4Xt+xhquwkYm6sOOJR4r7FH84jQu7efBiUh+8kNgHfxG3N/UoRN+ELD/IRMqXJzJA1gDSXKlRzuoLT+MAQapBQNkAf37gD6hKdnAdghArAAF6JydcA56TlgBOC/yitUiQYg3gMfoj8bzn4SpeBbfjErhzVsCdvRzu3DPhdl4KV5/1cPXdDk/v2lZrQRAByBHXckevYnxinSMAf4Ef/D9Q3AAUFHhNr1rYxN+rxIfTN8Vn75PowN9ffoBL/bbXZK5q+wSsXCKYIvAFidh++2UM/HkxJm785FOaQYVvUiTJGbUtvrlHEa8NrRGtFa2Zun6+k6hGKRsIJWGR+C5+cuBRJqQnGhfAgaf/ehYrLzgjjPYvzf+jVfP/xFYXWb3VyXvD1wZhpT1He0+tyUF7Uq21EYYANKiFgEqN6fpBp4suuoSKMyGTTYReGQjYUxwY7waXAubKZJQCRq154yP3YfdqDio66KbYXNgyRQYPPlFfi0fGD0TfHjkB6YCqVkmugG0rfy9jAdp56BKQ/EAapPibzTdfilLx2gS+JwP+BYo5uVwA8a0CWF5OqsLOxEo8o4yXxOOtQtNcJjROF+fimxkUI8UHEKCQJktWgSGZRfh9w2wuQPO3l+7G6gtO43K2IdYJlQSIW1fxnXDW/yjGT61EwH8rxsTvZNDgFGUQKaDH08TzZwGuwfu40VC4ngIFcbKR0OzO2XgtyYH9yaVC+58jgH9BAAGgjIC7k0fwtfo0BEBNBzy6fRXwt7azNwj0/bX+qT4/4//rAAAgAElEQVQD9Xb4+BkmD3ddfCbGOiuREyXbKXsjAr9KWMzIF+C/pIsT23pXMPir60NrRWt2m1g7WkNay4KTjAsgAkmdHA9svJUDETkuoB0uASaiH+3AQTEvxWJuXbGBVQD9WTVValaNjKmhPUL+fvqdSqzVAlrhCXaG2Is2Cf7xYUsBv+M1WnuKIfa0NcqVoDcE0kUXXcJIhSHd4OuYrbUCLA2uBqgCvFr/P6SQjVEebGqNcrqlwKTLqytY839cE7S03FvIPk2tpkOASaZzavX68b5HOLr8eJYAtezqd+9uwVWN8xlE2tmONSzAkDY8pGM2Hu1VxmC/QwDKLs3YkViB54Sm+YllAp5NG4lJnV3INKYzILVFBNRrIytHeY88zgRYd+U53Do4T2lEFEICyMpAgYHp0+Cqfbm1WRBVCVTTBMd/rgzFMkBkgZ434m2ZPki+/zDg71M6CfYVn+u5RBdeTfZid6Idr5uG40MB+B9o4gD+KR6vSx7NrgJv0PeArosBMkwcgGqVYUCk5j/U9U+QtG+OPYEX7r0a506qR5/e+axt50ab2FUTDvi9SpwCzTEFI87o4sVDvavwoliP5xMl+AeukSRqj4k1HNIxh9fUdzK1HgSBpCwPX+dMrLvi14K07OCgxLZcAmzVeH8bPjuyAeM8lUrHwkDtn6L1hybncUzMBk00P+0RSufLFntGu4fknoqUjhq2uqa6Z5eo2r+ro5X3uC666KJLeCtAXKbBE2sxeLvlRVkMPaPEwbE5LAmIAP5Um5wq/1H5UvoZmSbPLirG5imtUc50SxHMD4zpzxUCg7UXGVyWIgByGH6i9DIBHOG0rh/UKmv/3IU3dt6F6eUD2N+vpsGdqL/fp5iUp3ay4ymhVZIpORj8d7GWWYG30kfjX9bp+DZjOj6zTsVdiQNR2zEPNgG2DiU+wBvJvCyuz9VBttOldsf9Ul1tR+4rNQIokM9tnQtX5WNwjnxPpgfWazR+sgSQO6DfMzJboLNX+v9VMhGkOTrj5TU/0suBw8nUPtiDvYn5OJJWh7+GIQCPpYxhAPYGNYWia9pPFRwFAVDBnoP5uNXvNtbyVdB/5ZEbcFXzAo4bIDM/adiUlklrHimyn+aS5pTmtk7M8f1JtfgiYxq+EuPPyf2wo3c5nhUkYFcYEkBr+JRYL1rTbIUEnExwIIEwmfHPHj8R/3ztcb6mcI2pJPhvFWR0K5rqhoeY/rVVNanKn0qKN2j2BrkEzi4s5r1Dz6e9RJUBaW+FIwHeuIjgv7nYkBvl6pYV5elgNXjis/UDThdddIksxbHJhgKjieqGR8te4tY0cZAcDkcCgg81AvLq7tms4VONcqpZTkFKW5U0wODiJZy6JMhBsBVAa349r34ya/dEArRaF7sGlD7yj/7hfJT0yGGf8clo/V5NWV0yKZMf+XnFnKwFlGcJVATYHEkbjs8F8H8qgP8T6xT8U9z+YJuJDy31/6+9LwGTqyrTvt3VXUuv6XTSe+29V92q6iVLZ9/3fQ8JmwqI6+iMziKKjjLKiOA46jijP6KgLKKCKIsgBAgCSkIaUIiAyA4CCQkiIiHnP++551TfunVvdXWnO+kk35vne6q6ulN17617zre/H/ta9Sw209diGAJuwxBIOVyvlJgQFxI1AIMep+r7ByWwq4YlSnWm161ievgcpkc+yPQQf2zYYBT6YXgQFD/3lO3aBBFaRuolUehnPxjfyf7Alf/uGp09xA2ABx0MAIMUaJXkAwibIgBBwcb36M3fFimAd8F9LxU+fn7lgWvYr/7fhewLZ54ulD4ImGCkwatWkx/tijNTSvG7DcU/i1/Tr0+YJa4xrjWu/evBbey1wBau5GcLo8zOCNghIgTTxHf6Ef7dtjh1ceRVF2C0qi6N9rLfXPM1cY7m+1JEol76FXvrqRtF8WnYRvmryv/Tm3XRymcl9VGCNYO1802+hq5ZO5ddx9fLjMpmuzy/k/J/DGsXxX9Yy1jTPUUTaYMjEAi5oRcHhQhqYI+gD22xGAGHnfKRqOwH/z+6BNDOhHz/9Q6bHAS/X1HfLhnM7I0AeF3vIGfMN9d3nviFQQzDN9+XHriafXzlWuFJH0nIX5dtfp+pTIhc8l0yj5yp/KcL5f9I/WJ2kCv/14UCGpDXuCHwBldI73Ll9LR/E7ukeiabzZUWmPXUYJ2UQx/+UMh6jLY+pAb8RlgfbYCi0r/aMAzSLYH2/ABgQcQUwMlNbezKpTPZ4+PjbHetzvprIMoAWJCRAhBcAOH3s+/WLMvsAjDNcHjxwR+JCMCL91/Jdl5xMfv6xz/I3jdnCZsxsVPUOISV0veEHb19VdxncBIExLWby6/hf3GjCtcU1/YglL40umAE4Oc/BzaxX9fM5N9ZnzDSrEaA+i5/I4sD8V3r8rsfel1AlLUVNrKOYj/7yrlnsb9C6cuOFbQNvrzrGrZ9ylwH5W94/rOqmtm16+YZffwO60LVymANYS19lK8pa9eMzUhhpfz36nzN6sbaLUwU80cuBAKBMCgSPpEzVOLSvWGNSz1/foepuviQkyGA8aVo+xNMgFsXpje062Wls5nWFOHO7yyZJZS/TSFT2gg4fdp89sL9VzF2YCc7/OJt7Gdf/axgbhMb7TBa/MyV/nh+8biudLGfk/LfXTePHbAofrPsl4bAX6Qh8CxXWv83YQ5bXtohitaa3UZrl1N6YGhi7vuPDhgGg5ACRdC21xZnv7ziVPaHG89iu8NdrL86zvprDQMAKYC99XPZi8FzMgyAv4TPZRdXz2chUxeASPtww2tyZSv75LoNbEvPLDZtQgdXVA3CyxeGmZw/kFvpG9dEFykY4zqt5Nfs2xPmsuek4v+LVPz7s675VmGQvejfwO7mCh5GwF0ORsAOWRx4Cf+u1eCj4RgBRktpSJzjmlgfu//q/xJRj7u+fxGb06jLSFTUhvPfiACA7191xPwsa03IdYJUgGTXxFqKuYO5FP8hU8X/7QlvsC7hC4q1Kwt6xZomEAiEvNDp9vONIywlVBjQJmg9JS3FfFP5jGVQ0LvWjQ5FSciZntmSEKxlmFh2q5wUqKiCofhvko93n7GEXTJ3mqMnrNoDZ9XH2bVfPo/9w4o1wqMU44NLhsfnn5L94z1c8XxHVvrvsFEcd8uc//21s9m+wBZuAGxzNACshoCKCLzKn19fu5i9ryIlrk9YRgWSI2YM5BvGDrF/3jKH7eaK/9E7z2W7bzmL9U+bxvorY6y/LiENgE72WP0sbgCcncEDgBqAf62awb3yxiz+A13kx+tEsVumwnc2zMznjmuBa4Lv5Gx+jXCtcP1w7d5wUPxWIwApmeea1tkqf2tKAN81vvNe8E4M0whQxE+IbiRKQux9sxYz3RcU0QG7e1Ll/b/AlTnmYaDaH3KTnJGhqH7VOsGawdoBXwbWkij0yz6OdzMG/nhCn467Got6KmLC81frt8Pjpw2NQCAMDU1FE8yRgMKB7oBgB3+8wmQIvGuXU0fIEo/L6trYB2IpdsG0qezr82eIvmXQnH532Wz2rUUz2YUz+0SIE0VPTt0F2FSh8FFUhSp/eFLJYVD6qtY3hIGncY/5h+Mn2Vb6D3iOfewe/vuXAxtFuHn/IMrfzhBA1OCd0KnsLa6kHmxcwy6qnsGWl7anFV+HyRhIjYJBgEFAGAN83qnz2DMPfJj1//Js9uBNXPnffg7rXzCT9Zd3DhgANZ3s93XTM9oAQQr0SuhsdmZFT0YboPX7US2PzkWW4bTS75AhflyDFdzbxzXBtcE1wrU6IK/d/ryvtWEEoDhzh0MUwNohgO9+2hG0CapogCCLykFRbJZlde2CGRMzNf6X3/tYA1gLWBPfWDCDXTB9qlgr+DvzGnJQ/krxX86lXXj7brFGC5Xn31RUTRsZgUAYZjrAy70IISFIAfcoXL3FLQVTi1vhZfjl5mNbIKjylWh5UpSm8Ga6+SbZy5V9T4mxWaYpTt2DF2Ipz9LOI0u4peTR4w/ymJ9UTxF54TtyKAuEjuFZGkV/W/NW/naGAB6h4ODZvsJ/vq1+OTu/aipbXNKWNgZa3QGZnw47FhAO1evHdUXu/+ZLt7Hf3fF+Q/nfzOWuc1n/6rmsv6xDGgA6NwBi7Hd1k9Phf4hiBlxa0ikjF+G8oyzKqME5tZoMHlTzf7pqCvsVvwavBgxvH9dm3xAVv/U643t6onGFSNkMZgTgu0er5zx+L7TmawS4Q1lUxAlvKO/hUu3yXm+TJFhYA1gLWBNYG2qd4O8Szv3/aq1dgTU41duidZdEC0S6zh0sSLhRvxPU4r4gbWAEAuHIESvxaz2FfKNxRWWHQNgV9wa1mDdUxDeeG01DRw7bVrybaEyNFMEAl4CiOXUKtQ4WioUkC4MsXhFh8XERRyOgSyqhJb4WQRl73yDKH0rkycaVR6T8rbLPFBX4O/d0UdH+cmCLUIRfHD+drSuNGbz83NMGt0BblkEQHhLPPTxSjAZeE0+yh287h+255WwRAeiHEfDrD7D+rQtYfwk3AOoTshAwzh6u7WLPBwwyoOe5IfDn0FnsYf+p3FtuFnnzpMO8BPMx6sLQCohziEqipPVlMfYlfo4415f4OcPT/7vJ2983AtdXGQGPNSyV7YG5jQDcAzfxv1vK74nBjACdX0vdx8/VFcz7vrRfCwNTGrPXgkH765AOO2wa0nVTzB0uirvDGtYivP5USVjrKotqelGANiwCgTAKEQEP9yw8AU0XrYJGgSB/xPCgm02hyUPWtIDTkJ2cGyj+pth5MxWvFRvKvz3UwtqaWx035i5J8LOipIX9ckIfu7dmum3O31z09/v6Jel2v9dHWFQLIRQfUgvKGMDv9jSuZT+sWcA+MW6SKIaDQoXhEuLec7NkwItLRdxlUrop29QJKGMb2Sc2zmJ/2PkB9iA8f2UA3MsNgDMXWwwAox3w2cA2UQeA/P++0DnszoZNacVu/d7iMqSPY8MxKmZEHPs/8XO4kp9LPz+nA7JdEueqqvn3DdPbH0zw/g/XL3LkCDDXBNzLf497YqUkDMplBHT4W1hnfTNLFgQdowF4HUZCsijofO/muw7s19TNuidc2elpMdYgX4tYk1ibBAKBMKqI+6Km2oBwQQKpAbfwQj7F5U1LgeA7uToGbL0mr/SyuHKPjY8YG2lx5u/F5skVv14WZpFpMdbc1WH8jdtZ+a8taWW3TewTPeGDKf8H6+bnVfA30sbA6zJNcCh0GpdT2SuBreyRprXsp7WLRYQAhYSLStrYJG9EhOOhcJWX3WY36EcaAF/5h6XsyXs/yHbfdFZmBOD9S1l/6UAKQKUB/uTfIDoBng2+R3AA/KxuLTdC7PP/PfxYcExn8WP7j/HT2E9qF/FjXieOHV4+zuUt2To5mkrfKjA48D3mYwTgngBh0Dp+jzgaATLF1JJoN+43GXnKMFhldAB/0x5uFb/PMATyb/k8JNeOudAPa+u8eHGjK+VtRsi/IL0OvaT8CQTCUYIuSILU5oMxwsFCHZ0D3lCEv3YJlxeGlK+G14RpZnLDjE2MsmhfjPnXpVhzbwfTy8PG71zB9KYLj9+/JsWikzoHNmIH5b+ptE2EfHMrf1PFf3DLUTMAnNIERnTgFPZXWRiHPPmboW2iq+B3XMHeUreMXTZxnlC6H6nsYatLOx1TAP/76VXs8XtMEQA88p/7P7qC9Zd1mgwAoxXwycYVggsABgA4AK6sXZExCMgst/HjwHGDnQ/HCMMFx3zAdB77jsF1PCCKNrey39bOYTvyNALwuJnfK805jADcg838ngssT7KOQEv6NTwiQhBaqLOmzV3Mv4Hfm1M6WWxCNOPeHqxOxUZeEGsKa8sdVAW5aeWve8K0IREIhGOREhBRADwW6OAb9wYL4l7hkYzjr63m8k0u93F5zTEKgBwoBppwpd/W2sYiMw3F37Spy3jkm2mQb7atsXbW2dQsFH94rs4at3dz4yC38sdGvoVv6Hc5cMZbK/7B8T+civ/RjA7sNynS/dKzNRsFb/NHFj6d/Z4bBb0YHmQKK4vRxNwA+NanpAFwk8kA2MkNgH9ebeoC0NOtgIoLQBkAl9YszWgBTEoCpW5vmP3Jv1EW8G3NOM79Y+Da4Xt8NbCZ3VszU7IF5m4RvEc+35rLCJDRJxgBjad0s/A8XSj68Lw4a9rQxZo28vt2bWrgHubPIzNi4r6FMYB73aFgVa2PN+SawdpZrXtDVbovqOl8belGJ45U/uT1EwiEY4g5XJLeiKYX1GtxV6PgDEBessPXqnW76/gmFSlIeFthIES5vJyx0clQf0dTCwusSoqNEspeKX61iYrHDfJ3G43fY+MVyt+VW/nDm7tTbuw7Bu0R72PPNK0Z0aK/o2EUvCo5B/7QtIFN9UYzCvVQAwDynws/uJg9YU4BwAC4+1zWf/5a1l/ZmZUC+F3dlAwWwMtqltkaAD3cAHicfy68//1j8lohirKdvcSNFBh3dw7SIoh7ZKd8vmUwI0BEAjrEvSjuy42W+9b0HPesiArwn4PLEsJYiFdFjLRV9vjeu6doQW2+5ofS19r4+pGKvzBW1KjprnrRnbORth8CgTAW0F7eqE0tatDafVGtubQN3kmB5A1wy1DlFIuXk86hNvfwTXSr9JrWWjbQdZbNdI2xmcLjShbbdwoo5b8pT+WfzfE/dpW/k0GAqMArgS0iF28e2IMIADgA3r+kj+2925ICgAHwxQ2sf1xMMgHqpkLAJHs2sJ09FzyLHRRzAFaKKXx2KYDdsn9/35i9PvkTBeVtBKSLVIPiXhRG6xqH+3ad5b5en+L3ezdrazFqBEz3r1ob+7jUptx+rBt02RQ0l7RoHXxtTS6q07rKaKgPgUAYw+j2BbVkcbPawDRZIJjNF+AOGaFTU9g01yYKLwrh1HQI1euc889P+RtFfw/VLxTh4uNJ8VuNAKQFUCTYbCrWM4YNBdjMujZ233XvGWgFVDwAX9vC+qusBoCRBvhj0xr2fPActj90DrulfkNWC6DqTkCBItIRr43pqEn+REHWdACiSC1ORoC8D3FPKg8/5z28bsCIRQrBpqVQVfqvUlTc/Pe0oRAIhOMHCVdQMJHFjdoAzTRW+FB6s+MePPr2A6uTwisaVPnzTRO5//TG66D815fk7/mjOAxFYsqLPl4NAEWd+9/VswTZjtlTV1GAiz66dCANACNgx/tZ/2Wnsv6J8Qzvf4ASeA57IXg2eyV0FnuwaRub7I2m2w8TsgURn/Xpqqmi0v+1MR45SRMFNQxOFGQ2AnAvbSgZxAjgj+G58XTOf9B7mRu8KBa06QpQBvJ/pg0ANxkABALhOMJUYwxpgRwpXMs3sv12+X/07w+6aUrljw1TLw0PtARmkfwERS/37aDvHaTgz0zz+0pg05gp+ht+58BW9jeu3B5oXG0/qplf6xk1rWznj84YYAPkj/1XnsH6AynWPyFuiQKAEKibPRc4QxACgQ1wbZkuxgGnTHUAnR6wKraKoT1vHCfXEEYAOB4Gaw8cMAKmi3tqtVOLoOSjwL0pOgA25RkJ4H+jOgRM97OKAPS3zavX9KYADfIhEAjHFzoNgiA5OyC0PmtmgMr/93bmDp1Kbym4NMH0irB1s8xQ/mD4A6HLr/NQ/soAeLZp7XGZ98+VBjizPJmRBlBRgBatiZ06vZf9Hp7/L89me249m/Vf917W39nL+sfbpAFqVBrgbMEF8Pnxs7OGAeE5eAi+MWG2iEC8dpxcRxh8/XUL8jYCcE/dyu+tpSUOjIFeo40VbJQo8hs0pSXTWeh6cagDwGNKzeHo8kZpUyEQCMdJCkCFL43HS7PC/3LTDC1OiNYp281SVv+jQyBWHbGlYE1Jbv95vmZB75uL4c9a9Pf4cVr0lysKgFz8jXVLbYf2qFTAR1fNYHvvOpc9xA2AB1EQOK2P9VdkdgIoA+DRuhncADiL7QudzXY0bBIpACuTHWoDpvPr/2TTBsFTcDxEAVS654HauXkbAWAMBG3wAn6uuOdSdkYAv0dxr4qulg25C1oRKQCJlY1Rq9bJP6l1FHdHaFMhEAjHgfIvxjASkAOF8FjON7A/ZUQApLfUWRt1zv2vTaV/19nQ7Kj827nymeWNsuurpwhe98GVvyr6WyTmyJ8Iit+pGDAiKXntjIBzl/SJQsBHf/shtnvVXAsZUGYq4Gn/FlEL8Co3Ak6v6GbN7qYM40LVAnyqaoowQPYdBwbVfkkU9GpgC79vZg3KEaCMANxjN/B7bTa/59pzGAG4Z1XFv6MRwA2E4IqkILmycAIoA+BXyeKQlizia8kX0mLE9kcgEMY64iUZ4f8lTuH/1nh7zvA/wqiKTtVO+SP/PNkbZtdUT2b3DzLYZ4DpTxX9bT2ui/5yRQFgAIApcIrkBHCKBKyNJ9kvrz2DPXH+OkEH/GCWAaCKAWeLNAC6AW6sX5fRZmiVBxpWi1qE48MIMOYwvJwnR4AaIIR77Uf8npvC771Oj4MRgPkU4ZYBboAc6S2wCVoM3MOmUb9hlQZIFYVocyEQCGPY++eeSkJrAFGJK2HUAXzHNvwv2v90+1ypDI+2drTZKv+kHECDx++O7xWz3e/IM+d/z8QZ7M/+47/ob7COAFTlX1e7WKQC7AbOgCColRsBvRNb2JfXzmIPceX/B6n4HxRkQLqJGAhRgE3CCEAq4AOVk7M4AYxaAD/7h8peMexn33GSVhngCFgrqv3z4QlQo4S/x++9lOletDMCcA87FgXKOgCHdkC1Xj4sDYAitNZ2eYn2l0AgjFFgFKmJp7yKy7NZ1f+S6z9XcVRzd4dt2F9ttPC8/ruqmz2Qp/I/npj+RrIeAMV5keImWyMAkYB4cZA1F/rZqtIou6yqgz3MFf7jtQn2EH/cLQ0BgxlwqpgMiDTAbxq3sm5vJGsyoC4jMw+OcWIgJyPgj40rRYQoPyOgj+2qncm+Pq6LxSz3pjUdgHvZMdK1wWAGFN0t9mmAO1JFQY2/D4Zuaa3FjbTJEAiEsYcUZgD4Iubw/ymO4f+YTfhfEf3MjFkpUjMMABRgfbEylbfyV3n/xxqWnRTK35znhhFwcfVMMS1QkffYzafHNUVOe21JlH2zqp09MDHOnuCGwGO1Ripg18QOtrdhMTcCzmEHQ+ewz46fZdsRgFoADCc6njoCzBwBjzUszaso8O6a6ezmil52U5HOPlXUJmpRHMf68nsZ97StEaDSAH7HNAB4AbqNdtpQYYoG/xAIhLGIpBgKxL0VdxjjgbFh/dw2/M8ltMAS/lfkKIv0gWEpNnl/9GH/W4UulP+OISj/ozned6zNDIARcOnEeSJ33yH62LPpfFMm46qFywJfhP1rRSu7vrpTRANgDOxFKgBjfkMfYHskMZCZHRCPGFG8orRDjAI+MAYGAg2vPXBhTiMAyv/Gki52jdbBruJyQ0GMfbSohbU61AMIjgB+T+Pezkp5SaNXUFtnR7wUKdCF5q6aKRpRARMIhLEW/vekR5XiUefytl34v7O+2WiRsrb7rUyKASlOvf7gZD+3vFPkX+/MS/kbYf97a2ax1wJbTjoDQBkB+2RNwK/ql7M5vhbhpSMSkHIwBCAdXKJuo+VvVUmUG11t7MrxHWznRJ0969/MDkU+wr4w3kgvWA0KpAJASHS8FANa2wPTI4QnZhsBUP4/93Wxq7ni/1FBp5BruPyMGwFnFDezFqeiQHAEjHdoD1wv7/2KsDXypSJnf+JrqwLrSwezJnUDEAiEsYQul19DjtIU/r8oi/vfNPwnKxy63rndz8zvv1Mq9nwLtiAv+NeLiXD7TzLlby0MRCQAo3tRqIfiwDYZDUg6pFqUIkNUAMYAjILp/LvZWNrCzh8/k318XB/rtHQEwKjAe/+4dtFx0xJoN0L4lcBm9uuamRmdAWbPXyl/ZQDgtRvcSba5rN2RLRD3fkdjc3brqyIFarHteFHRszMGZgNEtZbiBtp0CATCGPH+vRFB/ZsEBbA3OJFvVC9kTf9zc++wLMyCyxMDEQBZ8d/W1ubY7of8KshXbsuT4tdM9vNk48qTKu8/mBGAsb1vc8V8Q90Stqq0Q0QDVFrALiJgjgoYpD8G6yLy/6rDIGFjAHxv4jx2aIwPCBpshDAMR7Py/4WN8odcywWpgFvLetivaqaxRbmIgvg9Dva/jM4Amf4Kz4lbCwHNBsDOaHmD1lkSKEi6hSFAmw6BQBgLyj+s6e6M4r+PZeX+1ebHvZy0968q/ns7HSv+oXAm803x265OdkfFJHZnzfS88/4Pg+wnuP2kV/x2KQF456/yx0snzmWLS9oEnW+r9OadogLmyECXYwrBMABuqF1yXEYArJ0Bz/jXsDuqp7KfeZK2yl9EALRO9mNXjN0+oU8QBf2kejKb6o04cwS4HCiwEQWra7ZLgSkjerGKAvSUhUTNDYFAIBxTJAyPRLX+lXL5Q1b1v+r9ny8LoeRIVOH1OCgaXcpFrnb2M83wspB/VR5Zrrz//bWzT1iyn5GKBuDaoFr/5cAWdkXNfLaxLC6iARERFQiaFL1DdbvHjp8hyJVflP3Rv1FEG/YfhwaSKAYMGfUiz9WtYztK+vi91y48fXsDoIP9sqKX7QQZFTcCUKMCfgpVD+FkTGVMD1TFgJNzcgLcKNJs3mAh1lzKF6DNh0AgHDski8NaZ2mnICqRBsA5tt4/39Q6mppZ04aBoj+kAtKFTzbefzuX81yt7AYtxq6Wmy2Kr64r1tkd46eKDTeb7MeIALzk33BCk/2MlLJ7TbLhHeKGAAyCHfUr2L+Nm8Lml7SKiACMAdQKKO9eef6KV0CJet1f3Mi+Vj3rqHj/+3N0Gewf5Pd274EiUdBD4zo837CePVK1mD1QPo/1Vyxkv/JO4fdee5byx/2I1IDZIEVrKrpUvjwuJVIBtvwAGIVdGWGBFaaiQBQDrk6KEdmWNXHY9P9nyJZAV8JL8wEIBMKx9P49CEWGCpJ8U0q5gxHF0mwAACAASURBVF7+8yO2vf9FQRaZafJ4EO6sd+b4R8X/xyri7K6KScLzt3pc1xbGhNdljQTsmDCV/bFxFeX9h2EI4DlY/KC8XwhsZjfVLRX8/qgVSIiuAL+oGUCIH5EChLg7BX9AQKQQ8PrnqvrYX0ax2yKtrLmHju9YKGz+/ICs4BfPQ4Yif0PKQfF79Tem55b3eNW/mT1Tt4b9jiv+XVzx7y6fzx6sWCCkv3Ihu9UzOSMScLWISKX4PWg/NwAMlR8rj4t7OefMgPWZxYAtqY5cxYDX6m6k3MKFqZKAlvJQFIBAIBwjpNwZvP/bnLz/dOuf3ORa2+2L/swV//fwTXRn7XR2Y2l3RtuV2RD4uTfF7pzQJ8OvU9kj9Yuk8ifFPlwGQRUVgDGAyMCrga1sV+MadnnNfHYeNwhOK0+wxSXtbIavmc32tXADoZP9Y2Uvu61+uWj9G43+//1Swb8hBzj9uWkTe5or66dqVrHHqpdxpb1EyKPVS9njE1awP9Wu4bJa/A28eSj3fYEtoh0Ugud4j2fq1rKn+N/9bvwStqdygfD4zYrfLHsqFrJb3L0iEoB778aSbsdUlIhEccPg1/z3mxBNyTEzAGshXQ+w3ph+ieiApSVwgBjIOzAmeJq7hjYhAoFwjCIA7pCmew2aUr4h3WprAMD7nx4TuX9EAKJ9tiNQZf95kM3xRdnNXJmrin/RfsWNgGscjICfuOLs5ooe0bt9QHp75P2PTLGgqhUAtS/qBWAQvCHa5LawFwOb2UtQqPxvYCxA9o8S+Q+8dCjtp7liR2h+d8V8oawhu7jC3i1llxTxu7J5aYW+h3vwUPBpZS6f7yqfl6H099gofrMBgMdfFHexW8p7bVNQ5q4BFA/e6EuxKwo72Sx3WLRROnEEYE3ACEAKQEQBEu25ogBfgQGgoxjQTe2ABALhWHj/ovUvTfzTzuVvtrz/NdEBpr/F9kx/asAPNsgfjJ8kJq7tsGyoN5X1OFZiX6m1sZ1lM9hz9eu4ojAquE9G4p/RMwaMNIFKFRyEN46cuQynw1gYjZz/QVlICG8eYXirst7jqKwNhZ1LoQ/2Hua/wSMMit9XLWF765axO2v6cir/WysnsR8Xxvh92cGu1zrZ1wvb7QcHeWV7LF8TwcV6enpgwH5MsEqrPZ7wBEuNWgBufLupFoBAIByLCMBA+P/DTuF/1fIUWJMUQ4DsvH9FQ/uVcV2OHP/YWH9ZMYldW9iZNgSQj726oIPdUJRKe34PjVskFAbCvgdFPnjbqOWizYrKSU5EQ2T/EArthhvux7V7oWE9e5h/n0Lx56GsR1LUZyFKgMc/1qxKtwc+5EAXLGYESEP1mvT92Snogs93tYkogNPQIGUoD8KNcViulzmqJZB2IQKBcPSVvxj3G3TJquSfZBkAivhnWYI1bXFkOhso+iuPi8KpHYMMYbl9/BT202I9bQTA0/pN2VzhIWKjhqKAwkCY9w8TlgslgqjAQVkcdsBkEOSjxKy/PyBD0mbjAvnkl5s2is9CXvnZ+rXspcaN4rUBQ2S7TE9QVCEnEx+/Vvi+8N2p8P6eo6z0d5sUP47jFf79HgxtzzhOQRcsjIBs5Z/VLSCNgHNy0QUrngykykAMNFe3IwZSzJrnywhAkV7cQpsRgUA42t5/sED3BDQuPr4h7c0IU6rWv8Zm1nhKt9OwE7ERglluPYr+ZE51MJpfVXiF9itUZd/pm8Yeqlzk4L3NFxs5ogLYyJ/jihnK+nVTUZmqBD8oK8jTleJpL36gmlz00Ae2CEWPKMPvxy9lj1QtETnpXZY89G752TBM8HfmqMSBEBkC9v332/m13SC+L6WA81HWSh40vWZNBexxSBOk/4+MIOG7w+c/MXGlVPyZ35eiC/5zYBO/Z2cYRai1M9gtFb2OKaq08N+vcEdZWw6SIKwVox4gxWLjIyxZnLFulIF9XdIb0rgUEisggUA4FuF/I//vDvlt8/8FQdac6hCDThI++7w/mP6m8NcvL46znXwjHQrH/z180328djl7ZJzRr+1UxLVHKISB4jC8hg0eFeOoAIfAa3+RKx4YB6/5t3BFbVSJo4IcleRQ3k9MXMEerlokFPouoSgGCtAG8yzTny2jEn+WHiVFBMy5/q1C6YprWjE/Z35fFQHisV8W+PWPW5gu9lPRIFUoqBT7LptCwV2iSHAB/24Xi8/Hdy7ogC3RIlumwKY17K6aaezWcZNyKn6REiiMsVtLu9l14w2mwJh1hLCqByhFPYARNWsPZY0JVnUAe+PuQKHuFtG3AtqNCATCsTEAPOHJCQdvBtX/Yta5Teg/IQ2AC11t7DoQ/HiSjm1Vdjz/jzcsZ38NnyY244wisUGUh/L2lMeXriSvkMVlUCLSM1RevFIU4v/lWTyWK6eMz3qcGxSIJphDy8fC6x5qzn+k+/kHcv0Dhpyz4l+Qjug8VbuKvdS4ge0PbBUpA/WoBL9DKga9/c9yAw8dBMjjP8mVPNoH8Rp+91zDOmH0vS4jQirSMziJkGEE7K1fxm5y94hW1WsdlD+ohHdUTxVU1khzfbOqW3S8ONUDdNZGWeMW2Q1QELQjBXol4Q5XJYw2XDIACATCUTcAVAHgYtvBP9zrR/+/TR5ThD+RC/1QUTP7eYHB9IeNctD2Ksnzv6dugWT625reuNEmBm9ehY935dXalRkGHm6l+HANARgbiD4YLHSjGw3IZLzbZiLJyV3Ypwhzsol17P9v3ox7/H1QI4E+/nxy/SqdguulPHSnAs8D6cLMzBRPpmSez+vDMHBwHGhLxPHdWNwtOAKutXJVSLIgRRi0QzIFfqJCdyYJ4kq/pauDRafFrMazWmNvcMM7xAUGeCHtRgQC4VgZAMtsKEsNKbZX/sj7byhpYz8r0jPypmD4u3381BwEK31iTOurXNmbq+v3m4rz4AnC80PeXRUE5tPnfSTK/Ej+L47v9+OXiLSAIrrZP0rMebhG8HYR5oYHDW/4UX6dUGn/0LiFIowOeUj8vEiQ6yBl8VTNauE1Ix3yIvesjTSJQa5jZtSzV7QDyhYK02DcWys+V6VmBvf6jYjJPlPEZP8RRi6OJKKhihVBOvSANORgoFzn4vdzASIBsTRRlfVeVmku8FxsKG0TayHLCJCtge3hVqsBrdbYm1yaFSEQ7UYEAuFYGQCzHQ0Aj92EvyDr80bYLyZOZbdxj99M9YtNExX+ThEAGADPNa11pPo1F5NBMUGpIj0ARaaUrcoB23n5e4YQBVAFhgOP89IpBOWxmiMRuZScSkFAyZqH0Rx5eN1Qli/z6/CULFpMF7yVzUtT3u6Wnz9QUJdJrjOQKpmXLrDD38BI2Ms9eBgJkCdrVgojAXwMSnD9obzxe/U92H0HTtcFXj8MloOjxDI4POW/XZybUP7ymuE47y2dnaYJvt6dyHEfT2O/5gbADROmsml29QAmQ8DymlpjB/nvAmIQl5sMAAKBcPQNAEUClEgMYWJcO9/svl7VLXKhmJ7206J4RhQAz2/wZtYDqND/Yw1L8+L5typBZQxg04YiUorQXKD3gElh2xaMWWoF4MHu5e8FBYd8MwSfAQ8XoW20AUIZwrsfzNN90BQNQEj5BaHwtg0hH2319DONH+PzM42RfIhyBiPW2W26fk7Xzmwg5VMwaY6MID2g6iTGSrGkMTdgSwazoLoW6EbZ4e1j17pibEd1n+2cAPPQIKyBb/C10O5kAHgcDYCXE55guSIDot2IQCAcbQOgQG5ANfz5/sGiAF2y3/8j5THZ79+XZk27xmbgzy98xpS1u+WQnwdq545IwZkKs0NRo80L6QIUhymBgQDFgy4BeLeoDDd+t1IUjSklby4aS5P+hLJbCPEcxsHeCYPnuveYCg/x+Qi3m3kHzGkPlcs3n5NS+r83RTxGK/0xlDqJodRR7JIcDijSO5imdh47HQv4PmH87bL5HvfIa35H1dScyt86NAhrAmuja3ADQHUBPLikLKy1G6O4aTMiEAhHFzo3ADpKI1qoqpUbAqH7s6YAWvL+7e4gW1bSYvD7m3KhUPI3eFNZA3+ukaNW0Wa1U4z43TgiI37NxWhmoyBjulxoYGKc7e+DQ/PMlaJ+sXFgzGw+rYMQePBGlGEje0UaHsqAwWsIjyPErjz9B/IsgBwrssdyvoiqwMM+Vt0Rub5L3AMwBlXo3+47g+H2GwtJUK5UwN3SEMDaaLerB7AnAvpO0pjE6YqTAUAgEI42WnwT4X0UyTTANywbVEbYX5dGwJU2PP9iI5zQx35iSQWkW6i8SfZE4wr2JobNBLaOOrXtaLbBqZA+FLpSGIMp6d2mMDrqC9TkuwE+gvkZ4fU9Q2a9yx6ms9vU8rg7i1hndBQ/JvIh4jEWvX7R8hfeLqJFTqkcxUnweuAU9qJ/fd58FlgLWBNYGym5VnKkAyQRUPBsxQS4kbYiAoFw1FMAGaOAgwucUgCK6vf8ykROnv87xk8VXQAZXQFcwPb3QMW8NIveiUB8A08S6QfUIuQiMXIyCHbbFDHmrfBNdQ0Itacr/rkCVqkP1C0gUiG6Aiohi7Im8JllsFD/HkvNwMDnLxSpEZAwHRiluQ0j9X2hfiRXHQd+h9oNUYcR3C6M1jvyiAKoegCsjc/yNdJi1xqYubbe0t2hsC47AOIlrbQZEQiEo4ekO6R1axmFgLEsNkBTy9+m0jZR9XznIBS/vxo32fD8ZUsg+qoxg11tsvDATgQq3f0yvQBBoSAYAvMpEjwSL1sN1IFiR7U+FJqiRc5Ii1g8XzENEON/uXduruyHoQCjQUUjBgoN7Ub0zksT+BithSvE+4zmwKaR+o5wbCARcvp+UByJa4sakTdMxYpIV4Gvwm5oUK7OgI1OrYEDNMBXqfa/pDescWOANiQCgXB00FEU1aT3YWxCxuNPrcOA1IjfSd4w+2n1FHbvxOk5B/0oI+A2bgQo5Y++ahX6VooMXipy4W+MkbawkZh1D0Woht8caf7eqvTxXM0igMI3k+QcyFPxmv9PxtwEGa43dz6IIUgWUa+DPyCjQHIMTUrcb3Our/g3SaKieTlbFVEUeCBkvWbbRAfDvTUzRftqPqkArBGsFayZeHYqQK2tn8Y8TVrc4y9MeaJiHXa4aCQwgUA4CoDyj/uMUaTSEDjVrgBQsP1xT+ZLlSnH0L+d7JRGAKb87SyZIVqrdls2XDxHzzw80zfGmCIZ3vhbQymiWwCetfKmdztwFdiF2s2hfUQUlNJHquGAwyTE4dZKZBsI23KORLYbjbx/hKmM8/n83LJdTiI0oh0wyHLVaaiODUQ19lmIqcxUwc82rRUdL3cNIRXwpXEpsXZSzl0Ap6lxwF3eJi3pDtLGRCAQRhcxX0RLFRv84wlvSNO9oUb+/DmrAWAo/wA7pbRdeDX5DvlRLX+/rZvDnm9cLwvd5mfQ9Zr7xPF7MNqZQ8kHjlDB7M9DRnMojtE2uFGwzBm0xplcBLYDbrjBgGE2qKBHmgQRkjQnQGjbiLILjolWvKCJyliOD8Y1e0HyMTxfv160ESpBp4TianjRIpg++DQ3lFT7J+oeBiMqUsofNRTKwNqfo3Pg0folQ0oFYM1g7djUA6g19lzSG2zkIqJwXcVBbpRHaYMiEAijgz7N8DQ6fGHRfiRD/9+zVv+r0P9kb5hdXz1l0Ny/3Qb4vH89ezN8qlBkyDPbtc0pBjbl8UL5YaPPpKfdltHWZw5pm8f+Kjlo4b13kiPhj8/XEDgo5htsFSF01Akotj2zIJePAjqE3w1+/MzQ+omi9M0MjwdDRsrh2fp1ov0RNQ0YJLTL1AKZW+blJH7aPUhhpVn547rnO8Pht2gNBPdFnrUAWDuT7VMBaq19V+drkRvhrm6XX9TlJLRa2qgIBMLII+Hlnr83ZKYAXusc+g8MOfSv2P72NixLs/0pxY3ea8Wmt2eQdjJszCDwwf+BhwcjAoJ8rJgaF9wqjAT8LMiA/JvE719u3CQ46vH/nuCKFQRAULCKIOhJ+dpTsif/Vellj9ZYXyuHgL0hsj2riO5E8vTNih+PzzesE146vuMHLMWGQ+mGGG47oyL6gcHxiow65cMFgYJA8FjkEwEwpwK+WJly6gpQhbarEm65JsX6DNNGRSAQRhZxMXfcmD2uI/TvCZXz54/ahf5Rwby5tG3ooX/uHTmx/UEBwNtS0YBcI38zq94HqHsx7AbeouExLjJmxlcuyPgbp1D7AxavUSgc/n+Rr4d3ruhqR7M74WinI8ZGgaRh2CCMj+9t1zEiOTIzNCLyoozT/UPhEQgNrTVQpQI223cFqDX3WMITLtc9Ki0XxmwA2rAIBMLIIck3GL2k3uz9X2BX9Q8Sk25PmF1bPZndWzO00D82xZf8G2zZ/tT0NUQDkONGblzR3O7Jc1LfblMP/e48PcQ9gxTfDRD0LBCT9QyvcPuYI7I5Hlsk8X2jr14xJ+7OgzRp9BgKjRkNqC04aEknDbV2YXfd/LyMAGUA/JivpR5Pzq6A/1AFgQkfUQMTCIQRRMwT0OYWJ809/0kub9v1/LeYCH92DDH0/3jD8rwG/RyUfwPP+2HhFWaT0RwbKlujTgFpgtf8QxtbSzJwnQRJEjekVPtdvop/JFgKd1sGQO2RUZ7n69cd8ZRGZQD8ObBJdLrcmSdLINbS+fYEQWrt8bUYTiSMKEBhX6nO16yfNi4CgXDkSHmNyv/OEn9BoFzQ/95o9f6xMbW5g2xFSUte4U1r1f/uunl5t/Jl54XXi5z/nsqBEby7LUQte4Y08W5hljLZk8f77MkYZrNQtODtHwGlcbKIHU1yPobXgzYTCRW98S47euM0xbGF/pj/DC8f7ZMoLhwNoiKVCvhj48q8UwFqnazka6stOxWg1uCNHRUBLV4SKhDFgB6qBSAQCEeIxADhjxH6d4dOtyp/JQhRXja+15brf7AIwMv+TSL0fyRFchggo8b9IkWQVgxl87IKxnaXZ/Pfi+rwMvsKcXMNwGAFZ+Y2RRSLoXDtwBBG+56s4X50M5gHJe3Jw9BSRZ+IFkBpGwyHa0W9CEiP8KgEP9vJy/Lv8Hygk2J0iYpwr/enWQLzmxXwPb624jnnAwxwA6h1SyAQCMNT/sURo+rfy70KtP75whP4pvKUXeEfuP4/nB7zm79Xgw3wycaVeYX+8wmvmtvn4L0p2loI+urB2Cboa6WA894Y+buC/82a9N8ivYCOAIP6dq0YA4zX0QGA/wMPP58aBFU4Bq9ygO9++xFzFeRN0GMhuRkqKc6BPD/nSAw3KN691fmNSjanWmDovaDaPtOjmTNbP7NGNduI+fe5iIZGmsfg1cBmdg9fL/myBGJtfViODXYoCPxj3BuYoHv9mu4NCp6OeDEZAQQCYdjev3ngT+jLdoV/nZ4gm+WLslu4Mt9pGvObj/JHQdRIe1n7LQaBdYzvgTQPwCkZI38P2rbYDYj5fVD1j2JE8Nrnk6dWkQQYD6hoh4Fy0ETUcyBPIqJMHoPMc3zDRmmDpAZKEmkSPOKY0dIIbxkKdK8U5T3D0AExDv4eLZSvSeWqFLb6nPS45KEet4mREPwGOIbdFfnNQVB/gxoLJ+Kn/cdN5MNIBTzVuIrdMTG/gkCsLawxrDWsOYeCwItUFEB2BtBGRiAQhob24iYtZfT8q8K/eK5hP18Z1zUk79/Y0KaLgqiDo0zjm69i2D8EFsADsgYBj6gMf1h2JQxWhKhSDf1iCt5yoXDhASt+ggODEBEZrWcGj8E+yWOAFMOf+PsgaoFOBEQ2kAJB+mGPHBnsRHqTiygHz0HDjPdBsSWiJE/Lz4HyxjHjGPZbjAPH4+Z/D84FDNaBIaTojvMh3cGx4HqZuyxOiLoHMTBoft6pAKyxi8al7NoC1Zr8m1yrxpwOd1jrKKaCQAKBMAQkPUEt7hGMf2rYz7V2hX/YiDbkMenPzvtHT/RIhP6PPUmNoZTNxWuDFQvutgzrQR4binZv9XLh4SJdAa88/QgPnb8OJYg8uRqOhMJEc42Ctc5hOBXyeyzje821Eupz1DFDHqlaIo4TBoIhK8WxGsRJxmvw9EGxq2ojdg2ljoKfL6IXJ8IUSMeugDzXj2IJ3GDPDaDW5rWG9x8uBHdHiqIABAIhX+jusBBT6H+lHeOfkivGT2L35Vn4N1D1P/+E8eLM7Wuvyva1fPvW9zgM83EmIcpU7CPZAvfgMFvtdlvodc1FlBnHPYQ2TfPAp9dP4E6KoRIEYY1hrf2Ar7mEfUGgsUbdoVXpVIBczwQCgZATgklMbByBgo6Cci1eXFfEf97tVPj3kSEW/qWr/gMbRz30fywr2lE8qNICu4eonPMhIBprsmcEjttcNGmMfN500nApwBjeVTuPr6P8UwEfyV0QuKunKFA0VczvCBVgTWNwEIFAIDiH/t1BrdPTDNpfl6T+/bBd4V/ME2TTvBF2E/da7hli4d/xHvrPr6d9ezot0G/qGDiaREVHynl/NIwOK9seiioR7j9wAob7B58VsCHv+pl7uBGNtTedr8GYM0Pgh2T6zhX3tGgJd4A2OAKB4Iy4L2Jwigvu/9BELs84Mf59vjKZN+OfCv3vGgLhz4kyxAbFciicg3LbbZpYN1SiImfiInvK4+wQ/Pz0QCXzz+K1ivmWv7EP349EusFcX7BLzmtAUSCiJgdOUuIklQp4rGFpXmODFUMg1mAOhkC+dsM1CbecE0DjggkEghNQOCRz/0Uyf/gF66hfbDTt7iBb6msZEs+/khcduP5PaKIbE2shCGeQ135UMBcuNMYZD0JU5ExeNEBcBCWKSAPeE48wNlCMpyYawgARkxGbNqcJcF4xSfo1/2bBV4DIhSrmA3eCem9VmIfPtWPYs6XXtSkkxPGiUwHFjZiseGAE2faOZ9nHDYH7amblxQ2gogFLS1rEmkzZjwy+QK7lImnU00ZHIBAygZY/3dggZNtfMMgfX7N6/0lpAHyzqpv9Ju/Cv+wxvycrz71q84NRgMgAlLJoratdI/LeYlKhnG+vJhcary0SrxtUtUtEVT3+zzOSsAhhc8wfMFrztmb17VsJcg4MSowz0ML3ujxWCIwE8BiosckgOHrYdJz90kgwS3/lItEpgL/DOSpjxGDd206K33SP4Ho/3bRGTMbMhxzoNzUzxFrEmkzaRwH4Gg6GVFsgJgXGaU4AgUDINAC48i/GPPGgK2H0/3/dqe1vS2mbqES+cwhjfn9bO4c2eRuGuSyiotAp2URFNsRFSlE7EQDZcRsMd/Tw6zZEPm+YDQpZxAaFji4IK9UuKJpVoduB9PkSLXKu+pE9edIE3ym7Arbkbgv8ho7iXm/YpRf7tZQnQhsegUAYQIMWMZP+pOxIfxJy3O/lQ2j7U5vUC/717GBwO234R0BUNFLKfTSPVyn5DAkePYrdE40b4K482wLRimszJ8A0LTDUpaIAtNsRCIQMGBX/IA4RNQBX2Xn/aDl6b1nHkEP/v69fIkP/tLmTkORbEIiUWb4FgRgWdHZZZ64owFXCAPAaaQACgUBIQzH+cUHu/3WzB5GUk/4me8Ps+uopogUpP9ayPlHQhMKmA7Sxk5CMSkHgHUix1cxg11RPtiMGUlEArOkgRQEIBIJNBCAj/P93qwGA0H8PNwAQasRmc0deRUp97JmmNeT9k5AMsyDwT42rRfvs3Y7K3/D+fzmhj20sbRP8HEnnNECCDAACgZAF3R0qiBcFtVhR0M03iEeszH/YVDr45tLnjQhPI5cRoEL/D9UtpLw/CckR1gPsrpuXZQTcaeICwHpc6GsWfADJ7AiASgE8nPKEi1NGlK+AdjwCgTCQAnD7UQPgkjUAW601AKoOQBkBl4/vTZMA3WkT+sec81cCm08K0h8SktFkCEQB7Z2WnP9OSQf81XFdIjJnwwOgvP/Dch0vQe6fiyvuo7kABAIhMwWgJQUXQLggbpABXWElAVJGAGaRd/HHS+QI4LvlpmSm+32yceVJ2/NPQjLSqYBH6hex2/m6ulP0/k9nt3Mj+4PlMaH443Jd2gwFUhG89yTQ5usNuZIaX+NeMgAIBEKGARDUlmkTMAa4IOUNYHDIONMQoCwjIC4JgbAJ3S6KkIzCQGxSu2rnkudPQjKCaYAX/RvZfdzYhvL/v6oetsDXLLpyktlzAJTyV7n/9xlRvXDRqdoqrcsTIAOAQCDYpAG4EZD0KDZAEQWIcnnKzghQGw/yjtiMwEaGYqT7+Sb1nH8937i2Ue6fhOQIvf/XZAcNC5/B7q1bxN5b1s46ZSouZT8OWKXt/splowz7FwmK72IaC0wgEBzQw//JKuGBOeKeUAd//ic7I8BcFwDZVtrKbq6Zy94Nn87ewhAcuYGRIUBCMjzFfyh8GvtzYAv7nwmz2QxfSy6v/7BpfT7LZVpSMHoGi5K+kJYqQYqPpgESCIRcUQBvMMMIkI+IBDxsMgIOO0UDurwR9slxk9lvG1YLI+Cd0KmikAkb2j4yBkhIBlX8WC9Q/K8GtrIrauazJSXtLFLcJFr8Up6wndf/rsnzvzXhDjcaEwDDRb0VQa2nPKAlfWGtpyRIGxyBQMgNXRgBYSmIBPg13SNqAm4whRkP2UUDwBcQcTeJn8+qSLHraxezl7gHgw3t72QMkJDYEv5A3uQG87t8nbwY2MwumziPLS/pYFG3n7XDsOaK38HrP2QyAj7bW9LgaituhefvSvgiWqqUr2E3ef4EAmEoRoBb9AurSEBhyhUoiLR2FvDn/2YKNR4ycwUo6ZJeSjPfvFq4LCxpY5+r6mO31y8XxgCiApA3Q9vExkdpApKTUemrMD8MY8jepvXskuqZbAFfLxG+btqk4s+R61dr7yGE/EW+34jaFRrU3oYhTyAQCEOGMRUwCO8fjwW6N+SKG5MCJ3F5wBJ+PJwdEQgL6eAbWbi4SXgyi/jmhhTBT2oXsSf9G9jfuNdzKHQae8MUGSAFQXIihvfNxu5b0ttHncyt9cvYxyt72WRvOJxjEQAAHhVJREFUVKyTjsEVv/L63+TyeS4luozWoYtHFfPGXM20iREIhOFjitas6eAHEIo/jAiAK8Wfp3xBL3/+MS6vWgyBrIhAUkYFBJsg39yQIkB0YBrf8M6u6GJX1yxkz/g3cUPgVGEQqM2SFAfJiaL0D5iUPozdBxpXs4u5t7+6tFMYxlgTccGvYRvqt/b1Q27gf9eecKuunZBroXaGlnB1ktdPIBBGFim+0UTHhbXOsqD0NCDC62jg8hXLACHbGgGzMYDIAIqakOOEzPK1sPPGTWH3Naxif5XFg6/LoihSJiTHm8KHZw9Fj9A+lD5+B6X/jQmz2dYyXawFePttsqo/h+I/ZOnr/63uCS1JgbNDa1Ah/wKD6Ceo6cXk9RMIhFFAR1FEdAmgvQh84sbmEywQaQJ3OMB/vojLixYa0ncsG1iGMaDSBGAXxIYIL+i9FSl2U91SUTAIQ2A/GQIkY1jZq3tTKXwUvCKShajWzfw+/kLVNLauLGYUyPJ7HHUxibQhHHKa4GeNpiHPv1kvDbq4GGN9ueevixRdgLx+AoFwdGAUB0akGOFH3R0o4ILiwfH85w/AU7FsYMoYOORkDJiLB1u5Z7SlLM5uqF0iNlZlCFBqgGQs5PBxT4r6Fa7sVVj/T/6N7Lb6Zey/J8wSHTCzfS3iPobSx2PCFP1KOIf5retjJ5e1CU+zO+FthqI31ps3rMV9EcHq16M10KZEIBCOHhJaLVf2US3pa9ASZQ1Q/IVJUR8Q1mJlzVq8RGxUvVy+zGWvTUrg0GDFgy2yi+CUMl14Usihvs0NARViJcVEcjSUPuQv0giFskeK6lnu3YPr4oc1C9i/V/WxU8sTbLqvWdS4hIqNGpdOt9G3P4jSN0fJmKm470dc5k0uChZOEx05Rv2N7g0WJHxBDRIrJq+fQCAcS0PAE9Y63H6tyxPSuoyuAWxURbo7WNBV5td6SgNad0kAI4YnczmPyz1c3hpkA8wyBJArfR/3qn7dsEq2EG6n9kGSUWfiw70GoxPePaJRF4yfxk4vT7K5vlaRroKiD8mwPmpazDUuDjl9u3teGcGPczmf/79IorhF010taY8fBbhJT0SDBIon0sZDIBDGFjrKmrTuoqj2Ye3jsoVQFCi5mn1JMW64x9uIYsJCySx4LpcdFnrhQ86GgJEawKb7z+Mmi55peGOKWIgUF8lIiFL8uLfw/Odc6X+4sofN4N49lHzE5N2rezMPha/C+3ZK/2Uul3JZnHL7fYnigBbnHr8uU2tJ/jzliQpDO0mEPgQC4fiIDAS1rnERLVbENzBvQBYMhooSvnBB1BvQooVN2tkNKWxscdlF8NJghoCqEcAmPMUbZV+tnplmGXyd6gNIRiDc/45MMX1/4ny2srRDKH10qXR6gkNR9odNCt8uzfUClyu5bOGKvgottnEPFL3q5Q8V9pT6tU7+L+Xza/HCNtpQCATC8Qm9MGhEBCADfctFSeQz3eq1YBV/7aNcnsxRCZ02BOKyawDEQlfVLEhXYO8jMiGSYXj9yPEj1P/zuiWiNx99+Ug7KaU/RIVv18r3CJf/4gp/Mb/XK2Me7ul7ggW9ngbu7YddisSn2xMRhkC0uJY2DgKBcGIh5WrXkr6ANrVmgmbwCAzkOHVPM38tWsp/fr9pAuFhOy9K5VpBohKVhYI76lcII+Atqg8gGUKuHwRUT/s3sX+o7GWtGRS84Vwteo5FrNIYgCF7ldERE9ZTnqCbC1fuIW11aYMK8Rehhz/l9WvdHr9g7yMQCIQTPyrgjcg5A3xTLGpUxYMu3RsqQG9z0h0q5z9/wpQasKUcTsk8LEK1qMD+GN/EH25cK+iF/xLaRoYASc5cP+4TcE6gqA8RpZSz4ncitzos2TDR9vpNLu/lkuT3sSde0sbv86gW4159zBNM18RA6fegja84pHVWT9RSxRHaEAgEwsmJPq1Ji2ND9EZEu5OOTdIdLNCLgyiIquYb5gVcDtqMPs0oFEyKSYR+1s2ff76qj/3RvzHdo02GAInZ639bpotwn8DjV/z7gwzdgbwt52B8m8vZXKZzg7X2k/w+nqY1aLGykKaXRDXdF0FqyyW9fLTIFrR7WrROT7M2jcL7BAKBYEkPuEPcCAgKEfSmnqBBc+oRVdFh/niFaTN2rA/QJc0q+rJByvJcYDMZAiTiuz8oK/x/07CarS+LiftEMVI65PXVzw9i9gW/t1rb3SFXKwxWRLDcaRkodDXC+wVgzDSY+tAiSz37BAKBkBNdZc1iw0wUg9dcbJ5iY00WhwsSxVGwEE7lP9+VT30A+rLRMTDH18K+xg0BULNi81epASoWPLl6+tEt8kpgixi5i3ukNT+vH97+qo6ioKtNC2gxDMIqTit7l6LD1n1hkc5q5VLlqdc6KJ9PIBAIwwdoTlPugKwVQBg17EoUNWtdrig8rC2SOMWxPkAZAujZhqcHatb/4ps/xhC/Y5o8SFGBE0fZWyl735QT+PDzj2oWsmWl7cIo1J29fpVe2s/lw0lPsChZHFSTMIsM/n3u3WshLekKabHSEC1UAoFAGA2AchjtgxiAonv9qpCqUHeLIShl/Pk/y83asT7Aagj0eaPsU1VT2P0Nq7iC2JaOCpgVBynUY6vAzYN2rLLPRvD/QAoFmt6/myh7H2taz74zca5o7QOBT7v0+pPOPPx4fhdC/dLwFF4+lH7UHddinmYt5fHTwiQQCISjhWRxWLQNytZBuTEHCxNGvUATl2+ZKIZzGgIqNQAv8LTyBLu8Zj57wr9BFIahKhyKQ+WM1dwBpZyOVLlZxazEhqLwnP6PUob7jxMv3TzX4aDw2LeJNk41VU9I6DTRqgd5x0Hw/14MbGaPcoV/a/0yQRJ1ZnmSTfJGxHetevpTzm19KvT/mURRyJXSWgZG7Rr3m5iCSSAQCIRjhHhp2CAOcodkoSDoUgMFoBrmz2NcrjXlb3MaAngu6F25TPNG2QcqutkPuDHwSOM62SJmeJJQSCCKOWDKKecj+0zRhAPSQ0UhIt4LCguGxt/kgKN3pMLD5zEpeK4U3N8lJ72Sv5v+j/lv35bKEJ+VacQc/ciGoegHlP0+mYvH8b0tr635+v45sIX9gSvwBxpWs9vrlwvufZA8wYNHDQdy91+unsG+OH46+8L4aez8qqnsE+MmsfdXdLEtZTpbWtIuFL6awKeoo3OM3TW39j3O74uZJq+/MCnaUfl95Y3SwiMQCISxAnhlegnfnH2B9EjiWElQi5eIiMB0LrfYGAK2kwdVVCAqjYFerkQ2lMXY56r62JVcAf22cbWY/gYF9pbMKR+Wykt5qUqZHZYCrxXKHamFA1IRv8wV3PPcS0Ux4uNNG1h/41p2X8MqoezAQIccNSho/2/CHPa16lnsP7mi+/z4PqHokLL4l3GT2Se54PHT/DUcH5ThNybMFv/vutrF7O76FeK9QZEMY+NdeSxQuFCy++SxjLRBkO3VGxX3ypvHNcExvBrYKqItIG2CsXUhP/6PVvawzWVxtqCkjU3zNacJnqDEkbKJKHFbxaDpjcqpkfg/cckNMQhlr9kwxD3xTa7sKxPuAIpMXbrgpBD3kRZ3UzEfgUAgjDmkNO6t+SJaUqvWEkV1glVQdwcLe31t2rQyHRv4DC43WAaw2E4eTJqMAXiNraaxrvj9dG+zMArO4d4mFPAXuQcKj/RbXFn/D1fAX5ceKqbFfWrcFPbxyl4RUXhPeYpt5d7p2tJO4aGCcGaqN8p6vIaCQhoCxgeUlxGNaBKfGyxuFI9hsxJUis/0uvG3xuutQgEGhQEDimSMqD2PGw6Xc+MAhgYMj7fkDHso44PBbRne+f5BUh37HUL4Kv8u3luG6/H+MHhAygTj5mJ+bT7IFf0qfh3gpSuDC8ePx1bZi4/XdVOUZjBJmSQp/18Oul5V3a8Mwfu5zO6EMcnvHSj/WfyuYvxfvIQG7xAIBMJxAdQGdLtDWo+qD/CGCjvL/FpbhYgQTJXz1f9mE/49nMsYUJXiMWkUQFmllbK7Ke2BRqXyVko5LBVbs/ROkYOGkkchIt4Lnqpu+jzzZw5XVJgbRkCHNCjCpul1c7jx8d6KlIgY3MU9cOTMEaVQ3rlKHRywKPzXTTn6v5gK7VSkA5X2iDjsalzDflq7WITpz+aG0jJu8HRJlkZlvLRLIyVhUvBWBT4I736+ctjk6R+yTOD7HZfTOooiRfHicDrXn0Sen7x+AoFAOP4ws2iCFuMbeIsbDIKBdC43VRnVUhVgGQy28Z8v4vK8RSHk4nXPMgrsPNCheKgjqOQcjzVpM6oWRkCzNApghMwvaWUf4l45Ug531C9nj/uN1IHy6KHYoezfkPUEyNEjioAaiV/WL2PfnTiPfb5qmii2m8+NC3xWVI7MjcqQvG65bqnhnfthk0K3ivru3jEN47Gj7P2LjAat1d1RT9wdTc+h6PU2aL2+Ji1FvfsEAoFwfCNdte02PDoVEVBdBHyjr+Cvbedyk1QMZmPAOsb1cGIUlXUuBT4Mg+HwYO9rnm7X4Q6mIxqdMnWwuKSNbSqLi/QBogVncUGnBIrsVpR2iFQI3qNTdlIg2qHmMOgWoyM1hHMdheuIaM8fuPyQy5n8XvAntaCWLAiAm9+YO+EOFXDRhHhJ+RMIBMKJZQyAL8AV0PRCUeAlPL4WrVHr5h5gL7xAt6AY/hCXG7kcsFGkh228S7MH6uSd2lIVp4sPvYaYlR8UaNxtSExJcZB1csFreSrKQzbH6qh8u0wGgUodtMr0QbOpwK5VpjDscvR55N8HlL06b6/xmjrPHP/v7/J7eV5OiHyCy14Zxu/nch+X22T3x9e4fJzLci7tCW/Uk+KKPYlWUWPkdCH/vl0GqU8z/zmidbobaZEQCATCiYoQ/8eVjtbKFX/MBzrhYEHCGyrS3YHCvnFxLeVr1rpK2xE5qOWKYzWXr3DZKae8jUoEoK0oKMSs3Lu8YdZbEmaTS8NsammETSuLsJkVETZ/XFS8NogR8Dc5qCZXAdw7gxkEKkpgJ0Px1pOeAUWP59zLFufazs+5VZ47/g7nObM8kq6HsIlmrEl4w+Vcxqd8ofIub6g05Qn5ukpDnrgnWhyp7CnoAEFPSYclAhSRIvn53aFC0PXO8SW0WLFf6ylvpYVBIBAIJxPAIJgqiWjVmktLlkZVC2FR0h0u5KIli0JaogQthmH87XiuTNBSeCqXz3P5AZfbpecJGuKnubzI5QXpoT4tX39EeqZP2IXmoRDfH+pgn+6Ms/O5XKDr7MJkgl3clWRf70mxb01KsW9P6WLfndot5AfTe9iFiYRQpnq2Elbv/RyXudL7/YgkRrpLvm5nxLxjUxU/IqkLHCOUvTJyOvjzHl+Yza2MsvW1reLc/609zr7Ez+lSfn7/yc/doVUPj6eo3nzz9zi1slbb0likLaqp5AacHwadGsSjOPoLudFQ0Orixp8vpHWV+QWjJIFAIBAIWnt5o5bkXmLSHdF0X0jxvQtF0lUcKegqDmspo0pc/H1PeZPWO96vTaryY2Sxj8u4hDs4US8OTeR/U53whSuT3rAv7o24pdI6z6RsjTA794ThzX+HK/gfzexlV87oYVdyBf9DLlD0V0zrZpdz+T6kz5DLuJK8mv/dJ1tjQpkm7cP+ePyC8blhlximVBiG0hvHX5vE5Vwul8u8uJPCNacO7CSn8sexxdxB1s2V/bxxUbaprpV9MNLJ/j2ms691p9hl/FxwvldJ+YE852/2ptiU7AjHO/Lxc/JaurkBhEp9Q7yCoY9/D1xguPHvCTS9nZ6oGC9NIBAIBEJe6NEatLg3rHXC8zcUTppp0OxZ6mCI87VrsZKoFvdlMsRNcXUZuWavKDrE/7/MagDAM57DPWEoQ+XhQ8HjZ7N8zyL4OyjN05vaRQg95bUv/uOfMSeZVpiBwnhhu6a72sVgpURpREuVhr2GQRD8uMybP50jdZCX4Fja+Xlt5Ar/P/SEiGKo44VcKZX996QxYz5vdX64Jp2Zxo0yAC4T1xLX1E0ePIFAIBCOAvQibgxoES2utRrFhFwRdaGY0BtQxkEBfx2V5MZzr4ggFCR9UYhmGlssvGeE8JEDXz2xRShEq6JPGwBTsxXld6cOGALwrkUkwGsbBfh1ojBYpGsofAsjNF6g0hwwYCZrFVpvwXgj8uFt5hL1csUKCuWVMnXwRS6Xcrmay/VSruDyfdOshQGDw2t4/jgm5eF/X57HpVO70mI2dKznjGuBa4JrYzondT53J2G4jG/VyAAgEAgEwpiFkUbAvIKwhyuvZ8z5bHjK8N7hxUNRppXiVCPUf8U0w1MWaYEZvdx7HhD8fAX/3TUze9mXU0mRZ9edUwGbVd48xRW97oVERf2DNFKUQVDYUxjWJmlhrdNmrG2yqFkV0WnSQGDWIkJ1HDimq/mxXc7P4YeW479yRm86CoBz/L7FyLnSPrKhPudZbmR5jSr+UAHdYQQCgUAYe8q/UHjdhVzwGLJyDAgDwBVkH412itA4FOAPZf4fivAbPUl2oR5nn2nvYP/S2sb+qbmV/SOXT7a0sfPa29kF8Rj7aldC1Am8P9wpwu4OUYCbkMZAuiJl8Zp1b0CLjq+TMxMgkQJUyFtTHSYpEukDY7aC+TPSEY0P8GPBMV3Cjw3HiGPFMePYcQ44F5wTzg3n+F3TeV8mUwW4Jrg2JgNARRneTKJVE8Of+HF2ltIoXgKBQCCMRSPAbeSqucyxsNilawA+0xlnP57Vyy6d0sW+qMfYB0PNbEttkK2oamSLKxvYwooGtqC8ns2Xgud4Db9bOq6RbZgYYO9pirDJJUZRoU0twJv8s6KS2lZ0NzgerzeoxcortXjlOEQHRAtdcqAGolA+Rrn81Rr+FwWN/Bje0xgRx4RjG+z4cY441w/xc8a5Iz2Aa/GZjri1BmCAhAnX0rimLrrDCAQCgTDmkNSEsiySSvM0SzGbwZTHPdyvpJLs3zs72OaaAFvEFePCckM5LuMKFLIcwhXlCinLlcjf428XV9SzWWV+qwFg9tDfZ9c+NyRjZiD8f5bV+1cGAI5hcWV9+vjVsWcdvzx2dfw4Z5z7ppqguBa4JilvVlpDXbvT5XEUtVU20I1GIBAIhDHn/ZuV5mezDACuMHt9Yba1NiSU32IuaYVpUpD5iBEtaLKmAMyfd7kyAPRhFM/pmedyufVcVEpjcaVx/EM5dvM54xrgWpxSa1wb3W17LqoV0JXwhehGIxAIBMIYMwC8GWHzK61eM7zbHm/QUPzDUPp2inSSL2j1mtXn3atpTIuJDoahF8/h/3RpQf4WKZzLvXbngs8eiXPAtcA1wbVxOJer0ikJIvMhEAgEwpgzADLz5tfaGgAjoDTNUYDppQGnOoAXE+5ARQJTEd3BYRkAovLeLQYnvWCX/8dnr6gamXPBNelxNmauVddW95ABQCAQCIQxZwCEzWHz8+3C5ihyW1TZNCJGAJSvTR2AUtLo2a9VhEbDMGYKJKtgrV3/Pz5zNv/skTAAcC1wTZIex3TG+ekUgCdMNxqBQCAQxqAR4A0VSea6tXZ98yOpOPEec5wNgLfFCFzZCTAMA0BFMvwmpsAMA2BO+cidh0NBo3HtvMG16FbgUkR3GIFAIBDGHBonRqXnLJRVA3/+ulVxIsTd6wvmXyhnUyuwXMpK/rvZzgbAm0l3sMbo9R9GCgATE/n/Nd4j9KadAQClvbJq4HjyPX476c0O/6vPel33huolr0FB08Qo3WgEAoFAGFuYVBgwyHW8kQKjpz50g137HBSd8p6XWhWn9KhRFLewYqBdTilV/P0i0WdvtAL2lWTVAKiIA1gIy448BSDe4xlrNAOf2VcaEMe5QB7jUpMhoNobF8puB/O5KVkqvf/Z/FrkYDW8IcmvZdJgMBTXmEAgEAiEMYcuwbCXrgPYZmcAqFqABRVNGSF09MeDNGdpZSPbKslyPtPRwS5MxNklKV2wAF7MH/Hz+fz1swNR1uVcOX8bWAC7ijExLzTk89A9Yf5//QUpt5h7cJtdQWOXNySO4XzLMV4ij/HT7R3iHHAuOKcFFr4DnPvCCtvcv/mztqVpjUtCdIMRCAQCYWwi6QuIeQA6Rgy7IyVccT3qxKGflJEApQw3TvSzj4RbhJLHkBxw6v/QNCrYLNfO6mUXdyXt8uaqcO4CRZ6jec4c+ol455tJjS6wK2jEZ1/clRLHYj0+ddw4B5wLzgnnhnNURg/O3Yb8x3ytHsU11N1RY8aCj8b8EggEAmGMotMV1nrLW81RgDPtlKe1NXBqSYD9Y3Mn+/GsScakQNOgIOu4YNDnQrn+a1vcOkHPnDufpjxnNozzYEWIAojxx3icZjcFEJ+NY8Cx4Jgus5loqATnBMrfT7R0itSBTc+/jRETPlOdQ09ZsxZ3tdANRiAQCIQxHAUAv35xSOspCRVMKxcT9X4mFdvfnYwAeNMxLmf429n3p3WnB+V812aE7qX8tau5Z31KQxtrK7IdoPNqwh1qkMyEhTHP0Avn8H9EJ4Ax2KhBvKdlsBE+eys/BhzLpVOzx/yqaYc4F0wAxLnhHHGuOZS/ukY3tJaEtbgvWJDk54FrSiAQCATCmEa8OKJFCtskcY2oCajn8niuSIDKg0OpLqluZhcmEkJxYlIeJu193+RdXz2zh321K8m6fSGn/P9OUcEvKvlDwz4PeP8pT7ggafAb7HSqA7iEH8s1M3vSx2eMNjam/OEcvsTPZfH4ZnFu5nPNofwfl9dMXMNIYbu4pgQCgUAgjHkILn3BpAcvWkyya+PK7AmTEXDITgnCs+4oNsLja2ta2HkdcfaN3pTwppUhcFEqweZVRq3T88zGxacGiHOGbwCY30O+Z4YBo6YbzuHHgmNSil+MNubH/Cl+7GtrWgW/P84p5XVU/IdM7/sE9/jbReQBkwwNMiK6oQgEAoFwfMAIoQcH6IHd4jlC6TeZQunv2kUEVE4fOfZ2rjh7S8Js/rgoW1rdzBZWNacVb9K+b/4NLs1mWuIjiQCYCIGa5Xtn1gKYjgXHhmOcx48Vx4xjb1dev9cx1/+u6f1uSXhDjZaZCtpwUhgEAoFAIBwzSCpdIWDj6yyKFvSUBFxyVPDDlqr3d+0MAQg86E6pTOFJO4TRlSHxLRlxcIE9L3UEyrMLRoxXvpdhwHzLid4Yjzg2KH0cK45ZHX/CvsrffL64Fqe2l4Zc3UWCfyCt/BPE/U8gEAiE49IIcKejAGqaXWHKE+EGQcTNf54jleo7Fo/YtkZAKNTcPfNPc689zZqX8EW0Vk/9sI8d/1fn72GaC4C8/NO5uA1yHCOzRDzw+L+4BrgWXDTdKxR/Wvkn3RT6JxAIBMJxjB6NK3yvUcmeMpSpS/eEC2KeCATKbjGXP5rC64ekHE44K1P1t++Yhv/MSeftRRj9yCvnEx6/lvAGzLUAc0zDgd7J8xit54NzXRLnx8elANdCvn+Bzq8RNwS0KVoz3TgEAoFAODGQEgqvmXvWU7XkgNIrShbD2w1h7O7nuLxmUpxm5fmOSawK9SUu85Jp5R/WhGi1R3zMMf4PCjlu5OVd8jPmys9keR6jOk6c2+e4Z1+Bc5ZEQy5cC1wTXJuUh9r9CAQCgXCCAjUBUHRTPI3aJHjYhiFQKIvuMH73Y1zu4/LXHF41Hg8gjM6VckMckQRv2JUob9aSZREt6QqN2PF2ucKazt8zXh4VnxEXKQxR0Pi/8hhYjkjAX+W5fMw0nhhhfleXp03r5pIUURAK9xMIBALhZDEEjAI7TRL2iIhAvLhGa9PqtA6tsYD/voW/tlFGBqBsr+RyOZcLuWzlSrNBDftBu6HubebeequmF4/8wBy8Z9zXrMW9UbQ4QoEXIKWR8Iiph1vlMV3B5Sp5rJ8Tx87PoUNrKmjTGrS4O82QWJA+by8pfgKBQCCcxBEB5NqTRq4dyrUoVRwpiPOfITO0eMbfV7tmapO9tVqvt0GF5QsxvAeeeZdn9KbldfP3xmfosqsBn41jwLHgmMzAMavj7+LnIsP9hXEYKbJFkkAgEAiEkx4h/i/FveFObgg0aaVajCvbhFEV75LK0yoibTCjZoLWwv3rlC+gxXyjz5aHz8BntRU2a30TYIAEcx+jF1TEAS0ozglGTlicK4FAIBAIBAKBQCAQCAQCgUAgEAgEAoFAIBAIBAKBQCAQCAQCgUAgEAgEAoFAIBAIBAKBQCAQCAQCgUAgEAgEAoFAIBAIBAKBQCAQCAQCgUAgEAgEAoFAIBAIBAKBQCAQCAQCgUAgEAgEAoFAIBAIBAKBQCAQCAQCgUAgEAgEAoFAIBAIBAKBcJTw/wH2XjKVOnURDgAAAABJRU5ErkJggg==;" vertex="1" parent="1">
          <mxGeometry x="69" y="309" width="152" height="152" as="geometry" />
        </mxCell>
        <mxCell id="sQdlsXQTLmB8XgNkKAul-17" value="" style="endArrow=none;html=1;rounded=0;strokeWidth=2;exitX=0.533;exitY=0.005;exitDx=0;exitDy=0;exitPerimeter=0;" edge="1" parent="1">
          <mxGeometry width="50" height="50" relative="1" as="geometry">
            <mxPoint x="150.92999999999995" y="281.04999999999995" as="sourcePoint" />
            <mxPoint x="151" y="220" as="targetPoint" />
          </mxGeometry>
        </mxCell>
        <mxCell id="sQdlsXQTLmB8XgNkKAul-19" value="" style="endArrow=classic;html=1;rounded=0;strokeWidth=2;" edge="1" parent="1">
          <mxGeometry width="50" height="50" relative="1" as="geometry">
            <mxPoint x="150" y="220" as="sourcePoint" />
            <mxPoint x="480" y="220" as="targetPoint" />
          </mxGeometry>
        </mxCell>
        <mxCell id="sQdlsXQTLmB8XgNkKAul-20" value="" style="endArrow=classic;html=1;rounded=0;strokeWidth=2;exitX=0.943;exitY=0.238;exitDx=0;exitDy=0;exitPerimeter=0;" edge="1" parent="1" source="sQdlsXQTLmB8XgNkKAul-15">
          <mxGeometry width="50" height="50" relative="1" as="geometry">
            <mxPoint x="510" y="350" as="sourcePoint" />
            <mxPoint x="480" y="330" as="targetPoint" />
          </mxGeometry>
        </mxCell>
        <mxCell id="sQdlsXQTLmB8XgNkKAul-21" value="" style="endArrow=classic;html=1;rounded=0;strokeWidth=2;exitX=0.921;exitY=0.78;exitDx=0;exitDy=0;exitPerimeter=0;" edge="1" parent="1" source="sQdlsXQTLmB8XgNkKAul-15">
          <mxGeometry width="50" height="50" relative="1" as="geometry">
            <mxPoint x="510" y="350" as="sourcePoint" />
            <mxPoint x="480" y="444" as="targetPoint" />
          </mxGeometry>
        </mxCell>
        <mxCell id="sQdlsXQTLmB8XgNkKAul-22" value="" style="endArrow=none;html=1;rounded=0;strokeWidth=2;exitX=0.5;exitY=1;exitDx=0;exitDy=0;" edge="1" parent="1" source="sQdlsXQTLmB8XgNkKAul-15">
          <mxGeometry width="50" height="50" relative="1" as="geometry">
            <mxPoint x="470" y="460" as="sourcePoint" />
            <mxPoint x="145" y="540" as="targetPoint" />
          </mxGeometry>
        </mxCell>
        <mxCell id="sQdlsXQTLmB8XgNkKAul-23" value="" style="endArrow=classic;html=1;rounded=0;strokeWidth=2;" edge="1" parent="1">
          <mxGeometry width="50" height="50" relative="1" as="geometry">
            <mxPoint x="144" y="540" as="sourcePoint" />
            <mxPoint x="480" y="540" as="targetPoint" />
          </mxGeometry>
        </mxCell>
      </root>
    </mxGraphModel>
  </diagram>
</mxfile>
